NotoSerifDisplay-Italic.ufo
<glyph name="exclam" format="2">
  <advance width="333"/>
  <unicode hex="0021"/>
  <outline>
    <contour>
      <point x="141" y="201" type="line"/>
      <point x="156" y="201" type="line"/>
      <point x="316" y="714" type="line"/>
      <point x="200" y="714" type="line"/>
    </contour>
    <contour>
      <point x="112" y="-8" type="curve" smooth="yes"/>
      <point x="159" y="-8"/>
      <point x="181" y="35"/>
      <point x="181" y="82" type="curve" smooth="yes"/>
      <point x="181" y="117"/>
      <point x="163" y="130"/>
      <point x="136" y="130" type="curve" smooth="yes"/>
      <point x="92" y="130"/>
      <point x="67" y="86"/>
      <point x="67" y="39" type="curve" smooth="yes"/>
      <point x="67" y="5"/>
      <point x="84" y="-8"/>
    </contour>
  </outline>
</glyph>
<glyph name="dollar" format="2">
  <advance width="559"/>
  <unicode hex="0024"/>
  <outline>
    <contour>
      <point x="234" y="37" type="curve"/>
      <point x="209" y="-79" type="line"/>
      <point x="219" y="-79" type="line"/>
      <point x="243" y="36" type="line"/>
      <point x="388" y="36"/>
      <point x="491" y="108"/>
      <point x="491" y="229" type="curve" smooth="yes"/>
      <point x="491" y="304"/>
      <point x="441" y="347"/>
      <point x="352" y="393" type="curve" smooth="yes"/>
      <point x="323" y="408" type="line"/>
      <point x="380" y="675" type="line"/>
      <point x="442" y="671"/>
      <point x="465" y="578"/>
      <point x="465" y="515" type="curve"/>
      <point x="521" y="515"/>
      <point x="546" y="543"/>
      <point x="546" y="584" type="curve" smooth="yes"/>
      <point x="546" y="641"/>
      <point x="488" y="681"/>
      <point x="382" y="684" type="curve"/>
      <point x="398" y="760" type="line"/>
      <point x="388" y="760" type="line"/>
      <point x="372" y="684" type="line"/>
      <point x="236" y="684"/>
      <point x="144" y="624"/>
      <point x="144" y="503" type="curve" smooth="yes"/>
      <point x="144" y="429"/>
      <point x="187" y="378"/>
      <point x="260" y="341" type="curve" smooth="yes"/>
      <point x="294" y="324" type="line"/>
      <point x="236" y="46" type="line"/>
      <point x="158" y="51"/>
      <point x="114" y="145"/>
      <point x="114" y="254" type="curve"/>
      <point x="87" y="254"/>
      <point x="37" y="232"/>
      <point x="37" y="172" type="curve" smooth="yes"/>
      <point x="37" y="101"/>
      <point x="108" y="37"/>
    </contour>
    <contour>
      <point x="245" y="46" type="curve"/>
      <point x="304" y="320" type="line"/>
      <point x="373" y="284"/>
      <point x="396" y="254"/>
      <point x="396" y="207" type="curve"/>
      <point x="396" y="123"/>
      <point x="338" y="49"/>
    </contour>
    <contour>
      <point x="369" y="675" type="curve"/>
      <point x="314" y="412" type="line"/>
      <point x="258" y="438"/>
      <point x="237" y="476"/>
      <point x="237" y="517" type="curve" smooth="yes"/>
      <point x="237" y="607"/>
      <point x="296" y="672"/>
    </contour>
  </outline>
</glyph>
<glyph name="ampersand" format="2">
  <advance width="750"/>
  <unicode hex="0026"/>
  <outline>
    <contour>
      <point x="254" y="-10" type="curve" smooth="yes"/>
      <point x="352" y="-10"/>
      <point x="422" y="29"/>
      <point x="475" y="83" type="curve"/>
      <point x="535" y="0" type="line"/>
      <point x="688" y="0" type="line"/>
      <point x="690" y="10" type="line"/>
      <point x="681" y="10" type="line" smooth="yes"/>
      <point x="642" y="10"/>
      <point x="627" y="34"/>
      <point x="590" y="84" type="curve" smooth="yes"/>
      <point x="535" y="159" type="line"/>
      <point x="568" y="211"/>
      <point x="593" y="267"/>
      <point x="615" y="311" type="curve" smooth="yes"/>
      <point x="654" y="388"/>
      <point x="680" y="411"/>
      <point x="741" y="411" type="curve" smooth="yes"/>
      <point x="750" y="411" type="line"/>
      <point x="752" y="421" type="line"/>
      <point x="572" y="421" type="line"/>
      <point x="564" y="382" type="line" smooth="yes"/>
      <point x="552" y="324"/>
      <point x="531" y="261"/>
      <point x="501" y="205" type="curve"/>
      <point x="352" y="410" type="line"/>
      <point x="505" y="456"/>
      <point x="579" y="488"/>
      <point x="579" y="594" type="curve" smooth="yes"/>
      <point x="579" y="667"/>
      <point x="527" y="724"/>
      <point x="410" y="724" type="curve" smooth="yes"/>
      <point x="275" y="724"/>
      <point x="197" y="666"/>
      <point x="197" y="552" type="curve" smooth="yes"/>
      <point x="197" y="504"/>
      <point x="212" y="456"/>
      <point x="256" y="387" type="curve"/>
      <point x="132" y="360"/>
      <point x="35" y="307"/>
      <point x="35" y="177" type="curve" smooth="yes"/>
      <point x="35" y="74"/>
      <point x="105" y="-10"/>
    </contour>
    <contour>
      <point x="264" y="0" type="curve" smooth="yes"/>
      <point x="181" y="0"/>
      <point x="134" y="77"/>
      <point x="134" y="179" type="curve" smooth="yes"/>
      <point x="134" y="278"/>
      <point x="165" y="331"/>
      <point x="262" y="379" type="curve"/>
      <point x="444" y="126" type="line"/>
      <point x="399" y="50"/>
      <point x="340" y="0"/>
    </contour>
    <contour>
      <point x="346" y="417" type="curve"/>
      <point x="303" y="481"/>
      <point x="293" y="523"/>
      <point x="293" y="563" type="curve" smooth="yes"/>
      <point x="293" y="665"/>
      <point x="330" y="714"/>
      <point x="406" y="714" type="curve" smooth="yes"/>
      <point x="460" y="714"/>
      <point x="488" y="659"/>
      <point x="488" y="597" type="curve" smooth="yes"/>
      <point x="488" y="517"/>
      <point x="451" y="472"/>
    </contour>
  </outline>
</glyph>
<glyph name="parenleft" format="2">
  <advance width="346"/>
  <unicode hex="0028"/>
  <outline>
    <contour>
      <point x="218" y="-128" type="curve"/>
      <point x="220" y="-118" type="line"/>
      <point x="145" y="-42"/>
      <point x="135" y="24"/>
      <point x="135" y="139" type="curve" smooth="yes"/>
      <point x="135" y="275"/>
      <point x="190" y="629"/>
      <point x="405" y="750" type="curve"/>
      <point x="407" y="760" type="line"/>
      <point x="160" y="695"/>
      <point x="41" y="429"/>
      <point x="41" y="186" type="curve" smooth="yes"/>
      <point x="41" y="47"/>
      <point x="93" y="-74"/>
    </contour>
  </outline>
</glyph>
<glyph name="parenright" format="2">
  <advance width="346"/>
  <unicode hex="0029"/>
  <outline>
    <contour>
      <point x="-42" y="-126" type="curve"/>
      <point x="-44" y="-136" type="line"/>
      <point x="203" y="-71"/>
      <point x="322" y="195"/>
      <point x="322" y="438" type="curve" smooth="yes"/>
      <point x="322" y="577"/>
      <point x="270" y="698"/>
      <point x="145" y="752" type="curve"/>
      <point x="143" y="742" type="line"/>
      <point x="230" y="677"/>
      <point x="228" y="585"/>
      <point x="228" y="485" type="curve" smooth="yes"/>
      <point x="228" y="349"/>
      <point x="195" y="4"/>
    </contour>
  </outline>
</glyph>
<glyph name="asterisk" format="2">
  <advance width="500"/>
  <unicode hex="002A"/>
  <outline>
    <contour>
      <point x="317" y="373" type="line"/>
      <point x="318" y="551" type="line"/>
      <point x="455" y="410" type="line"/>
      <point x="505" y="478" type="line"/>
      <point x="331" y="565" type="line"/>
      <point x="526" y="574" type="line"/>
      <point x="508" y="658" type="line"/>
      <point x="325" y="583" type="line"/>
      <point x="397" y="747" type="line"/>
      <point x="312" y="765" type="line"/>
      <point x="309" y="586" type="line"/>
      <point x="174" y="731" type="line"/>
      <point x="123" y="661" type="line"/>
      <point x="296" y="573" type="line"/>
      <point x="102" y="563" type="line"/>
      <point x="120" y="479" type="line"/>
      <point x="302" y="554" type="line"/>
      <point x="232" y="391" type="line"/>
    </contour>
  </outline>
</glyph>
<glyph name="period" format="2">
  <advance width="237"/>
  <unicode hex="002E"/>
  <outline>
    <contour>
      <point x="70" y="-8" type="curve" smooth="yes"/>
      <point x="117" y="-8"/>
      <point x="139" y="35"/>
      <point x="139" y="82" type="curve" smooth="yes"/>
      <point x="139" y="117"/>
      <point x="121" y="130"/>
      <point x="94" y="130" type="curve" smooth="yes"/>
      <point x="50" y="130"/>
      <point x="25" y="86"/>
      <point x="25" y="39" type="curve" smooth="yes"/>
      <point x="25" y="5"/>
      <point x="42" y="-8"/>
    </contour>
  </outline>
</glyph>
<glyph name="one" format="2">
  <advance width="559"/>
  <unicode hex="0031"/>
  <outline>
    <contour>
      <point x="48" y="0" type="line"/>
      <point x="420" y="0" type="line"/>
      <point x="422" y="10" type="line"/>
      <point x="368" y="10" type="line" smooth="yes"/>
      <point x="326" y="10"/>
      <point x="296" y="16"/>
      <point x="296" y="50" type="curve" smooth="yes"/>
      <point x="296" y="56"/>
      <point x="298" y="70"/>
      <point x="300" y="78" type="curve" smooth="yes"/>
      <point x="436" y="718" type="line"/>
      <point x="378" y="718" type="line"/>
      <point x="304" y="646" type="line" smooth="yes"/>
      <point x="254" y="598"/>
      <point x="213" y="587"/>
      <point x="127" y="589" type="curve"/>
      <point x="127" y="558"/>
      <point x="141" y="535"/>
      <point x="169" y="535" type="curve" smooth="yes"/>
      <point x="212" y="535"/>
      <point x="254" y="573"/>
      <point x="324" y="650" type="curve"/>
      <point x="325" y="650" type="line"/>
      <point x="312" y="595"/>
      <point x="296" y="537"/>
      <point x="285" y="482" type="curve" smooth="yes"/>
      <point x="200" y="82" type="line" smooth="yes"/>
      <point x="187" y="19"/>
      <point x="152" y="10"/>
      <point x="102" y="10" type="curve" smooth="yes"/>
      <point x="49" y="10" type="line"/>
    </contour>
  </outline>
</glyph>
<glyph name="four" format="2">
  <advance width="559"/>
  <unicode hex="0034"/>
  <outline>
    <contour>
      <point x="152" y="0" type="line"/>
      <point x="479" y="0" type="line"/>
      <point x="481" y="10" type="line"/>
      <point x="458" y="10" type="line" smooth="yes"/>
      <point x="416" y="10"/>
      <point x="386" y="16"/>
      <point x="386" y="50" type="curve" smooth="yes"/>
      <point x="386" y="56"/>
      <point x="388" y="70"/>
      <point x="390" y="78" type="curve" smooth="yes"/>
      <point x="525" y="714" type="line"/>
      <point x="432" y="714" type="line"/>
      <point x="19" y="237" type="line"/>
      <point x="10" y="196" type="line"/>
      <point x="538" y="196" type="line"/>
      <point x="550" y="252" type="line"/>
      <point x="38" y="252" type="line"/>
      <point x="36" y="242" type="line"/>
      <point x="335" y="588" type="line" smooth="yes"/>
      <point x="372" y="631"/>
      <point x="402" y="665"/>
      <point x="432" y="703" type="curve"/>
      <point x="409" y="610"/>
      <point x="383" y="506"/>
      <point x="369" y="439" type="curve" smooth="yes"/>
      <point x="295" y="82" type="line" smooth="yes"/>
      <point x="282" y="19"/>
      <point x="242" y="10"/>
      <point x="197" y="10" type="curve" smooth="yes"/>
      <point x="153" y="10" type="line"/>
    </contour>
  </outline>
</glyph>
<glyph name="five" format="2">
  <advance width="559"/>
  <unicode hex="0035"/>
  <outline>
    <contour>
      <point x="191" y="-10" type="curve" smooth="yes"/>
      <point x="368" y="-10"/>
      <point x="475" y="99"/>
      <point x="475" y="243" type="curve" smooth="yes"/>
      <point x="475" y="362"/>
      <point x="393" y="427"/>
      <point x="265" y="427" type="curve" smooth="yes"/>
      <point x="220" y="427"/>
      <point x="162" y="409"/>
      <point x="114" y="368" type="curve"/>
      <point x="193" y="634" type="line"/>
      <point x="461" y="634" type="line" smooth="yes"/>
      <point x="497" y="634"/>
      <point x="508" y="624"/>
      <point x="508" y="610" type="curve" smooth="yes"/>
      <point x="508" y="602"/>
      <point x="506" y="580"/>
      <point x="504" y="563" type="curve"/>
      <point x="514" y="563" type="line"/>
      <point x="541" y="714" type="line"/>
      <point x="207" y="714" type="line"/>
      <point x="100" y="357" type="line"/>
      <point x="111" y="355" type="line"/>
      <point x="165" y="400"/>
      <point x="217" y="416"/>
      <point x="259" y="416" type="curve" smooth="yes"/>
      <point x="347" y="416"/>
      <point x="371" y="347"/>
      <point x="371" y="250" type="curve" smooth="yes"/>
      <point x="371" y="78"/>
      <point x="299" y="0"/>
      <point x="194" y="0" type="curve" smooth="yes"/>
      <point x="112" y="0"/>
      <point x="91" y="61"/>
      <point x="91" y="152" type="curve"/>
      <point x="39" y="152"/>
      <point x="16" y="127"/>
      <point x="16" y="90" type="curve" smooth="yes"/>
      <point x="16" y="35"/>
      <point x="62" y="-10"/>
    </contour>
  </outline>
</glyph>
<glyph name="seven" format="2">
  <advance width="559"/>
  <unicode hex="0037"/>
  <outline>
    <contour>
      <point x="128" y="0" type="line"/>
      <point x="203" y="0" type="line"/>
      <point x="594" y="685" type="line"/>
      <point x="600" y="714" type="line"/>
      <point x="153" y="714" type="line"/>
      <point x="110" y="533" type="line"/>
      <point x="120" y="533" type="line"/>
      <point x="134" y="583" type="line" smooth="yes"/>
      <point x="143" y="616"/>
      <point x="167" y="634"/>
      <point x="203" y="634" type="curve" smooth="yes"/>
      <point x="554" y="634" type="line"/>
    </contour>
  </outline>
</glyph>
<glyph name="eight" format="2">
  <advance width="559"/>
  <unicode hex="0038"/>
  <outline>
    <contour>
      <point x="244" y="-10" type="curve" smooth="yes"/>
      <point x="394" y="-10"/>
      <point x="508" y="56"/>
      <point x="508" y="202" type="curve" smooth="yes"/>
      <point x="508" y="283"/>
      <point x="456" y="337"/>
      <point x="371" y="386" type="curve"/>
      <point x="487" y="425"/>
      <point x="555" y="474"/>
      <point x="555" y="578" type="curve" smooth="yes"/>
      <point x="555" y="662"/>
      <point x="489" y="724"/>
      <point x="371" y="724" type="curve" smooth="yes"/>
      <point x="201" y="724"/>
      <point x="132" y="639"/>
      <point x="132" y="531" type="curve" smooth="yes"/>
      <point x="132" y="468"/>
      <point x="166" y="408"/>
      <point x="240" y="359" type="curve"/>
      <point x="114" y="322"/>
      <point x="32" y="274"/>
      <point x="32" y="162" type="curve" smooth="yes"/>
      <point x="32" y="62"/>
      <point x="113" y="-10"/>
    </contour>
    <contour>
      <point x="257" y="0" type="curve" smooth="yes"/>
      <point x="166" y="0"/>
      <point x="128" y="64"/>
      <point x="128" y="146" type="curve" smooth="yes"/>
      <point x="128" y="260"/>
      <point x="175" y="305"/>
      <point x="249" y="353" type="curve"/>
      <point x="369" y="291"/>
      <point x="413" y="247"/>
      <point x="413" y="166" type="curve" smooth="yes"/>
      <point x="413" y="59"/>
      <point x="352" y="0"/>
    </contour>
    <contour>
      <point x="359" y="392" type="curve"/>
      <point x="260" y="441"/>
      <point x="228" y="488"/>
      <point x="228" y="551" type="curve" smooth="yes"/>
      <point x="228" y="648"/>
      <point x="273" y="714"/>
      <point x="365" y="714" type="curve" smooth="yes"/>
      <point x="445" y="714"/>
      <point x="466" y="653"/>
      <point x="466" y="585" type="curve" smooth="yes"/>
      <point x="466" y="501"/>
      <point x="443" y="447"/>
    </contour>
  </outline>
</glyph>
<glyph name="nine" format="2">
  <advance width="559"/>
  <unicode hex="0039"/>
  <outline>
    <contour>
      <point x="199" y="-10" type="curve" smooth="yes"/>
      <point x="448" y="-10"/>
      <point x="534" y="320"/>
      <point x="534" y="487" type="curve" smooth="yes"/>
      <point x="534" y="641"/>
      <point x="457" y="724"/>
      <point x="346" y="724" type="curve" smooth="yes"/>
      <point x="210" y="724"/>
      <point x="100" y="617"/>
      <point x="100" y="464" type="curve" smooth="yes"/>
      <point x="100" y="355"/>
      <point x="167" y="278"/>
      <point x="285" y="278" type="curve" smooth="yes"/>
      <point x="347" y="278"/>
      <point x="391" y="310"/>
      <point x="421" y="343" type="curve"/>
      <point x="368" y="123"/>
      <point x="309" y="0"/>
      <point x="207" y="0" type="curve" smooth="yes"/>
      <point x="119" y="0"/>
      <point x="102" y="74"/>
      <point x="101" y="137" type="curve"/>
      <point x="64" y="137"/>
      <point x="42" y="112"/>
      <point x="42" y="79" type="curve" smooth="yes"/>
      <point x="42" y="36"/>
      <point x="78" y="-10"/>
    </contour>
    <contour>
      <point x="298" y="291" type="curve" smooth="yes"/>
      <point x="229" y="291"/>
      <point x="200" y="343"/>
      <point x="200" y="461" type="curve" smooth="yes"/>
      <point x="200" y="585"/>
      <point x="241" y="714"/>
      <point x="343" y="714" type="curve" smooth="yes"/>
      <point x="410" y="714"/>
      <point x="437" y="644"/>
      <point x="437" y="524" type="curve" smooth="yes"/>
      <point x="437" y="470"/>
      <point x="431" y="408"/>
      <point x="424" y="360" type="curve"/>
      <point x="389" y="321"/>
      <point x="349" y="291"/>
    </contour>
  </outline>
</glyph>
<glyph name="colon" format="2">
  <advance width="286"/>
  <unicode hex="003A"/>
  <outline>
    <contour>
      <point x="84" y="-8" type="curve" smooth="yes"/>
      <point x="131" y="-8"/>
      <point x="153" y="35"/>
      <point x="153" y="82" type="curve" smooth="yes"/>
      <point x="153" y="117"/>
      <point x="135" y="130"/>
      <point x="108" y="130" type="curve" smooth="yes"/>
      <point x="64" y="130"/>
      <point x="39" y="86"/>
      <point x="39" y="39" type="curve" smooth="yes"/>
      <point x="39" y="5"/>
      <point x="56" y="-8"/>
    </contour>
    <contour>
      <point x="174" y="403" type="curve" smooth="yes"/>
      <point x="221" y="403"/>
      <point x="243" y="446"/>
      <point x="243" y="493" type="curve" smooth="yes"/>
      <point x="243" y="528"/>
      <point x="225" y="541"/>
      <point x="198" y="541" type="curve" smooth="yes"/>
      <point x="154" y="541"/>
      <point x="129" y="497"/>
      <point x="129" y="450" type="curve" smooth="yes"/>
      <point x="129" y="416"/>
      <point x="146" y="403"/>
    </contour>
  </outline>
</glyph>
<glyph name="semicolon" format="2">
  <advance width="286"/>
  <unicode hex="003B"/>
  <outline>
    <contour>
      <point x="-8" y="-146" type="line"/>
      <point x="119" y="-117"/>
      <point x="173" y="-45"/>
      <point x="173" y="46" type="curve" smooth="yes"/>
      <point x="173" y="98"/>
      <point x="137" y="128"/>
      <point x="95" y="128" type="curve" smooth="yes"/>
      <point x="61" y="128"/>
      <point x="33" y="108"/>
      <point x="33" y="69" type="curve" smooth="yes"/>
      <point x="33" y="16"/>
      <point x="98" y="25"/>
      <point x="98" y="-37" type="curve" smooth="yes"/>
      <point x="98" y="-87"/>
      <point x="66" y="-116"/>
      <point x="-7" y="-136" type="curve"/>
    </contour>
    <contour>
      <point x="174" y="403" type="curve" smooth="yes"/>
      <point x="221" y="403"/>
      <point x="243" y="446"/>
      <point x="243" y="493" type="curve" smooth="yes"/>
      <point x="243" y="528"/>
      <point x="225" y="541"/>
      <point x="198" y="541" type="curve" smooth="yes"/>
      <point x="154" y="541"/>
      <point x="129" y="497"/>
      <point x="129" y="450" type="curve" smooth="yes"/>
      <point x="129" y="416"/>
      <point x="146" y="403"/>
    </contour>
  </outline>
</glyph>
<glyph name="B" format="2">
  <advance width="639"/>
  <unicode hex="0042"/>
  <anchor x="272" y="0" name="bottom"/>
  <anchor x="424" y="714" name="top"/>
  <anchor x="731" y="714" name="topright"/>
  <outline>
    <contour>
      <point x="-19" y="0" type="line"/>
      <point x="295" y="0" type="line" smooth="yes"/>
      <point x="484" y="0"/>
      <point x="583" y="82"/>
      <point x="583" y="222" type="curve" smooth="yes"/>
      <point x="583" y="318"/>
      <point x="518" y="368"/>
      <point x="391" y="374" type="curve"/>
      <point x="391" y="375" type="line"/>
      <point x="523" y="384"/>
      <point x="625" y="441"/>
      <point x="625" y="564" type="curve" smooth="yes"/>
      <point x="625" y="662"/>
      <point x="545" y="714"/>
      <point x="391" y="714" type="curve" smooth="yes"/>
      <point x="132" y="714" type="line"/>
      <point x="130" y="704" type="line"/>
      <point x="143" y="704" type="line" smooth="yes"/>
      <point x="182" y="704"/>
      <point x="215" y="699"/>
      <point x="215" y="664" type="curve" smooth="yes"/>
      <point x="215" y="658"/>
      <point x="213" y="644"/>
      <point x="211" y="636" type="curve" smooth="yes"/>
      <point x="94" y="82" type="line" smooth="yes"/>
      <point x="81" y="19"/>
      <point x="41" y="10"/>
      <point x="-4" y="10" type="curve" smooth="yes"/>
      <point x="-17" y="10" type="line"/>
    </contour>
    <contour>
      <point x="256" y="10" type="curve" smooth="yes"/>
      <point x="179" y="10" type="line"/>
      <point x="255" y="369" type="line"/>
      <point x="329" y="369" type="line" smooth="yes"/>
      <point x="431" y="369"/>
      <point x="475" y="318"/>
      <point x="475" y="230" type="curve" smooth="yes"/>
      <point x="475" y="103"/>
      <point x="420" y="10"/>
    </contour>
    <contour>
      <point x="334" y="379" type="curve" smooth="yes"/>
      <point x="257" y="379" type="line"/>
      <point x="326" y="704" type="line"/>
      <point x="386" y="704" type="line" smooth="yes"/>
      <point x="472" y="704"/>
      <point x="516" y="657"/>
      <point x="516" y="570" type="curve" smooth="yes"/>
      <point x="516" y="465"/>
      <point x="470" y="379"/>
    </contour>
  </outline>
</glyph>
<glyph name="C" format="2">
  <advance width="636"/>
  <unicode hex="0043"/>
  <anchor x="316" y="0" name="bottom"/>
  <anchor x="470" y="714" name="top"/>
  <anchor x="711" y="714" name="topright"/>
  <outline>
    <contour>
      <point x="337" y="-10" type="curve" smooth="yes"/>
      <point x="484" y="-10"/>
      <point x="546" y="60"/>
      <point x="546" y="113" type="curve" smooth="yes"/>
      <point x="546" y="128"/>
      <point x="538" y="140"/>
      <point x="526" y="146" type="curve"/>
      <point x="493" y="57"/>
      <point x="448" y="0"/>
      <point x="348" y="0" type="curve" smooth="yes"/>
      <point x="230" y="0"/>
      <point x="170" y="88"/>
      <point x="170" y="242" type="curve" smooth="yes"/>
      <point x="170" y="446"/>
      <point x="284" y="714"/>
      <point x="468" y="714" type="curve" smooth="yes"/>
      <point x="572" y="714"/>
      <point x="567" y="607"/>
      <point x="566" y="535" type="curve"/>
      <point x="620" y="535"/>
      <point x="658" y="565"/>
      <point x="658" y="613" type="curve" smooth="yes"/>
      <point x="658" y="680"/>
      <point x="591" y="724"/>
      <point x="473" y="724" type="curve" smooth="yes"/>
      <point x="224" y="724"/>
      <point x="61" y="496"/>
      <point x="61" y="258" type="curve" smooth="yes"/>
      <point x="61" y="87"/>
      <point x="163" y="-10"/>
    </contour>
  </outline>
</glyph>
<glyph name="D" format="2">
  <advance width="723"/>
  <unicode hex="0044"/>
  <anchor x="308" y="0" name="bottom"/>
  <anchor x="403" y="357" name="center"/>
  <anchor x="460" y="714" name="top"/>
  <anchor x="802" y="714" name="topright"/>
  <outline>
    <contour>
      <point x="-19" y="0" type="line"/>
      <point x="296" y="0" type="line" smooth="yes"/>
      <point x="555" y="0"/>
      <point x="696" y="204"/>
      <point x="696" y="442" type="curve" smooth="yes"/>
      <point x="696" y="619"/>
      <point x="592" y="714"/>
      <point x="412" y="714" type="curve" smooth="yes"/>
      <point x="132" y="714" type="line"/>
      <point x="130" y="704" type="line"/>
      <point x="143" y="704" type="line" smooth="yes"/>
      <point x="179" y="704"/>
      <point x="215" y="700"/>
      <point x="215" y="664" type="curve" smooth="yes"/>
      <point x="215" y="656"/>
      <point x="213" y="645"/>
      <point x="211" y="636" type="curve" smooth="yes"/>
      <point x="94" y="82" type="line" smooth="yes"/>
      <point x="81" y="19"/>
      <point x="41" y="10"/>
      <point x="-4" y="10" type="curve" smooth="yes"/>
      <point x="-17" y="10" type="line"/>
    </contour>
    <contour>
      <point x="265" y="11" type="curve" smooth="yes"/>
      <point x="178" y="11" type="line"/>
      <point x="326" y="704" type="line"/>
      <point x="405" y="704" type="line" smooth="yes"/>
      <point x="525" y="704"/>
      <point x="587" y="626"/>
      <point x="587" y="453" type="curve" smooth="yes"/>
      <point x="587" y="194"/>
      <point x="466" y="11"/>
    </contour>
  </outline>
</glyph>
<glyph name="E" format="2">
  <advance width="621"/>
  <unicode hex="0045"/>
  <anchor x="257" y="0" name="bottom"/>
  <anchor x="419" y="714" name="top"/>
  <anchor x="700" y="714" name="topright"/>
  <outline>
    <contour>
      <point x="-19" y="0" type="line"/>
      <point x="517" y="0" type="line"/>
      <point x="561" y="175" type="line"/>
      <point x="551" y="175" type="line"/>
      <point x="537" y="132" type="line" smooth="yes"/>
      <point x="514" y="63"/>
      <point x="483" y="10"/>
      <point x="395" y="10" type="curve" smooth="yes"/>
      <point x="179" y="10" type="line"/>
      <point x="255" y="369" type="line"/>
      <point x="496" y="369" type="line"/>
      <point x="498" y="379" type="line"/>
      <point x="257" y="379" type="line"/>
      <point x="326" y="704" type="line"/>
      <point x="516" y="704" type="line" smooth="yes"/>
      <point x="594" y="704"/>
      <point x="600" y="656"/>
      <point x="600" y="601" type="curve" smooth="yes"/>
      <point x="600" y="583"/>
      <point x="595" y="548"/>
      <point x="594" y="539" type="curve"/>
      <point x="604" y="539" type="line"/>
      <point x="636" y="714" type="line"/>
      <point x="132" y="714" type="line"/>
      <point x="130" y="704" type="line"/>
      <point x="143" y="704" type="line" smooth="yes"/>
      <point x="182" y="704"/>
      <point x="213" y="698"/>
      <point x="213" y="656" type="curve" smooth="yes"/>
      <point x="213" y="649"/>
      <point x="212" y="641"/>
      <point x="210" y="632" type="curve" smooth="yes"/>
      <point x="92" y="77" type="line" smooth="yes"/>
      <point x="79" y="17"/>
      <point x="40" y="10"/>
      <point x="-4" y="10" type="curve" smooth="yes"/>
      <point x="-17" y="10" type="line"/>
    </contour>
  </outline>
</glyph>
<glyph name="F" format="2">
  <advance width="586"/>
  <unicode hex="0046"/>
  <anchor x="130" y="0" name="bottom"/>
  <anchor x="392" y="714" name="top"/>
  <anchor x="667" y="714" name="topright"/>
  <outline>
    <contour>
      <point x="-19" y="0" type="line"/>
      <point x="272" y="0" type="line"/>
      <point x="274" y="10" type="line"/>
      <point x="241" y="10" type="line" smooth="yes"/>
      <point x="214" y="10"/>
      <point x="192" y="16"/>
      <point x="192" y="57" type="curve" smooth="yes"/>
      <point x="192" y="64"/>
      <point x="193" y="73"/>
      <point x="195" y="82" type="curve" smooth="yes"/>
      <point x="250" y="346" type="line"/>
      <point x="491" y="346" type="line"/>
      <point x="493" y="356" type="line"/>
      <point x="252" y="356" type="line"/>
      <point x="327" y="704" type="line"/>
      <point x="497" y="704" type="line" smooth="yes"/>
      <point x="589" y="704"/>
      <point x="600" y="657"/>
      <point x="600" y="602" type="curve" smooth="yes"/>
      <point x="600" y="588"/>
      <point x="597" y="561"/>
      <point x="594" y="539" type="curve"/>
      <point x="604" y="539" type="line"/>
      <point x="636" y="714" type="line"/>
      <point x="132" y="714" type="line"/>
      <point x="130" y="704" type="line"/>
      <point x="143" y="704" type="line" smooth="yes"/>
      <point x="185" y="704"/>
      <point x="215" y="698"/>
      <point x="215" y="664" type="curve" smooth="yes"/>
      <point x="215" y="658"/>
      <point x="213" y="644"/>
      <point x="211" y="636" type="curve" smooth="yes"/>
      <point x="93" y="77" type="line" smooth="yes"/>
      <point x="78" y="18"/>
      <point x="40" y="10"/>
      <point x="-4" y="10" type="curve" smooth="yes"/>
      <point x="-17" y="10" type="line"/>
    </contour>
  </outline>
</glyph>
<glyph name="G" format="2">
  <advance width="714"/>
  <unicode hex="0047"/>
  <anchor x="319" y="0" name="bottom"/>
  <anchor x="479" y="714" name="top"/>
  <anchor x="798" y="714" name="topright"/>
  <outline>
    <contour>
      <point x="345" y="-10" type="curve" smooth="yes"/>
      <point x="431" y="-10"/>
      <point x="498" y="5"/>
      <point x="571" y="36" type="curve"/>
      <point x="616" y="248" type="line" smooth="yes"/>
      <point x="629" y="311"/>
      <point x="664" y="320"/>
      <point x="701" y="320" type="curve" smooth="yes"/>
      <point x="705" y="320" type="line"/>
      <point x="707" y="330" type="line"/>
      <point x="441" y="330" type="line"/>
      <point x="439" y="320" type="line"/>
      <point x="448" y="320" type="line" smooth="yes"/>
      <point x="487" y="320"/>
      <point x="520" y="315"/>
      <point x="520" y="280" type="curve" smooth="yes"/>
      <point x="520" y="274"/>
      <point x="518" y="260"/>
      <point x="516" y="252" type="curve" smooth="yes"/>
      <point x="466" y="14" type="line"/>
      <point x="436" y="6"/>
      <point x="391" y="0"/>
      <point x="347" y="0" type="curve" smooth="yes"/>
      <point x="205" y="0"/>
      <point x="170" y="99"/>
      <point x="170" y="242" type="curve" smooth="yes"/>
      <point x="170" y="491"/>
      <point x="304" y="714"/>
      <point x="480" y="714" type="curve" smooth="yes"/>
      <point x="592" y="714"/>
      <point x="606" y="640"/>
      <point x="606" y="537" type="curve"/>
      <point x="659" y="537"/>
      <point x="702" y="564"/>
      <point x="702" y="616" type="curve" smooth="yes"/>
      <point x="702" y="675"/>
      <point x="633" y="724"/>
      <point x="491" y="724" type="curve" smooth="yes"/>
      <point x="235" y="724"/>
      <point x="61" y="516"/>
      <point x="61" y="258" type="curve" smooth="yes"/>
      <point x="61" y="93"/>
      <point x="157" y="-10"/>
    </contour>
  </outline>
</glyph>
<glyph name="H" format="2">
  <advance width="775"/>
  <unicode hex="0048"/>
  <anchor x="347" y="0" name="bottom"/>
  <anchor x="442" y="357" name="center"/>
  <anchor x="499" y="714" name="top"/>
  <anchor x="875" y="714" name="topright"/>
  <outline>
    <contour>
      <point x="-19" y="0" type="line"/>
      <point x="272" y="0" type="line"/>
      <point x="275" y="10" type="line"/>
      <point x="262" y="10" type="line" smooth="yes"/>
      <point x="220" y="10"/>
      <point x="190" y="16"/>
      <point x="190" y="50" type="curve" smooth="yes"/>
      <point x="190" y="56"/>
      <point x="192" y="70"/>
      <point x="194" y="78" type="curve" smooth="yes"/>
      <point x="254" y="368" type="line"/>
      <point x="579" y="368" type="line"/>
      <point x="520" y="82" type="line" smooth="yes"/>
      <point x="507" y="19"/>
      <point x="467" y="10"/>
      <point x="422" y="10" type="curve" smooth="yes"/>
      <point x="409" y="10" type="line"/>
      <point x="407" y="0" type="line"/>
      <point x="698" y="0" type="line"/>
      <point x="700" y="10" type="line"/>
      <point x="688" y="10" type="line" smooth="yes"/>
      <point x="646" y="10"/>
      <point x="616" y="16"/>
      <point x="616" y="50" type="curve" smooth="yes"/>
      <point x="616" y="56"/>
      <point x="618" y="70"/>
      <point x="620" y="78" type="curve" smooth="yes"/>
      <point x="737" y="632" type="line" smooth="yes"/>
      <point x="750" y="695"/>
      <point x="789" y="704"/>
      <point x="834" y="704" type="curve" smooth="yes"/>
      <point x="847" y="704" type="line"/>
      <point x="849" y="714" type="line"/>
      <point x="558" y="714" type="line"/>
      <point x="556" y="704" type="line"/>
      <point x="569" y="704" type="line" smooth="yes"/>
      <point x="611" y="704"/>
      <point x="641" y="698"/>
      <point x="641" y="664" type="curve" smooth="yes"/>
      <point x="641" y="658"/>
      <point x="639" y="644"/>
      <point x="637" y="636" type="curve" smooth="yes"/>
      <point x="582" y="378" type="line"/>
      <point x="257" y="378" type="line"/>
      <point x="311" y="632" type="line" smooth="yes"/>
      <point x="324" y="695"/>
      <point x="363" y="704"/>
      <point x="408" y="704" type="curve" smooth="yes"/>
      <point x="421" y="704" type="line"/>
      <point x="423" y="714" type="line"/>
      <point x="132" y="714" type="line"/>
      <point x="130" y="704" type="line"/>
      <point x="143" y="704" type="line" smooth="yes"/>
      <point x="185" y="704"/>
      <point x="215" y="698"/>
      <point x="215" y="664" type="curve" smooth="yes"/>
      <point x="215" y="658"/>
      <point x="213" y="644"/>
      <point x="211" y="636" type="curve" smooth="yes"/>
      <point x="94" y="82" type="line" smooth="yes"/>
      <point x="81" y="19"/>
      <point x="41" y="10"/>
      <point x="-4" y="10" type="curve" smooth="yes"/>
      <point x="-17" y="10" type="line"/>
    </contour>
  </outline>
</glyph>
<glyph name="I" format="2">
  <advance width="349"/>
  <unicode hex="0049"/>
  <anchor x="129" y="0" name="bottom"/>
  <anchor x="271" y="714" name="top"/>
  <anchor x="444" y="714" name="topright"/>
  <outline>
    <contour>
      <point x="-19" y="0" type="line"/>
      <point x="272" y="0" type="line"/>
      <point x="274" y="10" type="line"/>
      <point x="261" y="10" type="line" smooth="yes"/>
      <point x="219" y="10"/>
      <point x="189" y="16"/>
      <point x="189" y="50" type="curve" smooth="yes"/>
      <point x="189" y="56"/>
      <point x="191" y="70"/>
      <point x="193" y="78" type="curve" smooth="yes"/>
      <point x="311" y="632" type="line" smooth="yes"/>
      <point x="324" y="695"/>
      <point x="363" y="704"/>
      <point x="408" y="704" type="curve" smooth="yes"/>
      <point x="421" y="704" type="line"/>
      <point x="423" y="714" type="line"/>
      <point x="132" y="714" type="line"/>
      <point x="130" y="704" type="line"/>
      <point x="143" y="704" type="line" smooth="yes"/>
      <point x="185" y="704"/>
      <point x="215" y="698"/>
      <point x="215" y="664" type="curve" smooth="yes"/>
      <point x="215" y="658"/>
      <point x="213" y="644"/>
      <point x="211" y="636" type="curve" smooth="yes"/>
      <point x="93" y="82" type="line" smooth="yes"/>
      <point x="80" y="19"/>
      <point x="40" y="10"/>
      <point x="-5" y="10" type="curve" smooth="yes"/>
      <point x="-18" y="10" type="line"/>
    </contour>
  </outline>
</glyph>
<glyph name="J" format="2">
  <advance width="357"/>
  <unicode hex="004A"/>
  <anchor x="-73" y="-240" name="bottom"/>
  <anchor x="274" y="714" name="top"/>
  <anchor x="432" y="714" name="topright"/>
  <outline>
    <contour>
      <point x="-73" y="-240" type="curve" smooth="yes"/>
      <point x="63" y="-240"/>
      <point x="133" y="-166"/>
      <point x="167" y="-8" type="curve" smooth="yes"/>
      <point x="304" y="632" type="line" smooth="yes"/>
      <point x="318" y="695"/>
      <point x="356" y="704"/>
      <point x="401" y="704" type="curve" smooth="yes"/>
      <point x="414" y="704" type="line"/>
      <point x="416" y="714" type="line"/>
      <point x="125" y="714" type="line"/>
      <point x="123" y="704" type="line"/>
      <point x="136" y="704" type="line" smooth="yes"/>
      <point x="178" y="704"/>
      <point x="208" y="698"/>
      <point x="208" y="664" type="curve" smooth="yes"/>
      <point x="208" y="658"/>
      <point x="206" y="644"/>
      <point x="204" y="636" type="curve" smooth="yes"/>
      <point x="67" y="-9" type="line" smooth="yes"/>
      <point x="35" y="-178"/>
      <point x="-13" y="-228"/>
      <point x="-87" y="-228" type="curve" smooth="yes"/>
      <point x="-107" y="-228"/>
      <point x="-135" y="-225"/>
      <point x="-152" y="-219" type="curve"/>
      <point x="-155" y="-229" type="line"/>
      <point x="-131" y="-236"/>
      <point x="-109" y="-240"/>
    </contour>
  </outline>
</glyph>
<glyph name="K" format="2">
  <advance width="702"/>
  <unicode hex="004B"/>
  <anchor x="295" y="0" name="bottom"/>
  <anchor x="447" y="714" name="top"/>
  <anchor x="777" y="714" name="topright"/>
  <outline>
    <contour>
      <point x="-19" y="0" type="line"/>
      <point x="272" y="0" type="line"/>
      <point x="274" y="10" type="line"/>
      <point x="262" y="10" type="line" smooth="yes"/>
      <point x="220" y="10"/>
      <point x="190" y="16"/>
      <point x="190" y="50" type="curve" smooth="yes"/>
      <point x="190" y="56"/>
      <point x="192" y="70"/>
      <point x="194" y="78" type="curve" smooth="yes"/>
      <point x="234" y="279" type="line"/>
      <point x="362" y="389" type="line"/>
      <point x="325" y="365" type="line"/>
      <point x="433" y="93" type="line" smooth="yes"/>
      <point x="461" y="23"/>
      <point x="493" y="0"/>
      <point x="613" y="0" type="curve" smooth="yes"/>
      <point x="627" y="0" type="line"/>
      <point x="629" y="10" type="line"/>
      <point x="626" y="10" type="line" smooth="yes"/>
      <point x="584" y="10"/>
      <point x="568" y="50"/>
      <point x="538" y="122" type="curve" smooth="yes"/>
      <point x="405" y="444" type="line"/>
      <point x="374" y="403" type="line"/>
      <point x="605" y="619" type="line" smooth="yes"/>
      <point x="659" y="670"/>
      <point x="713" y="704"/>
      <point x="756" y="704" type="curve"/>
      <point x="758" y="714" type="line"/>
      <point x="537" y="714" type="line"/>
      <point x="535" y="704" type="line"/>
      <point x="591" y="704"/>
      <point x="614" y="695"/>
      <point x="614" y="670" type="curve" smooth="yes"/>
      <point x="614" y="643"/>
      <point x="597" y="625"/>
      <point x="554" y="585" type="curve" smooth="yes"/>
      <point x="237" y="294" type="line"/>
      <point x="311" y="632" type="line" smooth="yes"/>
      <point x="325" y="695"/>
      <point x="363" y="704"/>
      <point x="408" y="704" type="curve" smooth="yes"/>
      <point x="421" y="704" type="line"/>
      <point x="423" y="714" type="line"/>
      <point x="132" y="714" type="line"/>
      <point x="130" y="704" type="line"/>
      <point x="143" y="704" type="line" smooth="yes"/>
      <point x="185" y="704"/>
      <point x="215" y="698"/>
      <point x="215" y="664" type="curve" smooth="yes"/>
      <point x="215" y="658"/>
      <point x="213" y="644"/>
      <point x="211" y="636" type="curve" smooth="yes"/>
      <point x="94" y="82" type="line" smooth="yes"/>
      <point x="81" y="19"/>
      <point x="41" y="10"/>
      <point x="-4" y="10" type="curve" smooth="yes"/>
      <point x="-17" y="10" type="line"/>
    </contour>
  </outline>
</glyph>
<glyph name="L" format="2">
  <advance width="620"/>
  <unicode hex="004C"/>
  <anchor x="257" y="0" name="bottom"/>
  <anchor x="352" y="357" name="center"/>
  <anchor x="278" y="714" name="top"/>
  <anchor x="589" y="714" name="topright"/>
  <outline>
    <contour>
      <point x="-18" y="0" type="line"/>
      <point x="517" y="0" type="line"/>
      <point x="569" y="215" type="line"/>
      <point x="559" y="215" type="line"/>
      <point x="537" y="140" type="line" smooth="yes"/>
      <point x="517" y="71"/>
      <point x="475" y="10"/>
      <point x="397" y="10" type="curve" smooth="yes"/>
      <point x="178" y="10" type="line"/>
      <point x="312" y="636" type="line" smooth="yes"/>
      <point x="325" y="696"/>
      <point x="364" y="704"/>
      <point x="408" y="704" type="curve" smooth="yes"/>
      <point x="421" y="704" type="line"/>
      <point x="423" y="714" type="line"/>
      <point x="132" y="714" type="line"/>
      <point x="130" y="704" type="line"/>
      <point x="143" y="704" type="line" smooth="yes"/>
      <point x="185" y="704"/>
      <point x="215" y="698"/>
      <point x="215" y="664" type="curve" smooth="yes"/>
      <point x="215" y="658"/>
      <point x="213" y="644"/>
      <point x="211" y="636" type="curve" smooth="yes"/>
      <point x="93" y="82" type="line" smooth="yes"/>
      <point x="80" y="19"/>
      <point x="41" y="10"/>
      <point x="-3" y="10" type="curve" smooth="yes"/>
      <point x="-16" y="10" type="line"/>
    </contour>
  </outline>
</glyph>
<glyph name="M" format="2">
  <advance width="920"/>
  <unicode hex="004D"/>
  <anchor x="414" y="0" name="bottom"/>
  <anchor x="566" y="714" name="top"/>
  <anchor x="1015" y="714" name="topright"/>
  <outline>
    <contour>
      <point x="-18" y="0" type="line"/>
      <point x="232" y="0" type="line"/>
      <point x="234" y="10" type="line"/>
      <point x="221" y="10" type="line" smooth="yes"/>
      <point x="165" y="10"/>
      <point x="125" y="16"/>
      <point x="125" y="50" type="curve" smooth="yes"/>
      <point x="125" y="56"/>
      <point x="127" y="70"/>
      <point x="129" y="78" type="curve" smooth="yes"/>
      <point x="252" y="659" type="line"/>
      <point x="384" y="0" type="line"/>
      <point x="413" y="0" type="line"/>
      <point x="789" y="643" type="line"/>
      <point x="667" y="73" type="line" smooth="yes"/>
      <point x="655" y="17"/>
      <point x="625" y="10"/>
      <point x="582" y="10" type="curve" smooth="yes"/>
      <point x="579" y="10" type="line"/>
      <point x="577" y="0" type="line"/>
      <point x="843" y="0" type="line"/>
      <point x="845" y="10" type="line"/>
      <point x="832" y="10" type="line" smooth="yes"/>
      <point x="790" y="10"/>
      <point x="760" y="16"/>
      <point x="760" y="50" type="curve" smooth="yes"/>
      <point x="760" y="56"/>
      <point x="762" y="70"/>
      <point x="764" y="78" type="curve" smooth="yes"/>
      <point x="882" y="632" type="line" smooth="yes"/>
      <point x="895" y="695"/>
      <point x="934" y="704"/>
      <point x="979" y="704" type="curve" smooth="yes"/>
      <point x="992" y="704" type="line"/>
      <point x="994" y="714" type="line"/>
      <point x="819" y="714" type="line"/>
      <point x="461" y="102" type="line"/>
      <point x="336" y="714" type="line"/>
      <point x="132" y="714" type="line"/>
      <point x="130" y="704" type="line"/>
      <point x="143" y="704" type="line" smooth="yes"/>
      <point x="200" y="704"/>
      <point x="241" y="698"/>
      <point x="241" y="664" type="curve" smooth="yes"/>
      <point x="241" y="658"/>
      <point x="239" y="644"/>
      <point x="237" y="636" type="curve" smooth="yes"/>
      <point x="118" y="77" type="line" smooth="yes"/>
      <point x="102" y="17"/>
      <point x="52" y="10"/>
      <point x="-3" y="10" type="curve" smooth="yes"/>
      <point x="-16" y="10" type="line"/>
    </contour>
  </outline>
</glyph>
<glyph name="N" format="2">
  <advance width="744"/>
  <unicode hex="004E"/>
  <anchor x="327" y="0" name="bottom"/>
  <anchor x="479" y="714" name="top"/>
  <anchor x="840" y="714" name="topright"/>
  <outline>
    <contour>
      <point x="-18" y="0" type="line"/>
      <point x="232" y="0" type="line"/>
      <point x="234" y="10" type="line"/>
      <point x="221" y="10" type="line" smooth="yes"/>
      <point x="161" y="10"/>
      <point x="118" y="16"/>
      <point x="118" y="50" type="curve" smooth="yes"/>
      <point x="118" y="56"/>
      <point x="120" y="70"/>
      <point x="122" y="78" type="curve" smooth="yes"/>
      <point x="245" y="652" type="line"/>
      <point x="533" y="0" type="line"/>
      <point x="563" y="0" type="line"/>
      <point x="697" y="632" type="line" smooth="yes"/>
      <point x="711" y="698"/>
      <point x="760" y="704"/>
      <point x="814" y="704" type="curve" smooth="yes"/>
      <point x="827" y="704" type="line"/>
      <point x="829" y="714" type="line"/>
      <point x="578" y="714" type="line"/>
      <point x="576" y="704" type="line"/>
      <point x="589" y="704" type="line" smooth="yes"/>
      <point x="649" y="704"/>
      <point x="692" y="698"/>
      <point x="692" y="664" type="curve" smooth="yes"/>
      <point x="692" y="658"/>
      <point x="690" y="645"/>
      <point x="688" y="636" type="curve" smooth="yes"/>
      <point x="582" y="138" type="line"/>
      <point x="327" y="714" type="line"/>
      <point x="132" y="714" type="line"/>
      <point x="130" y="704" type="line"/>
      <point x="143" y="704" type="line" smooth="yes"/>
      <point x="197" y="704"/>
      <point x="235" y="698"/>
      <point x="235" y="664" type="curve" smooth="yes"/>
      <point x="235" y="658"/>
      <point x="233" y="644"/>
      <point x="231" y="636" type="curve"/>
      <point x="113" y="82" type="line" smooth="yes"/>
      <point x="99" y="17"/>
      <point x="53" y="10"/>
      <point x="-3" y="10" type="curve" smooth="yes"/>
      <point x="-16" y="10" type="line"/>
    </contour>
  </outline>
</glyph>
<glyph name="P" format="2">
  <advance width="619"/>
  <unicode hex="0050"/>
  <anchor x="130" y="0" name="bottom"/>
  <anchor x="407" y="714" name="top"/>
  <anchor x="697" y="714" name="topright"/>
  <outline>
    <contour>
      <point x="-18" y="0" type="line"/>
      <point x="272" y="0" type="line"/>
      <point x="274" y="10" type="line"/>
      <point x="241" y="10" type="line" smooth="yes"/>
      <point x="211" y="10"/>
      <point x="189" y="16"/>
      <point x="189" y="50" type="curve" smooth="yes"/>
      <point x="189" y="56"/>
      <point x="191" y="70"/>
      <point x="193" y="78" type="curve" smooth="yes"/>
      <point x="236" y="278" type="line"/>
      <point x="310" y="278" type="line" smooth="yes"/>
      <point x="567" y="278"/>
      <point x="616" y="420"/>
      <point x="616" y="521" type="curve" smooth="yes"/>
      <point x="616" y="648"/>
      <point x="528" y="714"/>
      <point x="388" y="714" type="curve" smooth="yes"/>
      <point x="132" y="714" type="line"/>
      <point x="130" y="704" type="line"/>
      <point x="143" y="704" type="line" smooth="yes"/>
      <point x="185" y="704"/>
      <point x="215" y="698"/>
      <point x="215" y="664" type="curve" smooth="yes"/>
      <point x="215" y="658"/>
      <point x="213" y="644"/>
      <point x="211" y="636" type="curve" smooth="yes"/>
      <point x="93" y="82" type="line" smooth="yes"/>
      <point x="80" y="19"/>
      <point x="41" y="10"/>
      <point x="-3" y="10" type="curve" smooth="yes"/>
      <point x="-16" y="10" type="line"/>
    </contour>
    <contour>
      <point x="238" y="288" type="line"/>
      <point x="326" y="704" type="line"/>
      <point x="372" y="704" type="line" smooth="yes"/>
      <point x="470" y="704"/>
      <point x="510" y="653"/>
      <point x="510" y="538" type="curve" smooth="yes"/>
      <point x="510" y="390"/>
      <point x="453" y="288"/>
      <point x="291" y="288" type="curve" smooth="yes"/>
    </contour>
  </outline>
</glyph>
<glyph name="R" format="2">
  <advance width="659"/>
  <unicode hex="0052"/>
  <anchor x="277" y="0" name="bottom"/>
  <anchor x="419" y="714" name="top"/>
  <anchor x="741" y="714" name="topright"/>
  <outline>
    <contour>
      <point x="-18" y="0" type="line"/>
      <point x="292" y="0" type="line"/>
      <point x="294" y="10" type="line"/>
      <point x="261" y="10" type="line" smooth="yes"/>
      <point x="219" y="10"/>
      <point x="189" y="16"/>
      <point x="189" y="50" type="curve" smooth="yes"/>
      <point x="189" y="56"/>
      <point x="191" y="70"/>
      <point x="193" y="78" type="curve" smooth="yes"/>
      <point x="248" y="333" type="line"/>
      <point x="338" y="333" type="line"/>
      <point x="396" y="117" type="line" smooth="yes"/>
      <point x="421" y="23"/>
      <point x="461" y="0"/>
      <point x="579" y="0" type="curve" smooth="yes"/>
      <point x="592" y="0" type="line"/>
      <point x="594" y="10" type="line"/>
      <point x="586" y="10" type="line" smooth="yes"/>
      <point x="542" y="10"/>
      <point x="528" y="48"/>
      <point x="505" y="121" type="curve" smooth="yes"/>
      <point x="435" y="344" type="line"/>
      <point x="517" y="367"/>
      <point x="623" y="414"/>
      <point x="623" y="544" type="curve" smooth="yes"/>
      <point x="623" y="658"/>
      <point x="548" y="714"/>
      <point x="394" y="714" type="curve" smooth="yes"/>
      <point x="132" y="714" type="line"/>
      <point x="130" y="704" type="line"/>
      <point x="143" y="704" type="line" smooth="yes"/>
      <point x="185" y="704"/>
      <point x="215" y="698"/>
      <point x="215" y="664" type="curve" smooth="yes"/>
      <point x="215" y="658"/>
      <point x="212" y="644"/>
      <point x="211" y="636" type="curve"/>
      <point x="92" y="77" type="line" smooth="yes"/>
      <point x="79" y="17"/>
      <point x="40" y="10"/>
      <point x="-3" y="10" type="curve" smooth="yes"/>
      <point x="-16" y="10" type="line"/>
    </contour>
    <contour>
      <point x="250" y="343" type="line"/>
      <point x="326" y="704" type="line"/>
      <point x="394" y="704" type="line" smooth="yes"/>
      <point x="477" y="704"/>
      <point x="517" y="661"/>
      <point x="517" y="544" type="curve" smooth="yes"/>
      <point x="517" y="398"/>
      <point x="443" y="343"/>
      <point x="327" y="343" type="curve" smooth="yes"/>
    </contour>
  </outline>
</glyph>
<glyph name="T" format="2">
  <advance width="613"/>
  <unicode hex="0054"/>
  <anchor x="252" y="0" name="bottom"/>
  <anchor x="327" y="357" name="center"/>
  <anchor x="404" y="714" name="top"/>
  <anchor x="690" y="714" name="topright"/>
  <outline>
    <contour>
      <point x="98" y="0" type="line"/>
      <point x="399" y="0" type="line"/>
      <point x="401" y="10" type="line"/>
      <point x="388" y="10" type="line" smooth="yes"/>
      <point x="338" y="10"/>
      <point x="314" y="27"/>
      <point x="314" y="61" type="curve" smooth="yes"/>
      <point x="314" y="67"/>
      <point x="315" y="74"/>
      <point x="317" y="82" type="curve" smooth="yes"/>
      <point x="449" y="704" type="line"/>
      <point x="533" y="704" type="line" smooth="yes"/>
      <point x="617" y="704"/>
      <point x="650" y="682"/>
      <point x="650" y="617" type="curve" smooth="yes"/>
      <point x="650" y="601"/>
      <point x="648" y="581"/>
      <point x="641" y="539" type="curve"/>
      <point x="651" y="539" type="line"/>
      <point x="682" y="714" type="line"/>
      <point x="121" y="714" type="line"/>
      <point x="78" y="539" type="line"/>
      <point x="88" y="539" type="line"/>
      <point x="97" y="572" type="line" smooth="yes"/>
      <point x="124" y="672"/>
      <point x="165" y="704"/>
      <point x="266" y="704" type="curve" smooth="yes"/>
      <point x="348" y="704" type="line"/>
      <point x="216" y="82" type="line" smooth="yes"/>
      <point x="205" y="34"/>
      <point x="170" y="10"/>
      <point x="113" y="10" type="curve" smooth="yes"/>
      <point x="100" y="10" type="line"/>
    </contour>
  </outline>
</glyph>
<glyph name="U" format="2">
  <advance width="713"/>
  <unicode hex="0055"/>
  <anchor x="314" y="0" name="bottom"/>
  <anchor x="466" y="714" name="top"/>
  <anchor x="841" y="714" name="topright"/>
  <outline>
    <contour>
      <point x="329" y="-10" type="curve" smooth="yes"/>
      <point x="488" y="-10"/>
      <point x="571" y="71"/>
      <point x="599" y="204" type="curve" smooth="yes"/>
      <point x="690" y="632" type="line" smooth="yes"/>
      <point x="703" y="695"/>
      <point x="744" y="704"/>
      <point x="788" y="704" type="curve" smooth="yes"/>
      <point x="801" y="704" type="line"/>
      <point x="802" y="714" type="line"/>
      <point x="602" y="714" type="line"/>
      <point x="600" y="704" type="line"/>
      <point x="613" y="704" type="line" smooth="yes"/>
      <point x="655" y="704"/>
      <point x="685" y="698"/>
      <point x="685" y="664" type="curve" smooth="yes"/>
      <point x="685" y="658"/>
      <point x="683" y="644"/>
      <point x="681" y="636" type="curve"/>
      <point x="589" y="206" type="line" smooth="yes"/>
      <point x="565" y="90"/>
      <point x="497" y="0"/>
      <point x="332" y="0" type="curve" smooth="yes"/>
      <point x="247" y="0"/>
      <point x="200" y="53"/>
      <point x="200" y="147" type="curve" smooth="yes"/>
      <point x="200" y="182"/>
      <point x="205" y="213"/>
      <point x="212" y="247" type="curve" smooth="yes"/>
      <point x="294" y="632" type="line" smooth="yes"/>
      <point x="307" y="695"/>
      <point x="348" y="704"/>
      <point x="392" y="704" type="curve" smooth="yes"/>
      <point x="405" y="704" type="line"/>
      <point x="406" y="714" type="line"/>
      <point x="115" y="714" type="line"/>
      <point x="113" y="704" type="line"/>
      <point x="126" y="704" type="line" smooth="yes"/>
      <point x="168" y="704"/>
      <point x="198" y="698"/>
      <point x="198" y="664" type="curve" smooth="yes"/>
      <point x="198" y="658"/>
      <point x="196" y="644"/>
      <point x="194" y="636" type="curve"/>
      <point x="113" y="252" type="line" smooth="yes"/>
      <point x="108" y="229"/>
      <point x="102" y="184"/>
      <point x="102" y="163" type="curve" smooth="yes"/>
      <point x="102" y="53"/>
      <point x="183" y="-10"/>
    </contour>
  </outline>
</glyph>
<glyph name="Z" format="2">
  <advance width="605"/>
  <unicode hex="005A"/>
  <guideline x="546" y="704" angle="0"/>
  <guideline x="57" y="10" angle="0"/>
  <anchor x="243" y="0" name="bottom"/>
  <anchor x="350" y="714" name="top"/>
  <anchor x="677" y="714" name="topright"/>
  <outline>
    <contour>
      <point x="-20" y="0" type="line"/>
      <point x="508" y="0" type="line"/>
      <point x="550" y="175" type="line"/>
      <point x="540" y="175" type="line"/>
      <point x="529" y="140" type="line" smooth="yes"/>
      <point x="506" y="65"/>
      <point x="469" y="10"/>
      <point x="361" y="10" type="curve" smooth="yes"/>
      <point x="100" y="10" type="line"/>
      <point x="626" y="704" type="line"/>
      <point x="628" y="714" type="line"/>
      <point x="134" y="714" type="line"/>
      <point x="92" y="539" type="line"/>
      <point x="102" y="539" type="line"/>
      <point x="116" y="586" type="line" smooth="yes"/>
      <point x="139" y="657"/>
      <point x="178" y="704"/>
      <point x="268" y="704" type="curve" smooth="yes"/>
      <point x="507" y="704" type="line"/>
      <point x="-18" y="10" type="line"/>
    </contour>
  </outline>
</glyph>
<glyph name="bracketleft" format="2">
  <advance width="314"/>
  <unicode hex="005B"/>
  <outline>
    <contour>
      <point x="-24" y="-128" type="line"/>
      <point x="199" y="-128" type="line"/>
      <point x="201" y="-118" type="line"/>
      <point x="158" y="-118" type="line" smooth="yes"/>
      <point x="116" y="-118"/>
      <point x="86" y="-112"/>
      <point x="86" y="-78" type="curve" smooth="yes"/>
      <point x="86" y="-72"/>
      <point x="88" y="-58"/>
      <point x="90" y="-50" type="curve" smooth="yes"/>
      <point x="246" y="678" type="line" smooth="yes"/>
      <point x="260" y="741"/>
      <point x="298" y="750"/>
      <point x="343" y="750" type="curve" smooth="yes"/>
      <point x="386" y="750" type="line"/>
      <point x="388" y="760" type="line"/>
      <point x="165" y="760" type="line"/>
    </contour>
  </outline>
</glyph>
<glyph name="backslash" format="2">
  <advance width="240"/>
  <unicode hex="005C"/>
  <outline>
    <contour>
      <point x="147" y="-121" type="line"/>
      <point x="157" y="-121" type="line"/>
      <point x="114" y="760" type="line"/>
      <point x="105" y="760" type="line"/>
    </contour>
  </outline>
</glyph>
<glyph name="bracketright" format="2">
  <advance width="313"/>
  <unicode hex="005D"/>
  <outline>
    <contour>
      <point x="-53" y="-128" type="line"/>
      <point x="169" y="-128" type="line"/>
      <point x="358" y="760" type="line"/>
      <point x="135" y="760" type="line"/>
      <point x="133" y="750" type="line"/>
      <point x="176" y="750" type="line" smooth="yes"/>
      <point x="218" y="750"/>
      <point x="248" y="744"/>
      <point x="248" y="710" type="curve" smooth="yes"/>
      <point x="248" y="704"/>
      <point x="246" y="690"/>
      <point x="244" y="682" type="curve" smooth="yes"/>
      <point x="88" y="-46" type="line" smooth="yes"/>
      <point x="75" y="-109"/>
      <point x="36" y="-118"/>
      <point x="-8" y="-118" type="curve" smooth="yes"/>
      <point x="-51" y="-118" type="line"/>
    </contour>
  </outline>
</glyph>
<glyph name="b" format="2">
  <advance width="563"/>
  <unicode hex="0062"/>
  <anchor x="235" y="0" name="bottom"/>
  <anchor x="397" y="760" name="top"/>
  <anchor x="658" y="760" name="topright"/>
  <outline>
    <contour>
      <point x="232" y="-10" type="curve" smooth="yes"/>
      <point x="419" y="-10"/>
      <point x="530" y="203"/>
      <point x="530" y="365" type="curve" smooth="yes"/>
      <point x="530" y="483"/>
      <point x="482" y="546"/>
      <point x="403" y="546" type="curve" smooth="yes"/>
      <point x="321" y="546"/>
      <point x="267" y="492"/>
      <point x="218" y="403" type="curve"/>
      <point x="216" y="403" type="line"/>
      <point x="224" y="431"/>
      <point x="243" y="498"/>
      <point x="251" y="535" type="curve" smooth="yes"/>
      <point x="299" y="760" type="line"/>
      <point x="110" y="760" type="line"/>
      <point x="108" y="750" type="line"/>
      <point x="116" y="750" type="line" smooth="yes"/>
      <point x="154" y="750"/>
      <point x="186" y="743"/>
      <point x="186" y="703" type="curve" smooth="yes"/>
      <point x="186" y="692"/>
      <point x="183" y="677"/>
      <point x="177" y="650" type="curve" smooth="yes"/>
      <point x="38" y="-3" type="line"/>
      <point x="70" y="-3" type="line"/>
      <point x="123" y="31" type="line"/>
      <point x="154" y="2"/>
      <point x="186" y="-10"/>
    </contour>
    <contour>
      <point x="225" y="1" type="curve" smooth="yes"/>
      <point x="188" y="1"/>
      <point x="160" y="16"/>
      <point x="143" y="37" type="curve"/>
      <point x="210" y="346" type="line" smooth="yes"/>
      <point x="221" y="396"/>
      <point x="288" y="526"/>
      <point x="368" y="526" type="curve" smooth="yes"/>
      <point x="408" y="526"/>
      <point x="428" y="482"/>
      <point x="428" y="383" type="curve" smooth="yes"/>
      <point x="428" y="242"/>
      <point x="362" y="1"/>
    </contour>
  </outline>
</glyph>
<glyph name="c" format="2">
  <advance width="481"/>
  <unicode hex="0063"/>
  <anchor x="203" y="0" name="bottom"/>
  <anchor x="317" y="536" name="top"/>
  <anchor x="520" y="536" name="topright"/>
  <outline>
    <contour>
      <point x="234" y="-10" type="curve" smooth="yes"/>
      <point x="354" y="-10"/>
      <point x="407" y="56"/>
      <point x="407" y="100" type="curve" smooth="yes"/>
      <point x="407" y="111"/>
      <point x="400" y="121"/>
      <point x="389" y="125" type="curve"/>
      <point x="363" y="58"/>
      <point x="328" y="1"/>
      <point x="248" y="1" type="curve" smooth="yes"/>
      <point x="172" y="1"/>
      <point x="143" y="70"/>
      <point x="143" y="189" type="curve" smooth="yes"/>
      <point x="143" y="330"/>
      <point x="212" y="536"/>
      <point x="327" y="536" type="curve" smooth="yes"/>
      <point x="375" y="536"/>
      <point x="393" y="491"/>
      <point x="393" y="420" type="curve" smooth="yes"/>
      <point x="393" y="407"/>
      <point x="392" y="392"/>
      <point x="391" y="380" type="curve"/>
      <point x="448" y="380"/>
      <point x="483" y="412"/>
      <point x="483" y="450" type="curve" smooth="yes"/>
      <point x="483" y="499"/>
      <point x="437" y="546"/>
      <point x="337" y="546" type="curve" smooth="yes"/>
      <point x="127" y="546"/>
      <point x="39" y="345"/>
      <point x="39" y="197" type="curve" smooth="yes"/>
      <point x="39" y="58"/>
      <point x="114" y="-10"/>
    </contour>
  </outline>
</glyph>
<glyph name="e" format="2">
  <advance width="479"/>
  <unicode hex="0065"/>
  <anchor x="205" y="0" name="bottom"/>
  <anchor x="319" y="536" name="top"/>
  <anchor x="525" y="536" name="topright"/>
  <outline>
    <contour>
      <point x="233" y="-10" type="curve" smooth="yes"/>
      <point x="353" y="-10"/>
      <point x="406" y="56"/>
      <point x="406" y="95" type="curve" smooth="yes"/>
      <point x="406" y="111"/>
      <point x="398" y="121"/>
      <point x="385" y="125" type="curve"/>
      <point x="361" y="51"/>
      <point x="318" y="0"/>
      <point x="242" y="0" type="curve" smooth="yes"/>
      <point x="177" y="0"/>
      <point x="142" y="69"/>
      <point x="142" y="189" type="curve" smooth="yes"/>
      <point x="142" y="207"/>
      <point x="144" y="230"/>
      <point x="147" y="248" type="curve"/>
      <point x="182" y="248" type="line" smooth="yes"/>
      <point x="346" y="248"/>
      <point x="469" y="335"/>
      <point x="469" y="431" type="curve" smooth="yes"/>
      <point x="469" y="503"/>
      <point x="420" y="546"/>
      <point x="336" y="546" type="curve" smooth="yes"/>
      <point x="142" y="546"/>
      <point x="38" y="345"/>
      <point x="38" y="197" type="curve" smooth="yes"/>
      <point x="38" y="58"/>
      <point x="126" y="-10"/>
    </contour>
    <contour>
      <point x="149" y="258" type="line"/>
      <point x="172" y="387"/>
      <point x="232" y="535"/>
      <point x="312" y="535" type="curve" smooth="yes"/>
      <point x="346" y="535"/>
      <point x="366" y="501"/>
      <point x="366" y="438" type="curve" smooth="yes"/>
      <point x="366" y="328"/>
      <point x="294" y="258"/>
      <point x="176" y="258" type="curve" smooth="yes"/>
    </contour>
  </outline>
</glyph>
<glyph name="g" format="2">
  <advance width="556"/>
  <unicode hex="0067"/>
  <anchor x="157" y="-240" name="bottom"/>
  <anchor x="322" y="536" name="top"/>
  <anchor x="630" y="536" name="topright"/>
  <outline>
    <contour>
      <point x="170" y="-240" type="curve" smooth="yes"/>
      <point x="350" y="-240"/>
      <point x="441" y="-163"/>
      <point x="441" y="-43" type="curve" smooth="yes"/>
      <point x="441" y="37"/>
      <point x="385" y="78"/>
      <point x="286" y="88" type="curve" smooth="yes"/>
      <point x="196" y="97" type="line" smooth="yes"/>
      <point x="154" y="101"/>
      <point x="127" y="109"/>
      <point x="127" y="136" type="curve" smooth="yes"/>
      <point x="127" y="165"/>
      <point x="147" y="182"/>
      <point x="184" y="196" type="curve"/>
      <point x="202" y="191"/>
      <point x="222" y="189"/>
      <point x="242" y="189" type="curve" smooth="yes"/>
      <point x="400" y="189"/>
      <point x="471" y="323"/>
      <point x="471" y="413" type="curve" smooth="yes"/>
      <point x="471" y="451"/>
      <point x="458" y="483"/>
      <point x="435" y="508" type="curve"/>
      <point x="448" y="524"/>
      <point x="466" y="534"/>
      <point x="484" y="534" type="curve" smooth="yes"/>
      <point x="515" y="534"/>
      <point x="526" y="509"/>
      <point x="526" y="477" type="curve"/>
      <point x="571" y="477"/>
      <point x="585" y="510"/>
      <point x="585" y="539" type="curve" smooth="yes"/>
      <point x="585" y="566"/>
      <point x="568" y="585"/>
      <point x="535" y="585" type="curve" smooth="yes"/>
      <point x="490" y="585"/>
      <point x="453" y="553"/>
      <point x="427" y="514" type="curve"/>
      <point x="400" y="536"/>
      <point x="364" y="546"/>
      <point x="324" y="546" type="curve" smooth="yes"/>
      <point x="166" y="546"/>
      <point x="92" y="417"/>
      <point x="92" y="323" type="curve" smooth="yes"/>
      <point x="92" y="263"/>
      <point x="121" y="219"/>
      <point x="174" y="199" type="curve"/>
      <point x="100" y="186"/>
      <point x="67" y="143"/>
      <point x="67" y="103" type="curve" smooth="yes"/>
      <point x="67" y="70"/>
      <point x="84" y="38"/>
      <point x="144" y="18" type="curve"/>
      <point x="26" y="15"/>
      <point x="-48" y="-32"/>
      <point x="-48" y="-112" type="curve" smooth="yes"/>
      <point x="-48" y="-196"/>
      <point x="24" y="-240"/>
    </contour>
    <contour>
      <point x="172" y="-230" type="curve" smooth="yes"/>
      <point x="67" y="-230"/>
      <point x="33" y="-178"/>
      <point x="33" y="-104" type="curve" smooth="yes"/>
      <point x="33" y="-32"/>
      <point x="91" y="5"/>
      <point x="159" y="13" type="curve"/>
      <point x="261" y="3" type="line" smooth="yes"/>
      <point x="326" y="-3"/>
      <point x="354" y="-28"/>
      <point x="354" y="-82" type="curve" smooth="yes"/>
      <point x="354" y="-156"/>
      <point x="305" y="-230"/>
    </contour>
    <contour>
      <point x="248" y="199" type="curve" smooth="yes"/>
      <point x="208" y="199"/>
      <point x="184" y="234"/>
      <point x="184" y="319" type="curve" smooth="yes"/>
      <point x="184" y="399"/>
      <point x="221" y="536"/>
      <point x="321" y="536" type="curve" smooth="yes"/>
      <point x="361" y="536"/>
      <point x="380" y="500"/>
      <point x="380" y="426" type="curve" smooth="yes"/>
      <point x="380" y="336"/>
      <point x="341" y="199"/>
    </contour>
  </outline>
</glyph>
<glyph name="i" format="2">
  <advance width="302"/>
  <unicode hex="0069"/>
  <anchor x="91" y="0" name="bottom"/>
  <anchor x="253" y="761" name="top"/>
  <anchor x="385" y="761" name="topright"/>
  <outline>
    <contour>
      <point x="151" y="-10" type="curve" smooth="yes"/>
      <point x="201" y="-10"/>
      <point x="257" y="24"/>
      <point x="286" y="50" type="curve"/>
      <point x="280" y="58" type="line"/>
      <point x="256" y="42"/>
      <point x="235" y="31"/>
      <point x="206" y="31" type="curve" smooth="yes"/>
      <point x="176" y="31"/>
      <point x="163" y="55"/>
      <point x="163" y="104" type="curve" smooth="yes"/>
      <point x="163" y="131"/>
      <point x="173" y="193"/>
      <point x="178" y="215" type="curve" smooth="yes"/>
      <point x="246" y="536" type="line"/>
      <point x="67" y="536" type="line"/>
      <point x="65" y="526" type="line"/>
      <point x="78" y="526" type="line" smooth="yes"/>
      <point x="115" y="526"/>
      <point x="139" y="520"/>
      <point x="139" y="484" type="curve" smooth="yes"/>
      <point x="139" y="477"/>
      <point x="138" y="468"/>
      <point x="136" y="458" type="curve" smooth="yes"/>
      <point x="90" y="242" type="line" smooth="yes"/>
      <point x="82" y="203"/>
      <point x="68" y="136"/>
      <point x="68" y="93" type="curve" smooth="yes"/>
      <point x="68" y="33"/>
      <point x="98" y="-10"/>
    </contour>
    <contour>
      <point x="220" y="636" type="curve" smooth="yes"/>
      <point x="244" y="636"/>
      <point x="270" y="650"/>
      <point x="270" y="701" type="curve" smooth="yes"/>
      <point x="270" y="739"/>
      <point x="250" y="751"/>
      <point x="224" y="751" type="curve" smooth="yes"/>
      <point x="194" y="751"/>
      <point x="174" y="730"/>
      <point x="174" y="686" type="curve" smooth="yes"/>
      <point x="174" y="650"/>
      <point x="193" y="636"/>
    </contour>
  </outline>
</glyph>
<glyph name="k" format="2">
  <advance width="576"/>
  <unicode hex="006B"/>
  <anchor x="224" y="0" name="bottom"/>
  <anchor x="386" y="760" name="top"/>
  <anchor x="610" y="760" name="topright"/>
  <outline>
    <contour>
      <point x="511" y="-7" type="curve" smooth="yes"/>
      <point x="518" y="-7" type="line"/>
      <point x="520" y="3" type="line"/>
      <point x="473" y="3"/>
      <point x="460" y="48"/>
      <point x="423" y="119" type="curve" smooth="yes"/>
      <point x="311" y="336" type="line"/>
      <point x="272" y="297" type="line"/>
      <point x="416" y="421" type="line" smooth="yes"/>
      <point x="486" y="481"/>
      <point x="540" y="526"/>
      <point x="593" y="526" type="curve"/>
      <point x="595" y="536" type="line"/>
      <point x="374" y="536" type="line"/>
      <point x="372" y="526" type="line"/>
      <point x="443" y="526"/>
      <point x="460" y="515"/>
      <point x="460" y="498" type="curve" smooth="yes"/>
      <point x="460" y="475"/>
      <point x="444" y="459"/>
      <point x="387" y="410" type="curve" smooth="yes"/>
      <point x="181" y="232" type="line"/>
      <point x="194" y="295"/>
      <point x="239" y="500"/>
      <point x="255" y="576" type="curve" smooth="yes"/>
      <point x="294" y="760" type="line"/>
      <point x="110" y="760" type="line"/>
      <point x="108" y="750" type="line"/>
      <point x="116" y="750" type="line" smooth="yes"/>
      <point x="154" y="750"/>
      <point x="186" y="743"/>
      <point x="186" y="703" type="curve" smooth="yes"/>
      <point x="186" y="694"/>
      <point x="183" y="677"/>
      <point x="177" y="650" type="curve" smooth="yes"/>
      <point x="40" y="0" type="line"/>
      <point x="133" y="0" type="line"/>
      <point x="178" y="216" type="line"/>
      <point x="262" y="288" type="line"/>
      <point x="244" y="276" type="line"/>
      <point x="331" y="95" type="line" smooth="yes"/>
      <point x="371" y="12"/>
      <point x="402" y="-6"/>
    </contour>
  </outline>
</glyph>
<glyph name="l" format="2">
  <advance width="306"/>
  <unicode hex="006C"/>
  <anchor x="95" y="0" name="bottom"/>
  <anchor x="209" y="268" name="center"/>
  <anchor x="257" y="760" name="top"/>
  <anchor x="389" y="760" name="topright"/>
  <outline>
    <contour>
      <point x="156" y="-10" type="curve" smooth="yes"/>
      <point x="206" y="-10"/>
      <point x="261" y="24"/>
      <point x="290" y="50" type="curve"/>
      <point x="285" y="58" type="line"/>
      <point x="260" y="42"/>
      <point x="235" y="31"/>
      <point x="213" y="31" type="curve" smooth="yes"/>
      <point x="178" y="31"/>
      <point x="167" y="55"/>
      <point x="167" y="104" type="curve" smooth="yes"/>
      <point x="167" y="131"/>
      <point x="178" y="193"/>
      <point x="183" y="215" type="curve" smooth="yes"/>
      <point x="299" y="760" type="line"/>
      <point x="110" y="760" type="line"/>
      <point x="108" y="750" type="line"/>
      <point x="120" y="750" type="line" smooth="yes"/>
      <point x="158" y="750"/>
      <point x="190" y="743"/>
      <point x="190" y="703" type="curve" smooth="yes"/>
      <point x="190" y="697"/>
      <point x="188" y="677"/>
      <point x="184" y="658" type="curve" smooth="yes"/>
      <point x="95" y="242" type="line" smooth="yes"/>
      <point x="87" y="203"/>
      <point x="73" y="126"/>
      <point x="73" y="85" type="curve" smooth="yes"/>
      <point x="73" y="33"/>
      <point x="103" y="-10"/>
    </contour>
  </outline>
</glyph>
<glyph name="o" format="2">
  <advance width="564"/>
  <unicode hex="006F"/>
  <anchor x="225" y="0" name="bottom"/>
  <anchor x="339" y="268" name="center"/>
  <anchor x="339" y="536" name="top"/>
  <anchor x="606" y="536" name="topright"/>
  <outline>
    <contour>
      <point x="230" y="-10" type="curve" smooth="yes"/>
      <point x="435" y="-10"/>
      <point x="526" y="197"/>
      <point x="526" y="339" type="curve" smooth="yes"/>
      <point x="526" y="486"/>
      <point x="441" y="546"/>
      <point x="336" y="546" type="curve" smooth="yes"/>
      <point x="133" y="546"/>
      <point x="38" y="345"/>
      <point x="38" y="197" type="curve" smooth="yes"/>
      <point x="38" y="58"/>
      <point x="117" y="-10"/>
    </contour>
    <contour>
      <point x="232" y="0" type="curve" smooth="yes"/>
      <point x="177" y="0"/>
      <point x="142" y="48"/>
      <point x="142" y="179" type="curve" smooth="yes"/>
      <point x="142" y="315"/>
      <point x="195" y="536"/>
      <point x="330" y="536" type="curve" smooth="yes"/>
      <point x="391" y="536"/>
      <point x="422" y="485"/>
      <point x="422" y="356" type="curve" smooth="yes"/>
      <point x="422" y="220"/>
      <point x="368" y="0"/>
    </contour>
  </outline>
</glyph>
<glyph name="p" format="2">
  <advance width="568"/>
  <unicode hex="0070"/>
  <anchor x="72" y="-240" name="bottom"/>
  <anchor x="347" y="536" name="top"/>
  <anchor x="595" y="536" name="topright"/>
  <outline>
    <contour>
      <point x="-6" y="-240" type="line"/>
      <point x="182" y="-240" type="line"/>
      <point x="184" y="-230" type="line"/>
      <point x="171" y="-230" type="line" smooth="yes"/>
      <point x="133" y="-230"/>
      <point x="101" y="-224"/>
      <point x="101" y="-184" type="curve" smooth="yes"/>
      <point x="101" y="-169"/>
      <point x="108" y="-136"/>
      <point x="110" y="-128" type="curve" smooth="yes"/>
      <point x="131" y="-35" type="line" smooth="yes"/>
      <point x="136" y="-13"/>
      <point x="138" y="-1"/>
      <point x="143" y="19" type="curve"/>
      <point x="171" y="0"/>
      <point x="198" y="-10"/>
      <point x="237" y="-10" type="curve" smooth="yes"/>
      <point x="437" y="-10"/>
      <point x="535" y="221"/>
      <point x="535" y="365" type="curve" smooth="yes"/>
      <point x="535" y="482"/>
      <point x="489" y="546"/>
      <point x="408" y="546" type="curve" smooth="yes"/>
      <point x="318" y="546"/>
      <point x="263" y="481"/>
      <point x="222" y="403" type="curve"/>
      <point x="220" y="403" type="line"/>
      <point x="244" y="536" type="line"/>
      <point x="67" y="536" type="line"/>
      <point x="65" y="526" type="line"/>
      <point x="73" y="526" type="line" smooth="yes"/>
      <point x="111" y="526"/>
      <point x="143" y="519"/>
      <point x="143" y="479" type="curve" smooth="yes"/>
      <point x="143" y="473"/>
      <point x="140" y="453"/>
      <point x="134" y="426" type="curve" smooth="yes"/>
    </contour>
    <contour>
      <point x="234" y="1" type="curve" smooth="yes"/>
      <point x="187" y="1"/>
      <point x="162" y="19"/>
      <point x="146" y="30" type="curve"/>
      <point x="214" y="349" type="line" smooth="yes"/>
      <point x="226" y="402"/>
      <point x="290" y="516"/>
      <point x="363" y="516" type="curve" smooth="yes"/>
      <point x="422" y="516"/>
      <point x="433" y="440"/>
      <point x="433" y="366" type="curve" smooth="yes"/>
      <point x="433" y="230"/>
      <point x="361" y="1"/>
    </contour>
  </outline>
</glyph>
<glyph name="q" format="2">
  <advance width="549"/>
  <unicode hex="0071"/>
  <anchor x="162" y="-240" name="bottom"/>
  <anchor x="327" y="536" name="top"/>
  <anchor x="587" y="536" name="topright"/>
  <outline>
    <contour>
      <point x="269" y="-240" type="line"/>
      <point x="451" y="-240" type="line"/>
      <point x="453" y="-230" type="line"/>
      <point x="445" y="-230" type="line" smooth="yes"/>
      <point x="407" y="-230"/>
      <point x="376" y="-223"/>
      <point x="376" y="-183" type="curve" smooth="yes"/>
      <point x="376" y="-177"/>
      <point x="378" y="-157"/>
      <point x="382" y="-138" type="curve" smooth="yes"/>
      <point x="527" y="546" type="line"/>
      <point x="492" y="546" type="line"/>
      <point x="436" y="516" type="line"/>
      <point x="414" y="533"/>
      <point x="380" y="546"/>
      <point x="331" y="546" type="curve" smooth="yes"/>
      <point x="141" y="546"/>
      <point x="33" y="329"/>
      <point x="33" y="173" type="curve" smooth="yes"/>
      <point x="33" y="53"/>
      <point x="84" y="-10"/>
      <point x="162" y="-10" type="curve" smooth="yes"/>
      <point x="257" y="-10"/>
      <point x="314" y="68"/>
      <point x="353" y="151" type="curve"/>
      <point x="355" y="151" type="line"/>
      <point x="350" y="128"/>
      <point x="320" y="5"/>
      <point x="311" y="-40" type="curve" smooth="yes"/>
    </contour>
    <contour>
      <point x="210" y="18" type="curve" smooth="yes"/>
      <point x="166" y="18"/>
      <point x="135" y="60"/>
      <point x="135" y="168" type="curve" smooth="yes"/>
      <point x="135" y="289"/>
      <point x="201" y="535"/>
      <point x="343" y="535" type="curve" smooth="yes"/>
      <point x="380" y="535"/>
      <point x="403" y="523"/>
      <point x="421" y="508" type="curve"/>
      <point x="357" y="200" type="line" smooth="yes"/>
      <point x="342" y="128"/>
      <point x="275" y="18"/>
    </contour>
  </outline>
</glyph>
<glyph name="r" format="2">
  <advance width="478"/>
  <unicode hex="0072"/>
  <anchor x="102" y="0" name="bottom"/>
  <anchor x="303" y="536" name="top"/>
  <anchor x="517" y="536" name="topright"/>
  <outline>
    <contour>
      <point x="56" y="0" type="line"/>
      <point x="149" y="0" type="line"/>
      <point x="221" y="338" type="line" smooth="yes"/>
      <point x="233" y="396"/>
      <point x="295" y="512"/>
      <point x="351" y="512" type="curve" smooth="yes"/>
      <point x="389" y="512"/>
      <point x="401" y="481"/>
      <point x="401" y="431" type="curve" smooth="yes"/>
      <point x="401" y="422"/>
      <point x="401" y="412"/>
      <point x="400" y="401" type="curve"/>
      <point x="458" y="401"/>
      <point x="485" y="430"/>
      <point x="485" y="477" type="curve" smooth="yes"/>
      <point x="485" y="517"/>
      <point x="459" y="546"/>
      <point x="403" y="546" type="curve" smooth="yes"/>
      <point x="310" y="546"/>
      <point x="268" y="474"/>
      <point x="229" y="392" type="curve"/>
      <point x="227" y="392" type="line"/>
      <point x="250" y="536" type="line"/>
      <point x="67" y="536" type="line"/>
      <point x="65" y="526" type="line"/>
      <point x="73" y="526" type="line" smooth="yes"/>
      <point x="111" y="526"/>
      <point x="153" y="519"/>
      <point x="153" y="479" type="curve" smooth="yes"/>
      <point x="153" y="473"/>
      <point x="151" y="453"/>
      <point x="147" y="434" type="curve" smooth="yes"/>
    </contour>
  </outline>
</glyph>
<glyph name="s" format="2">
  <advance width="464"/>
  <unicode hex="0073"/>
  <anchor x="175" y="0" name="bottom"/>
  <anchor x="289" y="536" name="top"/>
  <anchor x="501" y="536" name="topright"/>
  <outline>
    <contour>
      <point x="190" y="-10" type="curve" smooth="yes"/>
      <point x="318" y="-10"/>
      <point x="397" y="58"/>
      <point x="397" y="155" type="curve" smooth="yes"/>
      <point x="397" y="232"/>
      <point x="350" y="277"/>
      <point x="277" y="310" type="curve" smooth="yes"/>
      <point x="207" y="342"/>
      <point x="175" y="368"/>
      <point x="175" y="430" type="curve" smooth="yes"/>
      <point x="175" y="484"/>
      <point x="200" y="535"/>
      <point x="274" y="535" type="curve" smooth="yes"/>
      <point x="339" y="535"/>
      <point x="364" y="483"/>
      <point x="364" y="418" type="curve" smooth="yes"/>
      <point x="364" y="408"/>
      <point x="363" y="398"/>
      <point x="362" y="388" type="curve"/>
      <point x="405" y="388"/>
      <point x="437" y="408"/>
      <point x="437" y="450" type="curve" smooth="yes"/>
      <point x="437" y="496"/>
      <point x="390" y="545"/>
      <point x="281" y="545" type="curve" smooth="yes"/>
      <point x="163" y="545"/>
      <point x="88" y="482"/>
      <point x="88" y="396" type="curve" smooth="yes"/>
      <point x="88" y="316"/>
      <point x="135" y="276"/>
      <point x="209" y="241" type="curve" smooth="yes"/>
      <point x="282" y="207"/>
      <point x="310" y="178"/>
      <point x="310" y="116" type="curve" smooth="yes"/>
      <point x="310" y="44"/>
      <point x="265" y="0"/>
      <point x="194" y="0" type="curve" smooth="yes"/>
      <point x="122" y="0"/>
      <point x="92" y="61"/>
      <point x="92" y="137" type="curve" smooth="yes"/>
      <point x="92" y="147"/>
      <point x="93" y="158"/>
      <point x="94" y="169" type="curve"/>
      <point x="70" y="169"/>
      <point x="25" y="157"/>
      <point x="25" y="103" type="curve" smooth="yes"/>
      <point x="25" y="33"/>
      <point x="90" y="-10"/>
    </contour>
  </outline>
</glyph>
<glyph name="t" format="2">
  <advance width="367"/>
  <unicode hex="0074"/>
  <anchor x="127" y="0" name="bottom"/>
  <anchor x="171" y="268" name="center"/>
  <anchor x="267" y="659" name="top"/>
  <anchor x="307" y="970" name="topright"/>
  <outline>
    <contour>
      <point x="183" y="-10" type="curve" smooth="yes"/>
      <point x="233" y="-10"/>
      <point x="278" y="10"/>
      <point x="318" y="38" type="curve"/>
      <point x="313" y="47" type="line"/>
      <point x="292" y="34"/>
      <point x="260" y="24"/>
      <point x="235" y="24" type="curve" smooth="yes"/>
      <point x="191" y="24"/>
      <point x="166" y="48"/>
      <point x="166" y="108" type="curve" smooth="yes"/>
      <point x="166" y="129"/>
      <point x="171" y="161"/>
      <point x="178" y="194" type="curve" smooth="yes"/>
      <point x="249" y="526" type="line"/>
      <point x="370" y="526" type="line"/>
      <point x="372" y="536" type="line"/>
      <point x="251" y="536" type="line"/>
      <point x="277" y="659" type="line"/>
      <point x="267" y="659" type="line"/>
      <point x="229" y="568"/>
      <point x="191" y="536"/>
      <point x="81" y="536" type="curve"/>
      <point x="79" y="526" type="line"/>
      <point x="155" y="526" type="line"/>
      <point x="84" y="191" type="line" smooth="yes"/>
      <point x="79" y="166"/>
      <point x="74" y="131"/>
      <point x="74" y="107" type="curve" smooth="yes"/>
      <point x="74" y="28"/>
      <point x="111" y="-10"/>
    </contour>
  </outline>
</glyph>
<glyph name="v" format="2">
  <advance width="508"/>
  <unicode hex="0076"/>
  <anchor x="209" y="0" name="bottom"/>
  <anchor x="323" y="536" name="top"/>
  <anchor x="572" y="536" name="topright"/>
  <outline>
    <contour>
      <point x="88" y="473" type="curve" smooth="yes"/>
      <point x="163" y="-9" type="line"/>
      <point x="232" y="0" type="line"/>
      <point x="323" y="91"/>
      <point x="486" y="291"/>
      <point x="486" y="448" type="curve" smooth="yes"/>
      <point x="486" y="514"/>
      <point x="460" y="541"/>
      <point x="418" y="541" type="curve" smooth="yes"/>
      <point x="386" y="541"/>
      <point x="350" y="516"/>
      <point x="350" y="461" type="curve"/>
      <point x="411" y="461"/>
      <point x="452" y="444"/>
      <point x="452" y="385" type="curve" smooth="yes"/>
      <point x="452" y="287"/>
      <point x="356" y="141"/>
      <point x="247" y="28" type="curve"/>
      <point x="246" y="28" type="line"/>
      <point x="241" y="70"/>
      <point x="231" y="158"/>
      <point x="218" y="240" type="curve" smooth="yes"/>
      <point x="172" y="536" type="line"/>
      <point x="22" y="536" type="line"/>
      <point x="20" y="526" type="line"/>
      <point x="30" y="526" type="line" smooth="yes"/>
      <point x="63" y="526"/>
      <point x="81" y="515"/>
    </contour>
  </outline>
</glyph>
<glyph name="w" format="2">
  <advance width="813"/>
  <unicode hex="0077"/>
  <anchor x="350" y="0" name="bottom"/>
  <anchor x="464" y="536" name="top"/>
  <anchor x="853" y="536" name="topright"/>
  <outline>
    <contour>
      <point x="446" y="-10" type="curve"/>
      <point x="525" y="-1" type="line"/>
      <point x="686" y="200"/>
      <point x="796" y="352"/>
      <point x="796" y="471" type="curve" smooth="yes"/>
      <point x="796" y="522"/>
      <point x="776" y="546"/>
      <point x="743" y="546" type="curve" smooth="yes"/>
      <point x="710" y="546"/>
      <point x="688" y="519"/>
      <point x="684" y="487" type="curve"/>
      <point x="732" y="476"/>
      <point x="757" y="455"/>
      <point x="757" y="409" type="curve" smooth="yes"/>
      <point x="757" y="313"/>
      <point x="654" y="175"/>
      <point x="532" y="25" type="curve"/>
      <point x="530" y="25" type="line"/>
      <point x="531" y="172"/>
      <point x="520" y="436"/>
      <point x="511" y="531" type="curve"/>
      <point x="428" y="527" type="line"/>
      <point x="368" y="384"/>
      <point x="268" y="161"/>
      <point x="204" y="47" type="curve"/>
      <point x="202" y="47" type="line"/>
      <point x="204" y="187"/>
      <point x="201" y="401"/>
      <point x="198" y="536" type="curve"/>
      <point x="48" y="536" type="line"/>
      <point x="45" y="526" type="line"/>
      <point x="55" y="526" type="line" smooth="yes"/>
      <point x="88" y="526"/>
      <point x="108" y="515"/>
      <point x="109" y="454" type="curve" smooth="yes"/>
      <point x="117" y="-9" type="line"/>
      <point x="192" y="0" type="line"/>
      <point x="226" y="58"/>
      <point x="390" y="399"/>
      <point x="429" y="505" type="curve"/>
      <point x="432" y="359"/>
      <point x="445" y="117"/>
    </contour>
  </outline>
</glyph>
<glyph name="x" format="2">
  <advance width="537"/>
  <unicode hex="0078"/>
  <anchor x="214" y="0" name="bottom"/>
  <anchor x="328" y="536" name="top"/>
  <anchor x="581" y="536" name="topright"/>
  <outline>
    <contour>
      <point x="-22" y="0" type="line"/>
      <point x="78" y="0" type="line"/>
      <point x="247" y="237" type="line"/>
      <point x="326" y="0" type="line"/>
      <point x="470" y="0" type="line"/>
      <point x="472" y="10" type="line"/>
      <point x="459" y="10" type="line" smooth="yes"/>
      <point x="420" y="10"/>
      <point x="417" y="23"/>
      <point x="395" y="82" type="curve" smooth="yes"/>
      <point x="314" y="305" type="line"/>
      <point x="420" y="455" type="line" smooth="yes"/>
      <point x="462" y="514"/>
      <point x="505" y="526"/>
      <point x="541" y="526" type="curve" smooth="yes"/>
      <point x="554" y="526" type="line"/>
      <point x="557" y="536" type="line"/>
      <point x="461" y="536" type="line"/>
      <point x="310" y="316" type="line"/>
      <point x="235" y="536" type="line"/>
      <point x="92" y="536" type="line"/>
      <point x="90" y="526" type="line"/>
      <point x="103" y="526" type="line" smooth="yes"/>
      <point x="136" y="526"/>
      <point x="146" y="507"/>
      <point x="166" y="454" type="curve" smooth="yes"/>
      <point x="244" y="248" type="line"/>
      <point x="118" y="77" type="line" smooth="yes"/>
      <point x="72" y="15"/>
      <point x="38" y="10"/>
      <point x="-7" y="10" type="curve" smooth="yes"/>
      <point x="-20" y="10" type="line"/>
    </contour>
  </outline>
</glyph>
<glyph name="z" format="2">
  <advance width="501"/>
  <unicode hex="007A"/>
  <anchor x="199" y="0" name="bottom"/>
  <anchor x="286" y="536" name="top"/>
  <anchor x="548" y="536" name="topright"/>
  <outline>
    <contour>
      <point x="-1" y="0" type="line"/>
      <point x="399" y="0" type="line"/>
      <point x="438" y="162" type="line"/>
      <point x="428" y="162" type="line"/>
      <point x="420" y="139" type="line" smooth="yes"/>
      <point x="389" y="49"/>
      <point x="357" y="10"/>
      <point x="263" y="10" type="curve" smooth="yes"/>
      <point x="88" y="10" type="line"/>
      <point x="470" y="526" type="line"/>
      <point x="472" y="536" type="line"/>
      <point x="122" y="536" type="line"/>
      <point x="82" y="394" type="line"/>
      <point x="92" y="394" type="line"/>
      <point x="95" y="404" type="line" smooth="yes"/>
      <point x="121" y="491"/>
      <point x="161" y="526"/>
      <point x="235" y="526" type="curve" smooth="yes"/>
      <point x="365" y="526" type="line"/>
      <point x="1" y="10" type="line"/>
    </contour>
  </outline>
</glyph>
<glyph name="braceleft" format="2">
  <advance width="428"/>
  <unicode hex="007B"/>
  <outline>
    <contour>
      <point x="232" y="-128" type="curve" smooth="yes"/>
      <point x="298" y="-128" type="line"/>
      <point x="300" y="-118" type="line"/>
      <point x="270" y="-118" type="line" smooth="yes"/>
      <point x="226" y="-118"/>
      <point x="210" y="-85"/>
      <point x="210" y="-38" type="curve" smooth="yes"/>
      <point x="210" y="-15"/>
      <point x="213" y="3"/>
      <point x="217" y="20" type="curve" smooth="yes"/>
      <point x="254" y="192" type="line" smooth="yes"/>
      <point x="256" y="203"/>
      <point x="258" y="213"/>
      <point x="258" y="223" type="curve" smooth="yes"/>
      <point x="258" y="272"/>
      <point x="221" y="305"/>
      <point x="149" y="315" type="curve"/>
      <point x="149" y="317" type="line"/>
      <point x="240" y="330"/>
      <point x="290" y="373"/>
      <point x="306" y="440" type="curve" smooth="yes"/>
      <point x="346" y="635" type="line" smooth="yes"/>
      <point x="361" y="710"/>
      <point x="391" y="750"/>
      <point x="455" y="750" type="curve" smooth="yes"/>
      <point x="485" y="750" type="line"/>
      <point x="487" y="760" type="line"/>
      <point x="421" y="760" type="line" smooth="yes"/>
      <point x="294" y="760"/>
      <point x="265" y="704"/>
      <point x="246" y="616" type="curve" smooth="yes"/>
      <point x="209" y="443" type="line" smooth="yes"/>
      <point x="192" y="349"/>
      <point x="132" y="325"/>
      <point x="65" y="322" type="curve"/>
      <point x="63" y="312" type="line"/>
      <point x="118" y="310"/>
      <point x="159" y="289"/>
      <point x="159" y="222" type="curve" smooth="yes"/>
      <point x="159" y="212"/>
      <point x="158" y="202"/>
      <point x="154" y="184" type="curve" smooth="yes"/>
      <point x="118" y="15" type="line" smooth="yes"/>
      <point x="115" y="0"/>
      <point x="113" y="-14"/>
      <point x="113" y="-27" type="curve" smooth="yes"/>
      <point x="113" y="-92"/>
      <point x="154" y="-128"/>
    </contour>
  </outline>
</glyph>
<glyph name="braceright" format="2">
  <advance width="427"/>
  <unicode hex="007D"/>
  <outline>
    <contour>
      <point x="-39" y="-128" type="line"/>
      <point x="27" y="-128" type="line" smooth="yes"/>
      <point x="154" y="-128"/>
      <point x="183" y="-72"/>
      <point x="202" y="16" type="curve" smooth="yes"/>
      <point x="239" y="190" type="line" smooth="yes"/>
      <point x="256" y="284"/>
      <point x="316" y="309"/>
      <point x="382" y="312" type="curve"/>
      <point x="384" y="322" type="line"/>
      <point x="328" y="324"/>
      <point x="289" y="344"/>
      <point x="289" y="411" type="curve" smooth="yes"/>
      <point x="289" y="421"/>
      <point x="290" y="431"/>
      <point x="293" y="443" type="curve" smooth="yes"/>
      <point x="330" y="617" type="line" smooth="yes"/>
      <point x="333" y="632"/>
      <point x="335" y="646"/>
      <point x="335" y="659" type="curve" smooth="yes"/>
      <point x="335" y="724"/>
      <point x="294" y="760"/>
      <point x="216" y="760" type="curve" smooth="yes"/>
      <point x="150" y="760" type="line"/>
      <point x="148" y="750" type="line"/>
      <point x="178" y="750" type="line" smooth="yes"/>
      <point x="218" y="750"/>
      <point x="238" y="718"/>
      <point x="238" y="669" type="curve" smooth="yes"/>
      <point x="238" y="649"/>
      <point x="235" y="631"/>
      <point x="231" y="612" type="curve" smooth="yes"/>
      <point x="194" y="441" type="line" smooth="yes"/>
      <point x="192" y="430"/>
      <point x="190" y="420"/>
      <point x="190" y="410" type="curve" smooth="yes"/>
      <point x="190" y="362"/>
      <point x="223" y="330"/>
      <point x="289" y="319" type="curve"/>
      <point x="289" y="317" type="line"/>
      <point x="204" y="303"/>
      <point x="157" y="259"/>
      <point x="142" y="193" type="curve" smooth="yes"/>
      <point x="105" y="20" type="line" smooth="yes"/>
      <point x="89" y="-69"/>
      <point x="60" y="-118"/>
      <point x="-7" y="-118" type="curve" smooth="yes"/>
      <point x="-37" y="-118" type="line"/>
    </contour>
  </outline>
</glyph>
<glyph name="asciitilde" format="2">
  <advance width="559"/>
  <unicode hex="007E"/>
  <outline>
    <contour>
      <point x="83" y="277" type="curve"/>
      <point x="103" y="277" type="line"/>
      <point x="119" y="359"/>
      <point x="134" y="416"/>
      <point x="190" y="416" type="curve" smooth="yes"/>
      <point x="229" y="416"/>
      <point x="257" y="390"/>
      <point x="287" y="357" type="curve" smooth="yes"/>
      <point x="322" y="319"/>
      <point x="356" y="277"/>
      <point x="406" y="277" type="curve" smooth="yes"/>
      <point x="487" y="277"/>
      <point x="504" y="387"/>
      <point x="513" y="436" type="curve"/>
      <point x="494" y="436" type="line"/>
      <point x="480" y="378"/>
      <point x="467" y="297"/>
      <point x="408" y="297" type="curve" smooth="yes"/>
      <point x="368" y="297"/>
      <point x="337" y="334"/>
      <point x="303" y="369" type="curve" smooth="yes"/>
      <point x="270" y="403"/>
      <point x="236" y="436"/>
      <point x="189" y="436" type="curve" smooth="yes"/>
      <point x="108" y="436"/>
      <point x="95" y="337"/>
    </contour>
  </outline>
</glyph>
<glyph name="sterling" format="2">
  <advance width="559"/>
  <unicode hex="00A3"/>
  <outline>
    <contour>
      <point x="336" y="-10" type="curve" smooth="yes"/>
      <point x="403" y="-10"/>
      <point x="475" y="49"/>
      <point x="506" y="82" type="curve"/>
      <point x="499" y="89" type="line"/>
      <point x="468" y="62"/>
      <point x="449" y="48"/>
      <point x="410" y="48" type="curve" smooth="yes"/>
      <point x="354" y="48"/>
      <point x="293" y="102"/>
      <point x="232" y="102" type="curve" smooth="yes"/>
      <point x="185" y="102"/>
      <point x="166" y="84"/>
      <point x="109" y="53" type="curve"/>
      <point x="108" y="55" type="line"/>
      <point x="171" y="101"/>
      <point x="262" y="176"/>
      <point x="262" y="284" type="curve" smooth="yes"/>
      <point x="262" y="310"/>
      <point x="259" y="334"/>
      <point x="256" y="357" type="curve"/>
      <point x="416" y="357" type="line"/>
      <point x="418" y="367" type="line"/>
      <point x="254" y="367" type="line"/>
      <point x="247" y="411"/>
      <point x="238" y="454"/>
      <point x="238" y="506" type="curve" smooth="yes"/>
      <point x="238" y="633"/>
      <point x="290" y="714"/>
      <point x="385" y="714" type="curve" smooth="yes"/>
      <point x="453" y="714"/>
      <point x="478" y="657"/>
      <point x="477" y="547" type="curve"/>
      <point x="530" y="547"/>
      <point x="560" y="575"/>
      <point x="560" y="626" type="curve" smooth="yes"/>
      <point x="560" y="680"/>
      <point x="502" y="724"/>
      <point x="394" y="724" type="curve" smooth="yes"/>
      <point x="247" y="724"/>
      <point x="150" y="638"/>
      <point x="150" y="488" type="curve" smooth="yes"/>
      <point x="150" y="453"/>
      <point x="159" y="409"/>
      <point x="166" y="367" type="curve"/>
      <point x="67" y="367" type="line"/>
      <point x="65" y="357" type="line"/>
      <point x="168" y="357" type="line"/>
      <point x="173" y="327"/>
      <point x="178" y="298"/>
      <point x="178" y="275" type="curve" smooth="yes"/>
      <point x="178" y="150"/>
      <point x="116" y="66"/>
      <point x="49" y="28" type="curve" smooth="yes"/>
      <point x="14" y="8" type="line"/>
      <point x="18" y="-1" type="line"/>
      <point x="39" y="10" type="line" smooth="yes"/>
      <point x="74" y="27"/>
      <point x="107" y="37"/>
      <point x="151" y="37" type="curve" smooth="yes"/>
      <point x="239" y="37"/>
      <point x="264" y="-10"/>
    </contour>
  </outline>
</glyph>
<glyph name="currency" format="2">
  <advance width="559"/>
  <unicode hex="00A4"/>
  <outline>
    <contour>
      <point x="125" y="143" type="line"/>
      <point x="191" y="209" type="line"/>
      <point x="221" y="187"/>
      <point x="258" y="175"/>
      <point x="298" y="175" type="curve" smooth="yes"/>
      <point x="338" y="175"/>
      <point x="375" y="188"/>
      <point x="405" y="209" type="curve"/>
      <point x="472" y="143" type="line"/>
      <point x="513" y="185" type="line"/>
      <point x="447" y="251" type="line"/>
      <point x="469" y="281"/>
      <point x="482" y="318"/>
      <point x="482" y="358" type="curve" smooth="yes"/>
      <point x="482" y="398"/>
      <point x="469" y="435"/>
      <point x="447" y="465" type="curve"/>
      <point x="513" y="531" type="line"/>
      <point x="471" y="574" type="line"/>
      <point x="404" y="507" type="line"/>
      <point x="374" y="529"/>
      <point x="337" y="542"/>
      <point x="298" y="542" type="curve" smooth="yes"/>
      <point x="257" y="542"/>
      <point x="220" y="529"/>
      <point x="190" y="507" type="curve"/>
      <point x="125" y="573" type="line"/>
      <point x="83" y="531" type="line"/>
      <point x="149" y="465" type="line"/>
      <point x="127" y="435"/>
      <point x="115" y="398"/>
      <point x="115" y="358" type="curve"/>
      <point x="115" y="318"/>
      <point x="127" y="281"/>
      <point x="148" y="251" type="curve"/>
      <point x="83" y="185" type="line"/>
    </contour>
    <contour>
      <point x="298" y="230" type="curve" smooth="yes"/>
      <point x="228" y="230"/>
      <point x="171" y="288"/>
      <point x="171" y="358" type="curve"/>
      <point x="171" y="430"/>
      <point x="228" y="487"/>
      <point x="298" y="487" type="curve" smooth="yes"/>
      <point x="370" y="487"/>
      <point x="426" y="430"/>
      <point x="426" y="358" type="curve" smooth="yes"/>
      <point x="426" y="288"/>
      <point x="370" y="230"/>
    </contour>
  </outline>
</glyph>
<glyph name="yen" format="2">
  <advance width="559"/>
  <unicode hex="00A5"/>
  <outline>
    <contour>
      <point x="69" y="0" type="line"/>
      <point x="376" y="0" type="line"/>
      <point x="378" y="10" type="line"/>
      <point x="355" y="10" type="line" smooth="yes"/>
      <point x="313" y="10"/>
      <point x="283" y="16"/>
      <point x="283" y="50" type="curve" smooth="yes"/>
      <point x="283" y="56"/>
      <point x="285" y="70"/>
      <point x="287" y="78" type="curve" smooth="yes"/>
      <point x="310" y="188" type="line"/>
      <point x="451" y="188" type="line"/>
      <point x="453" y="198" type="line"/>
      <point x="312" y="198" type="line"/>
      <point x="334" y="301" type="line"/>
      <point x="475" y="301" type="line"/>
      <point x="477" y="311" type="line"/>
      <point x="337" y="311" type="line"/>
      <point x="542" y="626" type="line" smooth="yes"/>
      <point x="584" y="690"/>
      <point x="600" y="704"/>
      <point x="634" y="704" type="curve" smooth="yes"/>
      <point x="643" y="704" type="line"/>
      <point x="645" y="714" type="line"/>
      <point x="441" y="714" type="line"/>
      <point x="439" y="704" type="line"/>
      <point x="475" y="704" type="line" smooth="yes"/>
      <point x="526" y="704"/>
      <point x="545" y="694"/>
      <point x="545" y="672" type="curve" smooth="yes"/>
      <point x="545" y="651"/>
      <point x="533" y="632"/>
      <point x="516" y="605" type="curve" smooth="yes"/>
      <point x="400" y="426" type="line" smooth="yes"/>
      <point x="383" y="400"/>
      <point x="351" y="351"/>
      <point x="327" y="313" type="curve"/>
      <point x="315" y="364"/>
      <point x="304" y="415"/>
      <point x="292" y="466" type="curve" smooth="yes"/>
      <point x="262" y="598" type="line" smooth="yes"/>
      <point x="255" y="628"/>
      <point x="251" y="654"/>
      <point x="251" y="670" type="curve" smooth="yes"/>
      <point x="251" y="698"/>
      <point x="279" y="704"/>
      <point x="324" y="704" type="curve" smooth="yes"/>
      <point x="328" y="704" type="line"/>
      <point x="330" y="714" type="line"/>
      <point x="96" y="714" type="line"/>
      <point x="94" y="704" type="line"/>
      <point x="98" y="704" type="line" smooth="yes"/>
      <point x="137" y="704"/>
      <point x="141" y="691"/>
      <point x="151" y="651" type="curve" smooth="yes"/>
      <point x="236" y="311" type="line"/>
      <point x="100" y="311" type="line"/>
      <point x="98" y="301" type="line"/>
      <point x="237" y="301" type="line"/>
      <point x="215" y="198" type="line"/>
      <point x="76" y="198" type="line"/>
      <point x="74" y="188" type="line"/>
      <point x="213" y="188" type="line"/>
      <point x="190" y="77" type="line" smooth="yes"/>
      <point x="177" y="17"/>
      <point x="138" y="10"/>
      <point x="94" y="10" type="curve" smooth="yes"/>
      <point x="71" y="10" type="line"/>
    </contour>
  </outline>
</glyph>
<glyph name="dieresis" format="2">
  <advance width="577"/>
  <unicode hex="00A8"/>
  <outline>
    <contour>
      <point x="470" y="632" type="curve" smooth="yes"/>
      <point x="493" y="632"/>
      <point x="517" y="648"/>
      <point x="517" y="695" type="curve" smooth="yes"/>
      <point x="517" y="729"/>
      <point x="499" y="745"/>
      <point x="474" y="745" type="curve" smooth="yes"/>
      <point x="445" y="745"/>
      <point x="427" y="720"/>
      <point x="427" y="682" type="curve" smooth="yes"/>
      <point x="427" y="648"/>
      <point x="444" y="632"/>
    </contour>
    <contour>
      <point x="280" y="632" type="curve" smooth="yes"/>
      <point x="303" y="632"/>
      <point x="327" y="648"/>
      <point x="327" y="695" type="curve" smooth="yes"/>
      <point x="327" y="729"/>
      <point x="309" y="745"/>
      <point x="284" y="745" type="curve" smooth="yes"/>
      <point x="255" y="745"/>
      <point x="237" y="720"/>
      <point x="237" y="682" type="curve" smooth="yes"/>
      <point x="237" y="648"/>
      <point x="254" y="632"/>
    </contour>
  </outline>
</glyph>
<glyph name="ordfeminine" format="2">
  <advance width="403"/>
  <unicode hex="00AA"/>
  <anchor x="212" y="381" name="bottom"/>
  <anchor x="284" y="722" name="top"/>
  <outline>
    <contour>
      <point x="170" y="381" type="curve" smooth="yes"/>
      <point x="224" y="381"/>
      <point x="267" y="422"/>
      <point x="297" y="485" type="curve"/>
      <point x="299" y="485" type="line"/>
      <point x="296" y="465"/>
      <point x="295" y="447"/>
      <point x="295" y="436" type="curve" smooth="yes"/>
      <point x="295" y="400"/>
      <point x="316" y="381"/>
      <point x="348" y="381" type="curve" smooth="yes"/>
      <point x="387" y="381"/>
      <point x="420" y="408"/>
      <point x="437" y="426" type="curve"/>
      <point x="432" y="434" type="line"/>
      <point x="417" y="423"/>
      <point x="403" y="413"/>
      <point x="387" y="413" type="curve" smooth="yes"/>
      <point x="370" y="413"/>
      <point x="363" y="428"/>
      <point x="363" y="459" type="curve" smooth="yes"/>
      <point x="363" y="474"/>
      <point x="370" y="511"/>
      <point x="373" y="524" type="curve" smooth="yes"/>
      <point x="420" y="709" type="line"/>
      <point x="398" y="709" type="line"/>
      <point x="361" y="695" type="line"/>
      <point x="343" y="707"/>
      <point x="320" y="716"/>
      <point x="287" y="716" type="curve" smooth="yes"/>
      <point x="156" y="716"/>
      <point x="82" y="585"/>
      <point x="82" y="491" type="curve" smooth="yes"/>
      <point x="82" y="429"/>
      <point x="109" y="381"/>
    </contour>
    <contour>
      <point x="215" y="411" type="curve" smooth="yes"/>
      <point x="189" y="411"/>
      <point x="169" y="435"/>
      <point x="169" y="494" type="curve" smooth="yes"/>
      <point x="169" y="571"/>
      <point x="210" y="706"/>
      <point x="292" y="706" type="curve" smooth="yes"/>
      <point x="311" y="706"/>
      <point x="327" y="702"/>
      <point x="337" y="690" type="curve"/>
      <point x="286" y="497" type="line" smooth="yes"/>
      <point x="277" y="461"/>
      <point x="244" y="411"/>
    </contour>
  </outline>
</glyph>
<glyph name="registered" format="2">
  <advance width="845"/>
  <unicode hex="00AE"/>
  <outline>
    <contour>
      <point x="441" y="-10" type="curve" smooth="yes"/>
      <point x="655" y="-10"/>
      <point x="809" y="144"/>
      <point x="809" y="357" type="curve" smooth="yes"/>
      <point x="809" y="571"/>
      <point x="655" y="725"/>
      <point x="441" y="725" type="curve" smooth="yes"/>
      <point x="227" y="725"/>
      <point x="74" y="570"/>
      <point x="74" y="358" type="curve" smooth="yes"/>
      <point x="74" y="144"/>
      <point x="228" y="-10"/>
    </contour>
    <contour>
      <point x="443" y="0" type="curve" smooth="yes"/>
      <point x="242" y="0"/>
      <point x="86" y="146"/>
      <point x="86" y="358" type="curve" smooth="yes"/>
      <point x="86" y="565"/>
      <point x="235" y="715"/>
      <point x="441" y="715" type="curve" smooth="yes"/>
      <point x="648" y="715"/>
      <point x="797" y="564"/>
      <point x="797" y="358" type="curve" smooth="yes"/>
      <point x="797" y="151"/>
      <point x="647" y="0"/>
    </contour>
    <contour>
      <point x="249" y="141" type="line"/>
      <point x="452" y="141" type="line"/>
      <point x="452" y="151" type="line"/>
      <point x="438" y="151" type="line" smooth="yes"/>
      <point x="412" y="151"/>
      <point x="389" y="155"/>
      <point x="389" y="186" type="curve" smooth="yes"/>
      <point x="389" y="342" type="line"/>
      <point x="430" y="342" type="line"/>
      <point x="549" y="141" type="line"/>
      <point x="658" y="141" type="line"/>
      <point x="658" y="151" type="line"/>
      <point x="636" y="151"/>
      <point x="623" y="160"/>
      <point x="605" y="188" type="curve" smooth="yes"/>
      <point x="508" y="344" type="line"/>
      <point x="561" y="360"/>
      <point x="604" y="390"/>
      <point x="604" y="456" type="curve" smooth="yes"/>
      <point x="604" y="532"/>
      <point x="547" y="573"/>
      <point x="432" y="573" type="curve" smooth="yes"/>
      <point x="249" y="573" type="line"/>
      <point x="249" y="563" type="line"/>
      <point x="262" y="563" type="line" smooth="yes"/>
      <point x="288" y="563"/>
      <point x="311" y="559"/>
      <point x="311" y="528" type="curve" smooth="yes"/>
      <point x="311" y="186" type="line" smooth="yes"/>
      <point x="311" y="155"/>
      <point x="288" y="151"/>
      <point x="262" y="151" type="curve" smooth="yes"/>
      <point x="249" y="151" type="line"/>
    </contour>
    <contour>
      <point x="389" y="352" type="line"/>
      <point x="389" y="563" type="line"/>
      <point x="428" y="563" type="line" smooth="yes"/>
      <point x="498" y="563"/>
      <point x="525" y="534"/>
      <point x="525" y="458" type="curve" smooth="yes"/>
      <point x="525" y="382"/>
      <point x="499" y="352"/>
      <point x="431" y="352" type="curve" smooth="yes"/>
    </contour>
  </outline>
</glyph>
<glyph name="twosuperior" format="2">
  <advance width="400"/>
  <unicode hex="00B2"/>
  <outline>
    <contour>
      <point x="73" y="386" type="line"/>
      <point x="376" y="386" type="line"/>
      <point x="404" y="505" type="line"/>
      <point x="394" y="505" type="line"/>
      <point x="387" y="484" type="line" smooth="yes"/>
      <point x="380" y="462"/>
      <point x="364" y="443"/>
      <point x="333" y="443" type="curve" smooth="yes"/>
      <point x="127" y="443" type="line"/>
      <point x="288" y="557" type="line" smooth="yes"/>
      <point x="360" y="608"/>
      <point x="429" y="651"/>
      <point x="429" y="729" type="curve" smooth="yes"/>
      <point x="429" y="786"/>
      <point x="378" y="824"/>
      <point x="298" y="824" type="curve" smooth="yes"/>
      <point x="203" y="824"/>
      <point x="146" y="787"/>
      <point x="146" y="737" type="curve" smooth="yes"/>
      <point x="146" y="709"/>
      <point x="170" y="689"/>
      <point x="210" y="689" type="curve"/>
      <point x="218" y="755"/>
      <point x="235" y="814"/>
      <point x="291" y="814" type="curve" smooth="yes"/>
      <point x="336" y="814"/>
      <point x="341" y="770"/>
      <point x="341" y="736" type="curve" smooth="yes"/>
      <point x="341" y="661"/>
      <point x="316" y="613"/>
      <point x="233" y="544" type="curve" smooth="yes"/>
      <point x="78" y="416" type="line"/>
    </contour>
  </outline>
</glyph>
<glyph name="threesuperior" format="2">
  <advance width="400"/>
  <unicode hex="00B3"/>
  <outline>
    <contour>
      <point x="214" y="380" type="curve" smooth="yes"/>
      <point x="328" y="380"/>
      <point x="408" y="428"/>
      <point x="408" y="511" type="curve" smooth="yes"/>
      <point x="408" y="574"/>
      <point x="358" y="603"/>
      <point x="283" y="610" type="curve"/>
      <point x="283" y="612" type="line"/>
      <point x="369" y="627"/>
      <point x="436" y="662"/>
      <point x="436" y="733" type="curve" smooth="yes"/>
      <point x="436" y="783"/>
      <point x="393" y="824"/>
      <point x="301" y="824" type="curve" smooth="yes"/>
      <point x="205" y="824"/>
      <point x="148" y="786"/>
      <point x="148" y="739" type="curve" smooth="yes"/>
      <point x="148" y="707"/>
      <point x="174" y="697"/>
      <point x="214" y="697" type="curve"/>
      <point x="223" y="759"/>
      <point x="246" y="814"/>
      <point x="297" y="814" type="curve" smooth="yes"/>
      <point x="335" y="814"/>
      <point x="344" y="781"/>
      <point x="344" y="746" type="curve" smooth="yes"/>
      <point x="344" y="660"/>
      <point x="296" y="616"/>
      <point x="232" y="616" type="curve" smooth="yes"/>
      <point x="198" y="616" type="line"/>
      <point x="196" y="606" type="line"/>
      <point x="229" y="606" type="line" smooth="yes"/>
      <point x="295" y="606"/>
      <point x="316" y="563"/>
      <point x="316" y="514" type="curve" smooth="yes"/>
      <point x="316" y="425"/>
      <point x="275" y="390"/>
      <point x="217" y="390" type="curve" smooth="yes"/>
      <point x="154" y="390"/>
      <point x="140" y="440"/>
      <point x="140" y="511" type="curve"/>
      <point x="108" y="511"/>
      <point x="83" y="493"/>
      <point x="83" y="457" type="curve" smooth="yes"/>
      <point x="83" y="410"/>
      <point x="130" y="380"/>
    </contour>
  </outline>
</glyph>
<glyph name="acute" format="2">
  <advance width="241"/>
  <unicode hex="00B4"/>
  <outline>
    <contour>
      <point x="112" y="606" type="line"/>
      <point x="124" y="606" type="line"/>
      <point x="182" y="647"/>
      <point x="271" y="721"/>
      <point x="304" y="756" type="curve"/>
      <point x="307" y="766" type="line"/>
      <point x="214" y="766" type="line"/>
      <point x="188" y="721"/>
      <point x="148" y="659"/>
      <point x="114" y="616" type="curve"/>
    </contour>
  </outline>
</glyph>
<glyph name="micro" format="2">
  <advance width="604"/>
  <unicode hex="00B5"/>
  <outline>
    <contour>
      <point x="63" y="-240" type="curve" smooth="yes"/>
      <point x="107" y="-240"/>
      <point x="142" y="-212"/>
      <point x="148" y="-153" type="curve"/>
      <point x="81" y="-140"/>
      <point x="53" y="-88"/>
      <point x="53" y="-20" type="curve" smooth="yes"/>
      <point x="53" y="28"/>
      <point x="63" y="69"/>
      <point x="77" y="135" type="curve"/>
      <point x="77" y="25"/>
      <point x="136" y="-10"/>
      <point x="218" y="-10" type="curve" smooth="yes"/>
      <point x="282" y="-10"/>
      <point x="328" y="27"/>
      <point x="364" y="86" type="curve"/>
      <point x="366" y="86" type="line"/>
      <point x="367" y="29"/>
      <point x="395" y="-10"/>
      <point x="447" y="-10" type="curve" smooth="yes"/>
      <point x="498" y="-10"/>
      <point x="536" y="18"/>
      <point x="563" y="36" type="curve"/>
      <point x="558" y="45" type="line"/>
      <point x="541" y="34"/>
      <point x="518" y="23"/>
      <point x="501" y="23" type="curve" smooth="yes"/>
      <point x="475" y="23"/>
      <point x="462" y="46"/>
      <point x="462" y="80" type="curve" smooth="yes"/>
      <point x="462" y="103"/>
      <point x="468" y="136"/>
      <point x="474" y="162" type="curve" smooth="yes"/>
      <point x="554" y="536" type="line"/>
      <point x="460" y="536" type="line"/>
      <point x="379" y="152" type="line" smooth="yes"/>
      <point x="366" y="89"/>
      <point x="308" y="5"/>
      <point x="236" y="5" type="curve" smooth="yes"/>
      <point x="186" y="5"/>
      <point x="168" y="47"/>
      <point x="168" y="115" type="curve" smooth="yes"/>
      <point x="168" y="153"/>
      <point x="178" y="200"/>
      <point x="186" y="238" type="curve" smooth="yes"/>
      <point x="250" y="536" type="line"/>
      <point x="156" y="536" type="line"/>
      <point x="89" y="225" type="line" smooth="yes"/>
      <point x="46" y="25"/>
      <point x="-2" y="-88"/>
      <point x="-2" y="-168" type="curve" smooth="yes"/>
      <point x="-2" y="-222"/>
      <point x="25" y="-240"/>
    </contour>
  </outline>
</glyph>
<glyph name="paragraph" format="2">
  <advance width="617"/>
  <unicode hex="00B6"/>
  <outline>
    <contour>
      <point x="177" y="-111" type="line"/>
      <point x="333" y="-111" type="line"/>
      <point x="333" y="750" type="line"/>
      <point x="428" y="750" type="line"/>
      <point x="428" y="-111" type="line"/>
      <point x="584" y="-111" type="line"/>
      <point x="584" y="-101" type="line"/>
      <point x="571" y="-101" type="line" smooth="yes"/>
      <point x="526" y="-101"/>
      <point x="489" y="-92"/>
      <point x="489" y="-29" type="curve" smooth="yes"/>
      <point x="489" y="678" type="line" smooth="yes"/>
      <point x="489" y="741"/>
      <point x="526" y="750"/>
      <point x="571" y="750" type="curve" smooth="yes"/>
      <point x="584" y="750" type="line"/>
      <point x="584" y="760" type="line"/>
      <point x="203" y="760" type="line" smooth="yes"/>
      <point x="90" y="760"/>
      <point x="48" y="689"/>
      <point x="48" y="582" type="curve" smooth="yes"/>
      <point x="48" y="478"/>
      <point x="84" y="386"/>
      <point x="201" y="386" type="curve" smooth="yes"/>
      <point x="272" y="386" type="line"/>
      <point x="272" y="-29" type="line" smooth="yes"/>
      <point x="272" y="-92"/>
      <point x="235" y="-101"/>
      <point x="190" y="-101" type="curve" smooth="yes"/>
      <point x="177" y="-101" type="line"/>
    </contour>
  </outline>
</glyph>
<glyph name="periodcentered" format="2">
  <advance width="286"/>
  <unicode hex="00B7"/>
  <outline>
    <contour>
      <point x="149" y="287" type="curve" smooth="yes"/>
      <point x="196" y="287"/>
      <point x="218" y="330"/>
      <point x="218" y="377" type="curve" smooth="yes"/>
      <point x="218" y="412"/>
      <point x="200" y="425"/>
      <point x="173" y="425" type="curve" smooth="yes"/>
      <point x="129" y="425"/>
      <point x="104" y="381"/>
      <point x="104" y="334" type="curve" smooth="yes"/>
      <point x="104" y="300"/>
      <point x="121" y="287"/>
    </contour>
  </outline>
</glyph>
<glyph name="cedilla" format="2">
  <advance width="333"/>
  <unicode hex="00B8"/>
  <outline>
    <contour>
      <point x="113" y="-240" type="curve" smooth="yes"/>
      <point x="201" y="-240"/>
      <point x="269" y="-202"/>
      <point x="269" y="-127" type="curve" smooth="yes"/>
      <point x="269" y="-83"/>
      <point x="231" y="-57"/>
      <point x="168" y="-45" type="curve"/>
      <point x="188" y="0" type="line"/>
      <point x="178" y="0" type="line"/>
      <point x="151" y="-59" type="line"/>
      <point x="177" y="-67"/>
      <point x="188" y="-84"/>
      <point x="188" y="-116" type="curve" smooth="yes"/>
      <point x="188" y="-171"/>
      <point x="158" y="-226"/>
      <point x="91" y="-226" type="curve" smooth="yes"/>
      <point x="74" y="-226"/>
      <point x="57" y="-223"/>
      <point x="41" y="-218" type="curve"/>
      <point x="38" y="-229" type="line"/>
      <point x="57" y="-235"/>
      <point x="78" y="-240"/>
    </contour>
  </outline>
</glyph>
<glyph name="onesuperior" format="2">
  <advance width="400"/>
  <unicode hex="00B9"/>
  <outline>
    <contour>
      <point x="99" y="387" type="line"/>
      <point x="364" y="387" type="line"/>
      <point x="366" y="397" type="line"/>
      <point x="320" y="397" type="line" smooth="yes"/>
      <point x="301" y="397"/>
      <point x="285" y="400"/>
      <point x="285" y="422" type="curve" smooth="yes"/>
      <point x="285" y="432"/>
      <point x="289" y="449"/>
      <point x="292" y="464" type="curve" smooth="yes"/>
      <point x="367" y="819" type="line"/>
      <point x="327" y="819" type="line"/>
      <point x="236" y="756"/>
      <point x="201" y="744"/>
      <point x="141" y="744" type="curve"/>
      <point x="140" y="720"/>
      <point x="151" y="703"/>
      <point x="173" y="703" type="curve" smooth="yes"/>
      <point x="206" y="703"/>
      <point x="223" y="721"/>
      <point x="266" y="771" type="curve"/>
      <point x="267" y="771" type="line"/>
      <point x="196" y="435" type="line" smooth="yes"/>
      <point x="189" y="401"/>
      <point x="170" y="397"/>
      <point x="147" y="397" type="curve" smooth="yes"/>
      <point x="101" y="397" type="line"/>
    </contour>
  </outline>
</glyph>
<glyph name="ordmasculine" format="2">
  <advance width="394"/>
  <unicode hex="00BA"/>
  <anchor x="217" y="388" name="bottom"/>
  <anchor x="293" y="724" name="top"/>
  <outline>
    <contour>
      <point x="226" y="381" type="curve" smooth="yes"/>
      <point x="366" y="381"/>
      <point x="429" y="510"/>
      <point x="429" y="594" type="curve" smooth="yes"/>
      <point x="429" y="679"/>
      <point x="368" y="717"/>
      <point x="293" y="717" type="curve" smooth="yes"/>
      <point x="158" y="717"/>
      <point x="88" y="596"/>
      <point x="88" y="506" type="curve" smooth="yes"/>
      <point x="88" y="425"/>
      <point x="143" y="381"/>
    </contour>
    <contour>
      <point x="226" y="391" type="curve" smooth="yes"/>
      <point x="185" y="391"/>
      <point x="176" y="426"/>
      <point x="176" y="495" type="curve" smooth="yes"/>
      <point x="176" y="578"/>
      <point x="203" y="707"/>
      <point x="286" y="707" type="curve" smooth="yes"/>
      <point x="328" y="707"/>
      <point x="335" y="673"/>
      <point x="335" y="606" type="curve" smooth="yes"/>
      <point x="335" y="527"/>
      <point x="313" y="391"/>
    </contour>
  </outline>
</glyph>
<glyph name="AE" format="2">
  <advance width="943"/>
  <unicode hex="00C6"/>
  <anchor x="415" y="0" name="bottom"/>
  <anchor x="607" y="714" name="top"/>
  <outline>
    <contour>
      <point x="-62" y="0" type="line"/>
      <point x="184" y="0" type="line"/>
      <point x="186" y="10" type="line"/>
      <point x="112" y="10" type="line" smooth="yes"/>
      <point x="74" y="10"/>
      <point x="61" y="20"/>
      <point x="61" y="43" type="curve" smooth="yes"/>
      <point x="61" y="59"/>
      <point x="71" y="79"/>
      <point x="88" y="102" type="curve" smooth="yes"/>
      <point x="204" y="259" type="line"/>
      <point x="453" y="259" type="line"/>
      <point x="415" y="77" type="line" smooth="yes"/>
      <point x="403" y="18"/>
      <point x="362" y="10"/>
      <point x="318" y="10" type="curve" smooth="yes"/>
      <point x="305" y="10" type="line"/>
      <point x="303" y="0" type="line"/>
      <point x="839" y="0" type="line"/>
      <point x="883" y="175" type="line"/>
      <point x="873" y="175" type="line"/>
      <point x="859" y="132" type="line" smooth="yes"/>
      <point x="837" y="66"/>
      <point x="796" y="10"/>
      <point x="694" y="10" type="curve" smooth="yes"/>
      <point x="501" y="10" type="line"/>
      <point x="577" y="370" type="line"/>
      <point x="828" y="370" type="line"/>
      <point x="830" y="380" type="line"/>
      <point x="579" y="380" type="line"/>
      <point x="648" y="704" type="line"/>
      <point x="816" y="704" type="line" smooth="yes"/>
      <point x="911" y="704"/>
      <point x="922" y="656"/>
      <point x="922" y="597" type="curve" smooth="yes"/>
      <point x="922" y="585"/>
      <point x="917" y="548"/>
      <point x="916" y="539" type="curve"/>
      <point x="926" y="539" type="line"/>
      <point x="958" y="714" type="line"/>
      <point x="392" y="714" type="line"/>
      <point x="390" y="704" type="line"/>
      <point x="520" y="704" type="line"/>
      <point x="64" y="88" type="line" smooth="yes"/>
      <point x="17" y="24"/>
      <point x="-1" y="10"/>
      <point x="-39" y="10" type="curve" smooth="yes"/>
      <point x="-60" y="10" type="line"/>
    </contour>
    <contour>
      <point x="212" y="269" type="line"/>
      <point x="363" y="473" type="line" smooth="yes"/>
      <point x="425" y="556"/>
      <point x="489" y="646"/>
      <point x="530" y="704" type="curve"/>
      <point x="546" y="704" type="line"/>
      <point x="455" y="269" type="line"/>
    </contour>
  </outline>
</glyph>
<glyph name="Eth" format="2">
  <advance width="725"/>
  <unicode hex="00D0"/>
  <anchor x="306" y="0" name="bottom"/>
  <anchor x="458" y="714" name="top"/>
  <anchor x="403" y="357" name="center"/>
  <anchor x="802" y="714" name="topright"/>
  <outline>
    <contour>
      <point x="56" y="370" type="line"/>
      <point x="422" y="370" type="line"/>
      <point x="424" y="380" type="line"/>
      <point x="58" y="380" type="line"/>
    </contour>
    <component base="D"/>
  </outline>
</glyph>
<glyph name="Oslash" format="2">
  <advance width="742"/>
  <unicode hex="00D8"/>
  <anchor x="314" y="0" name="bottom"/>
  <anchor x="466" y="714" name="top"/>
  <anchor x="418" y="357" name="center"/>
  <anchor x="826" y="714" name="topright"/>
  <outline>
    <contour>
      <point x="92" y="-40" type="line"/>
      <point x="104" y="-40" type="line"/>
      <point x="682" y="755" type="line"/>
      <point x="670" y="755" type="line"/>
    </contour>
    <component base="O"/>
  </outline>
</glyph>
<glyph name="Thorn" format="2">
  <advance width="604"/>
  <unicode hex="00DE"/>
  <anchor x="245" y="0" name="bottom"/>
  <anchor x="397" y="714" name="top"/>
  <outline>
    <contour>
      <point x="-20" y="0" type="line"/>
      <point x="280" y="0" type="line"/>
      <point x="282" y="10" type="line"/>
      <point x="259" y="10" type="line" smooth="yes"/>
      <point x="217" y="10"/>
      <point x="187" y="16"/>
      <point x="187" y="50" type="curve" smooth="yes"/>
      <point x="187" y="56"/>
      <point x="189" y="70"/>
      <point x="191" y="78" type="curve" smooth="yes"/>
      <point x="207" y="154" type="line"/>
      <point x="281" y="154" type="line" smooth="yes"/>
      <point x="528" y="154"/>
      <point x="587" y="302"/>
      <point x="587" y="403" type="curve" smooth="yes"/>
      <point x="587" y="530"/>
      <point x="499" y="590"/>
      <point x="359" y="590" type="curve" smooth="yes"/>
      <point x="300" y="590" type="line"/>
      <point x="309" y="632" type="line" smooth="yes"/>
      <point x="322" y="695"/>
      <point x="361" y="704"/>
      <point x="406" y="704" type="curve" smooth="yes"/>
      <point x="429" y="704" type="line"/>
      <point x="431" y="714" type="line"/>
      <point x="130" y="714" type="line"/>
      <point x="128" y="704" type="line"/>
      <point x="141" y="704" type="line" smooth="yes"/>
      <point x="183" y="704"/>
      <point x="213" y="698"/>
      <point x="213" y="664" type="curve" smooth="yes"/>
      <point x="213" y="658"/>
      <point x="211" y="644"/>
      <point x="209" y="636" type="curve" smooth="yes"/>
      <point x="91" y="82" type="line" smooth="yes"/>
      <point x="78" y="19"/>
      <point x="39" y="10"/>
      <point x="-5" y="10" type="curve" smooth="yes"/>
      <point x="-18" y="10" type="line"/>
    </contour>
    <contour>
      <point x="262" y="164" type="curve" smooth="yes"/>
      <point x="209" y="164" type="line"/>
      <point x="297" y="580" type="line"/>
      <point x="343" y="580" type="line" smooth="yes"/>
      <point x="431" y="580"/>
      <point x="481" y="534"/>
      <point x="481" y="402" type="curve" smooth="yes"/>
      <point x="481" y="296"/>
      <point x="424" y="164"/>
    </contour>
  </outline>
</glyph>
<glyph name="germandbls" format="2">
  <advance width="627"/>
  <unicode hex="00DF"/>
  <anchor x="374" y="-10" name="bottom"/>
  <anchor x="420" y="765" name="top"/>
  <outline>
    <contour>
      <point x="-78" y="-240" type="curve" smooth="yes"/>
      <point x="30" y="-240"/>
      <point x="101" y="-186"/>
      <point x="139" y="-8" type="curve" smooth="yes"/>
      <point x="265" y="580" type="line" smooth="yes"/>
      <point x="285" y="689"/>
      <point x="331" y="755"/>
      <point x="412" y="755" type="curve" smooth="yes"/>
      <point x="489" y="755"/>
      <point x="513" y="702"/>
      <point x="513" y="621" type="curve" smooth="yes"/>
      <point x="513" y="598"/>
      <point x="509" y="570"/>
      <point x="502" y="538" type="curve"/>
      <point x="373" y="538"/>
      <point x="303" y="490"/>
      <point x="303" y="388" type="curve" smooth="yes"/>
      <point x="303" y="324"/>
      <point x="342" y="283"/>
      <point x="403" y="245" type="curve" smooth="yes"/>
      <point x="468" y="205"/>
      <point x="481" y="169"/>
      <point x="481" y="117" type="curve" smooth="yes"/>
      <point x="481" y="48"/>
      <point x="447" y="0"/>
      <point x="376" y="0" type="curve" smooth="yes"/>
      <point x="296" y="0"/>
      <point x="291" y="82"/>
      <point x="291" y="157" type="curve"/>
      <point x="253" y="157"/>
      <point x="223" y="132"/>
      <point x="223" y="91" type="curve" smooth="yes"/>
      <point x="223" y="28"/>
      <point x="279" y="-10"/>
      <point x="374" y="-10" type="curve" smooth="yes"/>
      <point x="498" y="-10"/>
      <point x="567" y="51"/>
      <point x="567" y="156" type="curve" smooth="yes"/>
      <point x="567" y="218"/>
      <point x="538" y="267"/>
      <point x="473" y="306" type="curve" smooth="yes"/>
      <point x="406" y="346"/>
      <point x="388" y="371"/>
      <point x="388" y="417" type="curve" smooth="yes"/>
      <point x="388" y="482"/>
      <point x="426" y="528"/>
      <point x="507" y="528" type="curve" smooth="yes"/>
      <point x="593" y="528" type="line"/>
      <point x="598" y="558"/>
      <point x="600" y="589"/>
      <point x="600" y="612" type="curve" smooth="yes"/>
      <point x="600" y="704"/>
      <point x="544" y="765"/>
      <point x="418" y="765" type="curve" smooth="yes"/>
      <point x="296" y="765"/>
      <point x="199" y="713"/>
      <point x="168" y="566" type="curve" smooth="yes"/>
      <point x="161" y="536" type="line"/>
      <point x="80" y="536" type="line"/>
      <point x="78" y="526" type="line"/>
      <point x="159" y="526" type="line"/>
      <point x="45" y="-9" type="line" smooth="yes"/>
      <point x="15" y="-168"/>
      <point x="-18" y="-229"/>
      <point x="-88" y="-229" type="curve" smooth="yes"/>
      <point x="-103" y="-229"/>
      <point x="-123" y="-225"/>
      <point x="-134" y="-222" type="curve"/>
      <point x="-136" y="-232" type="line"/>
      <point x="-123" y="-236"/>
      <point x="-98" y="-240"/>
    </contour>
  </outline>
</glyph>
<glyph name="ae" format="2">
  <advance width="813"/>
  <unicode hex="00E6"/>
  <anchor x="350" y="0" name="bottom"/>
  <anchor x="474" y="536" name="top"/>
  <anchor x="827" y="536" name="topright"/>
  <outline>
    <contour>
      <point x="194" y="-10" type="curve" smooth="yes"/>
      <point x="270" y="-10"/>
      <point x="324" y="30"/>
      <point x="366" y="147" type="curve"/>
      <point x="367" y="147" type="line"/>
      <point x="390" y="36"/>
      <point x="461" y="-10"/>
      <point x="558" y="-10" type="curve" smooth="yes"/>
      <point x="678" y="-10"/>
      <point x="731" y="56"/>
      <point x="731" y="100" type="curve" smooth="yes"/>
      <point x="731" y="111"/>
      <point x="725" y="121"/>
      <point x="717" y="125" type="curve"/>
      <point x="687" y="53"/>
      <point x="640" y="0"/>
      <point x="562" y="0" type="curve" smooth="yes"/>
      <point x="490" y="0"/>
      <point x="467" y="69"/>
      <point x="467" y="189" type="curve" smooth="yes"/>
      <point x="467" y="208"/>
      <point x="469" y="232"/>
      <point x="472" y="249" type="curve"/>
      <point x="505" y="249" type="line" smooth="yes"/>
      <point x="672" y="249"/>
      <point x="794" y="335"/>
      <point x="794" y="431" type="curve" smooth="yes"/>
      <point x="794" y="505"/>
      <point x="745" y="546"/>
      <point x="661" y="546" type="curve" smooth="yes"/>
      <point x="589" y="546"/>
      <point x="527" y="519"/>
      <point x="479" y="475" type="curve"/>
      <point x="428" y="534"/>
      <point x="385" y="546"/>
      <point x="335" y="546" type="curve" smooth="yes"/>
      <point x="132" y="546"/>
      <point x="43" y="333"/>
      <point x="43" y="189" type="curve" smooth="yes"/>
      <point x="43" y="53"/>
      <point x="111" y="-10"/>
    </contour>
    <contour>
      <point x="233" y="8" type="curve" smooth="yes"/>
      <point x="176" y="8"/>
      <point x="145" y="62"/>
      <point x="145" y="178" type="curve" smooth="yes"/>
      <point x="145" y="299"/>
      <point x="217" y="528"/>
      <point x="359" y="528" type="curve" smooth="yes"/>
      <point x="397" y="528"/>
      <point x="431" y="515"/>
      <point x="472" y="469" type="curve"/>
      <point x="411" y="413"/>
      <point x="364" y="316"/>
      <point x="364" y="210" type="curve" smooth="yes"/>
      <point x="364" y="198"/>
      <point x="364" y="183"/>
      <point x="364" y="173" type="curve"/>
      <point x="331" y="59"/>
      <point x="279" y="8"/>
    </contour>
    <contour>
      <point x="473" y="259" type="line"/>
      <point x="487" y="388"/>
      <point x="553" y="536"/>
      <point x="640" y="536" type="curve" smooth="yes"/>
      <point x="678" y="536"/>
      <point x="691" y="501"/>
      <point x="691" y="447" type="curve" smooth="yes"/>
      <point x="691" y="328"/>
      <point x="601" y="259"/>
      <point x="484" y="259" type="curve" smooth="yes"/>
    </contour>
  </outline>
</glyph>
<glyph name="thorn" format="2">
  <advance width="562"/>
  <unicode hex="00FE"/>
  <anchor x="173" y="-240" name="bottom"/>
  <anchor x="386" y="760" name="top"/>
  <outline>
    <contour>
      <point x="165" y="650" type="curve" smooth="yes"/>
      <point x="-23" y="-240" type="line"/>
      <point x="165" y="-240" type="line"/>
      <point x="167" y="-230" type="line"/>
      <point x="154" y="-230" type="line" smooth="yes"/>
      <point x="116" y="-230"/>
      <point x="84" y="-224"/>
      <point x="84" y="-184" type="curve" smooth="yes"/>
      <point x="84" y="-169"/>
      <point x="91" y="-136"/>
      <point x="93" y="-128" type="curve" smooth="yes"/>
      <point x="114" y="-35" type="line" smooth="yes"/>
      <point x="119" y="-13"/>
      <point x="121" y="-1"/>
      <point x="126" y="19" type="curve"/>
      <point x="154" y="0"/>
      <point x="181" y="-10"/>
      <point x="220" y="-10" type="curve" smooth="yes"/>
      <point x="420" y="-10"/>
      <point x="518" y="221"/>
      <point x="518" y="365" type="curve" smooth="yes"/>
      <point x="518" y="482"/>
      <point x="472" y="546"/>
      <point x="391" y="546" type="curve" smooth="yes"/>
      <point x="301" y="546"/>
      <point x="246" y="481"/>
      <point x="205" y="403" type="curve"/>
      <point x="203" y="403" type="line"/>
      <point x="210" y="433"/>
      <point x="219" y="464"/>
      <point x="225" y="494" type="curve" smooth="yes"/>
      <point x="282" y="760" type="line"/>
      <point x="98" y="760" type="line"/>
      <point x="96" y="750" type="line"/>
      <point x="104" y="750" type="line" smooth="yes"/>
      <point x="142" y="750"/>
      <point x="174" y="743"/>
      <point x="174" y="703" type="curve" smooth="yes"/>
      <point x="174" y="697"/>
      <point x="171" y="677"/>
    </contour>
    <contour>
      <point x="217" y="1" type="curve" smooth="yes"/>
      <point x="170" y="1"/>
      <point x="145" y="19"/>
      <point x="129" y="30" type="curve"/>
      <point x="197" y="349" type="line" smooth="yes"/>
      <point x="209" y="402"/>
      <point x="273" y="516"/>
      <point x="346" y="516" type="curve" smooth="yes"/>
      <point x="405" y="516"/>
      <point x="416" y="440"/>
      <point x="416" y="366" type="curve" smooth="yes"/>
      <point x="416" y="230"/>
      <point x="344" y="1"/>
    </contour>
  </outline>
</glyph>
<glyph name="dcroat" format="2">
  <advance width="580"/>
  <unicode hex="0111"/>
  <anchor x="232" y="0" name="bottom"/>
  <anchor x="394" y="760" name="top"/>
  <anchor x="337" y="268" name="center"/>
  <anchor x="619" y="760" name="topright"/>
  <outline>
    <contour>
      <point x="288" y="630" type="line"/>
      <point x="644" y="630" type="line"/>
      <point x="646" y="640" type="line"/>
      <point x="290" y="640" type="line"/>
    </contour>
    <component base="d"/>
  </outline>
</glyph>
<glyph name="Hbar" format="2">
  <advance width="793"/>
  <unicode hex="0126"/>
  <anchor x="340" y="0" name="bottom"/>
  <anchor x="492" y="714" name="top"/>
  <anchor x="442" y="357" name="center"/>
  <anchor x="875" y="714" name="topright"/>
  <outline>
    <contour>
      <point x="89" y="520" type="line"/>
      <point x="806" y="520" type="line"/>
      <point x="808" y="530" type="line"/>
      <point x="91" y="530" type="line"/>
    </contour>
    <component base="H"/>
  </outline>
</glyph>
<glyph name="hbar" format="2">
  <advance width="599"/>
  <unicode hex="0127"/>
  <anchor x="243" y="0" name="bottom"/>
  <anchor x="405" y="760" name="top"/>
  <anchor x="353" y="268" name="center"/>
  <anchor x="590" y="760" name="topright"/>
  <outline>
    <contour>
      <point x="82" y="613" type="line"/>
      <point x="438" y="613" type="line"/>
      <point x="440" y="623" type="line"/>
      <point x="84" y="623" type="line"/>
    </contour>
    <component base="h"/>
  </outline>
</glyph>
<glyph name="idotless" format="2">
  <advance width="300"/>
  <unicode hex="0131"/>
  <anchor x="102" y="0" name="bottom"/>
  <anchor x="189" y="536" name="top"/>
  <anchor x="332" y="714" name="topright"/>
  <outline>
    <contour>
      <point x="155" y="-10" type="curve" smooth="yes"/>
      <point x="205" y="-10"/>
      <point x="261" y="24"/>
      <point x="290" y="50" type="curve"/>
      <point x="284" y="58" type="line"/>
      <point x="260" y="42"/>
      <point x="239" y="31"/>
      <point x="210" y="31" type="curve" smooth="yes"/>
      <point x="180" y="31"/>
      <point x="167" y="55"/>
      <point x="167" y="104" type="curve" smooth="yes"/>
      <point x="167" y="131"/>
      <point x="177" y="193"/>
      <point x="182" y="215" type="curve" smooth="yes"/>
      <point x="250" y="536" type="line"/>
      <point x="71" y="536" type="line"/>
      <point x="69" y="526" type="line"/>
      <point x="82" y="526" type="line" smooth="yes"/>
      <point x="123" y="526"/>
      <point x="143" y="517"/>
      <point x="143" y="484" type="curve" smooth="yes"/>
      <point x="143" y="477"/>
      <point x="142" y="468"/>
      <point x="140" y="458" type="curve" smooth="yes"/>
      <point x="94" y="242" type="line" smooth="yes"/>
      <point x="86" y="203"/>
      <point x="72" y="136"/>
      <point x="72" y="93" type="curve" smooth="yes"/>
      <point x="72" y="33"/>
      <point x="102" y="-10"/>
    </contour>
  </outline>
</glyph>
<glyph name="kgreenlandic" format="2">
  <advance width="580"/>
  <unicode hex="0138"/>
  <anchor x="260" y="0" name="bottom"/>
  <anchor x="342" y="536" name="top"/>
  <outline>
    <contour>
      <point x="515" y="-7" type="curve" smooth="yes"/>
      <point x="522" y="-7" type="line"/>
      <point x="524" y="3" type="line"/>
      <point x="484" y="3"/>
      <point x="458" y="55"/>
      <point x="425" y="119" type="curve" smooth="yes"/>
      <point x="315" y="336" type="line"/>
      <point x="276" y="297" type="line"/>
      <point x="420" y="421" type="line" smooth="yes"/>
      <point x="490" y="481"/>
      <point x="544" y="526"/>
      <point x="597" y="526" type="curve"/>
      <point x="599" y="536" type="line"/>
      <point x="378" y="536" type="line"/>
      <point x="376" y="526" type="line"/>
      <point x="447" y="526"/>
      <point x="464" y="515"/>
      <point x="464" y="498" type="curve" smooth="yes"/>
      <point x="464" y="475"/>
      <point x="448" y="459"/>
      <point x="391" y="410" type="curve" smooth="yes"/>
      <point x="185" y="232" type="line"/>
      <point x="197" y="280"/>
      <point x="204" y="314"/>
      <point x="212" y="352" type="curve" smooth="yes"/>
      <point x="251" y="536" type="line"/>
      <point x="67" y="536" type="line"/>
      <point x="65" y="526" type="line"/>
      <point x="73" y="526" type="line" smooth="yes"/>
      <point x="111" y="526"/>
      <point x="143" y="519"/>
      <point x="143" y="479" type="curve" smooth="yes"/>
      <point x="143" y="470"/>
      <point x="140" y="453"/>
      <point x="134" y="426" type="curve" smooth="yes"/>
      <point x="44" y="0" type="line"/>
      <point x="137" y="0" type="line"/>
      <point x="182" y="216" type="line"/>
      <point x="266" y="288" type="line"/>
      <point x="248" y="276" type="line"/>
      <point x="335" y="95" type="line" smooth="yes"/>
      <point x="375" y="12"/>
      <point x="406" y="-6"/>
    </contour>
  </outline>
</glyph>
<glyph name="Lslash" format="2">
  <advance width="623"/>
  <unicode hex="0141"/>
  <anchor x="255" y="0" name="bottom"/>
  <anchor x="407" y="714" name="top"/>
  <anchor x="352" y="357" name="center"/>
  <anchor x="589" y="714" name="topright"/>
  <outline>
    <contour>
      <point x="31" y="252" type="line"/>
      <point x="426" y="456" type="line"/>
      <point x="428" y="466" type="line"/>
      <point x="33" y="262" type="line"/>
    </contour>
    <component base="L"/>
  </outline>
</glyph>
<glyph name="Eng" format="2">
  <advance width="763"/>
  <unicode hex="014A"/>
  <anchor x="274" y="-240" name="bottom"/>
  <anchor x="477" y="714" name="top"/>
  <outline>
    <contour>
      <point x="353" y="-240" type="curve" smooth="yes"/>
      <point x="460" y="-240"/>
      <point x="523" y="-179"/>
      <point x="559" y="-8" type="curve" smooth="yes"/>
      <point x="695" y="632" type="line"/>
      <point x="709" y="698"/>
      <point x="758" y="704"/>
      <point x="812" y="704" type="curve" smooth="yes"/>
      <point x="825" y="704" type="line"/>
      <point x="827" y="714" type="line"/>
      <point x="576" y="714" type="line"/>
      <point x="574" y="704" type="line"/>
      <point x="587" y="704" type="line" smooth="yes"/>
      <point x="647" y="704"/>
      <point x="690" y="698"/>
      <point x="690" y="664" type="curve" smooth="yes"/>
      <point x="690" y="658"/>
      <point x="688" y="645"/>
      <point x="686" y="636" type="curve" smooth="yes"/>
      <point x="586" y="165" type="line"/>
      <point x="325" y="714" type="line"/>
      <point x="130" y="714" type="line"/>
      <point x="128" y="704" type="line"/>
      <point x="141" y="704" type="line" smooth="yes"/>
      <point x="195" y="704"/>
      <point x="233" y="698"/>
      <point x="233" y="664" type="curve" smooth="yes"/>
      <point x="233" y="658"/>
      <point x="231" y="644"/>
      <point x="229" y="636" type="curve"/>
      <point x="111" y="82" type="line" smooth="yes"/>
      <point x="97" y="17"/>
      <point x="51" y="10"/>
      <point x="-5" y="10" type="curve" smooth="yes"/>
      <point x="-18" y="10" type="line"/>
      <point x="-20" y="0" type="line"/>
      <point x="230" y="0" type="line"/>
      <point x="232" y="10" type="line"/>
      <point x="219" y="10" type="line" smooth="yes"/>
      <point x="159" y="10"/>
      <point x="116" y="16"/>
      <point x="116" y="50" type="curve" smooth="yes"/>
      <point x="116" y="56"/>
      <point x="118" y="70"/>
      <point x="120" y="78" type="curve" smooth="yes"/>
      <point x="243" y="652" type="line"/>
      <point x="551" y="0" type="line"/>
      <point x="519" y="-145"/>
      <point x="443" y="-228"/>
      <point x="346" y="-228" type="curve" smooth="yes"/>
      <point x="321" y="-228"/>
      <point x="302" y="-225"/>
      <point x="285" y="-219" type="curve"/>
      <point x="282" y="-229" type="line"/>
      <point x="302" y="-236"/>
      <point x="329" y="-240"/>
    </contour>
  </outline>
</glyph>
<glyph name="eng" format="2">
  <advance width="562"/>
  <unicode hex="014B"/>
  <anchor x="173" y="-240" name="bottom"/>
  <anchor x="338" y="536" name="top"/>
  <anchor x="638" y="536" name="topright"/>
  <outline>
    <contour>
      <point x="215" y="-240" type="curve" smooth="yes"/>
      <point x="323" y="-240"/>
      <point x="395" y="-186"/>
      <point x="433" y="-8" type="curve" smooth="yes"/>
      <point x="504" y="324" type="line" smooth="yes"/>
      <point x="511" y="358"/>
      <point x="522" y="401"/>
      <point x="522" y="434" type="curve" smooth="yes"/>
      <point x="522" y="493"/>
      <point x="494" y="545"/>
      <point x="415" y="545" type="curve" smooth="yes"/>
      <point x="338" y="545"/>
      <point x="281" y="498"/>
      <point x="225" y="410" type="curve"/>
      <point x="223" y="410" type="line"/>
      <point x="250" y="536" type="line"/>
      <point x="65" y="536" type="line"/>
      <point x="63" y="526" type="line"/>
      <point x="71" y="526" type="line" smooth="yes"/>
      <point x="109" y="526"/>
      <point x="141" y="519"/>
      <point x="141" y="479" type="curve" smooth="yes"/>
      <point x="141" y="473"/>
      <point x="139" y="453"/>
      <point x="135" y="434" type="curve" smooth="yes"/>
      <point x="44" y="0" type="line"/>
      <point x="137" y="0" type="line"/>
      <point x="215" y="364" type="line" smooth="yes"/>
      <point x="221" y="396"/>
      <point x="293" y="512"/>
      <point x="364" y="512" type="curve" smooth="yes"/>
      <point x="418" y="512"/>
      <point x="426" y="462"/>
      <point x="426" y="429" type="curve" smooth="yes"/>
      <point x="426" y="387"/>
      <point x="411" y="330"/>
      <point x="405" y="303" type="curve" smooth="yes"/>
      <point x="339" y="-8" type="line" smooth="yes"/>
      <point x="309" y="-167"/>
      <point x="274" y="-229"/>
      <point x="205" y="-229" type="curve" smooth="yes"/>
      <point x="190" y="-229"/>
      <point x="170" y="-225"/>
      <point x="159" y="-222" type="curve"/>
      <point x="157" y="-232" type="line"/>
      <point x="170" y="-236"/>
      <point x="195" y="-240"/>
    </contour>
  </outline>
</glyph>
<glyph name="OE" format="2">
  <advance width="967"/>
  <unicode hex="0152"/>
  <anchor x="433" y="0" name="bottom"/>
  <anchor x="585" y="714" name="top"/>
  <outline>
    <contour>
      <point x="323" y="-11" type="curve" smooth="yes"/>
      <point x="354" y="-11"/>
      <point x="405" y="-7"/>
      <point x="433" y="0" type="curve"/>
      <point x="863" y="0" type="line"/>
      <point x="907" y="175" type="line"/>
      <point x="897" y="175" type="line"/>
      <point x="883" y="132" type="line" smooth="yes"/>
      <point x="856" y="55"/>
      <point x="828" y="10"/>
      <point x="730" y="10" type="curve" smooth="yes"/>
      <point x="525" y="10" type="line"/>
      <point x="601" y="369" type="line"/>
      <point x="842" y="369" type="line"/>
      <point x="844" y="379" type="line"/>
      <point x="603" y="379" type="line"/>
      <point x="672" y="704" type="line"/>
      <point x="855" y="704" type="line" smooth="yes"/>
      <point x="943" y="704"/>
      <point x="946" y="656"/>
      <point x="946" y="597" type="curve" smooth="yes"/>
      <point x="946" y="586"/>
      <point x="941" y="548"/>
      <point x="940" y="539" type="curve"/>
      <point x="950" y="539" type="line"/>
      <point x="982" y="714" type="line"/>
      <point x="567" y="714" type="line"/>
      <point x="535" y="720"/>
      <point x="496" y="725"/>
      <point x="461" y="725" type="curve" smooth="yes"/>
      <point x="196" y="725"/>
      <point x="61" y="458"/>
      <point x="61" y="266" type="curve" smooth="yes"/>
      <point x="61" y="85"/>
      <point x="175" y="-11"/>
    </contour>
    <contour>
      <point x="323" y="-1" type="curve" smooth="yes"/>
      <point x="238" y="-1"/>
      <point x="170" y="70"/>
      <point x="170" y="238" type="curve" smooth="yes"/>
      <point x="170" y="416"/>
      <point x="261" y="715"/>
      <point x="460" y="715" type="curve" smooth="yes"/>
      <point x="516" y="715"/>
      <point x="549" y="704"/>
      <point x="570" y="697" type="curve"/>
      <point x="426" y="15" type="line"/>
      <point x="403" y="6"/>
      <point x="361" y="-1"/>
    </contour>
  </outline>
</glyph>
<glyph name="oe" format="2">
  <advance width="850"/>
  <unicode hex="0153"/>
  <anchor x="420" y="0" name="bottom"/>
  <anchor x="494" y="536" name="top"/>
  <outline>
    <contour>
      <point x="230" y="-10" type="curve" smooth="yes"/>
      <point x="319" y="-10"/>
      <point x="387" y="30"/>
      <point x="435" y="86" type="curve"/>
      <point x="469" y="22"/>
      <point x="532" y="-10"/>
      <point x="604" y="-10" type="curve" smooth="yes"/>
      <point x="724" y="-10"/>
      <point x="777" y="56"/>
      <point x="777" y="95" type="curve" smooth="yes"/>
      <point x="777" y="111"/>
      <point x="769" y="121"/>
      <point x="756" y="125" type="curve"/>
      <point x="732" y="51"/>
      <point x="689" y="0"/>
      <point x="613" y="0" type="curve" smooth="yes"/>
      <point x="548" y="0"/>
      <point x="513" y="69"/>
      <point x="513" y="189" type="curve" smooth="yes"/>
      <point x="513" y="207"/>
      <point x="515" y="230"/>
      <point x="518" y="248" type="curve"/>
      <point x="530" y="248"/>
      <point x="541" y="248"/>
      <point x="553" y="248" type="curve" smooth="yes"/>
      <point x="717" y="248"/>
      <point x="840" y="335"/>
      <point x="840" y="431" type="curve" smooth="yes"/>
      <point x="840" y="503"/>
      <point x="791" y="546"/>
      <point x="705" y="546" type="curve" smooth="yes"/>
      <point x="621" y="546"/>
      <point x="553" y="507"/>
      <point x="504" y="450" type="curve"/>
      <point x="472" y="517"/>
      <point x="409" y="546"/>
      <point x="336" y="546" type="curve" smooth="yes"/>
      <point x="133" y="546"/>
      <point x="38" y="345"/>
      <point x="38" y="197" type="curve" smooth="yes"/>
      <point x="38" y="58"/>
      <point x="117" y="-10"/>
    </contour>
    <contour>
      <point x="232" y="0" type="curve" smooth="yes"/>
      <point x="177" y="0"/>
      <point x="142" y="48"/>
      <point x="142" y="179" type="curve" smooth="yes"/>
      <point x="142" y="315"/>
      <point x="195" y="536"/>
      <point x="330" y="536" type="curve" smooth="yes"/>
      <point x="391" y="536"/>
      <point x="422" y="485"/>
      <point x="422" y="356" type="curve" smooth="yes"/>
      <point x="422" y="220"/>
      <point x="368" y="0"/>
    </contour>
    <contour>
      <point x="547" y="258" type="curve" smooth="yes"/>
      <point x="520" y="258" type="line"/>
      <point x="543" y="387"/>
      <point x="603" y="535"/>
      <point x="683" y="535" type="curve" smooth="yes"/>
      <point x="717" y="535"/>
      <point x="737" y="501"/>
      <point x="737" y="438" type="curve" smooth="yes"/>
      <point x="737" y="328"/>
      <point x="665" y="258"/>
    </contour>
  </outline>
</glyph>
<glyph name="Tbar" format="2">
  <advance width="613"/>
  <unicode hex="0166"/>
  <anchor x="250" y="0" name="bottom"/>
  <anchor x="402" y="714" name="top"/>
  <anchor x="327" y="357" name="center"/>
  <anchor x="690" y="714" name="topright"/>
  <outline>
    <contour>
      <point x="105" y="348" type="line"/>
      <point x="542" y="348" type="line"/>
      <point x="544" y="358" type="line"/>
      <point x="107" y="358" type="line"/>
    </contour>
    <component base="T"/>
  </outline>
</glyph>
<glyph name="tbar" format="2">
  <advance width="368"/>
  <unicode hex="0167"/>
  <anchor x="127" y="0" name="bottom"/>
  <anchor x="267" y="659" name="top"/>
  <anchor x="241" y="268" name="center"/>
  <anchor x="427" y="659" name="topright"/>
  <outline>
    <contour>
      <point x="31" y="310" type="line"/>
      <point x="314" y="310" type="line"/>
      <point x="316" y="320" type="line"/>
      <point x="33" y="320" type="line"/>
    </contour>
    <component base="t"/>
  </outline>
</glyph>
<glyph name="Ohorn" format="2">
  <advance width="778"/>
  <unicode hex="01A0"/>
  <anchor x="332" y="0" name="bottom"/>
  <anchor x="484" y="714" name="top"/>
  <outline>
    <contour>
      <point x="314" y="-11" type="curve" smooth="yes"/>
      <point x="582" y="-11"/>
      <point x="711" y="266"/>
      <point x="711" y="450" type="curve" smooth="yes"/>
      <point x="711" y="490"/>
      <point x="706" y="526"/>
      <point x="696" y="557" type="curve"/>
      <point x="776" y="587"/>
      <point x="844" y="634"/>
      <point x="844" y="714" type="curve" smooth="yes"/>
      <point x="844" y="747"/>
      <point x="822" y="770"/>
      <point x="786" y="770" type="curve" smooth="yes"/>
      <point x="752" y="770"/>
      <point x="727" y="751"/>
      <point x="727" y="718" type="curve" smooth="yes"/>
      <point x="727" y="679"/>
      <point x="772" y="672"/>
      <point x="772" y="640" type="curve" smooth="yes"/>
      <point x="772" y="601"/>
      <point x="731" y="580"/>
      <point x="693" y="566" type="curve"/>
      <point x="649" y="681"/>
      <point x="554" y="725"/>
      <point x="452" y="725" type="curve" smooth="yes"/>
      <point x="187" y="725"/>
      <point x="52" y="458"/>
      <point x="52" y="266" type="curve" smooth="yes"/>
      <point x="52" y="85"/>
      <point x="166" y="-11"/>
    </contour>
    <contour>
      <point x="317" y="-1" type="curve" smooth="yes"/>
      <point x="218" y="-1"/>
      <point x="161" y="70"/>
      <point x="161" y="238" type="curve" smooth="yes"/>
      <point x="161" y="416"/>
      <point x="248" y="715"/>
      <point x="448" y="715" type="curve" smooth="yes"/>
      <point x="546" y="715"/>
      <point x="601" y="643"/>
      <point x="601" y="477" type="curve" smooth="yes"/>
      <point x="601" y="298"/>
      <point x="515" y="-1"/>
    </contour>
  </outline>
</glyph>
<glyph name="ohorn" format="2">
  <advance width="607"/>
  <unicode hex="01A1"/>
  <anchor x="247" y="0" name="bottom"/>
  <anchor x="361" y="536" name="top"/>
  <outline>
    <contour>
      <point x="235" y="-10" type="curve" smooth="yes"/>
      <point x="440" y="-10"/>
      <point x="531" y="197"/>
      <point x="531" y="339" type="curve" smooth="yes"/>
      <point x="531" y="368"/>
      <point x="528" y="394"/>
      <point x="522" y="417" type="curve"/>
      <point x="601" y="447"/>
      <point x="669" y="492"/>
      <point x="669" y="572" type="curve" smooth="yes"/>
      <point x="669" y="605"/>
      <point x="647" y="628"/>
      <point x="611" y="628" type="curve" smooth="yes"/>
      <point x="577" y="628"/>
      <point x="552" y="609"/>
      <point x="552" y="576" type="curve" smooth="yes"/>
      <point x="552" y="536"/>
      <point x="597" y="529"/>
      <point x="597" y="495" type="curve" smooth="yes"/>
      <point x="597" y="461"/>
      <point x="557" y="439"/>
      <point x="519" y="426" type="curve"/>
      <point x="486" y="515"/>
      <point x="419" y="546"/>
      <point x="341" y="546" type="curve" smooth="yes"/>
      <point x="138" y="546"/>
      <point x="43" y="345"/>
      <point x="43" y="197" type="curve" smooth="yes"/>
      <point x="43" y="58"/>
      <point x="122" y="-10"/>
    </contour>
    <contour>
      <point x="246" y="0" type="curve" smooth="yes"/>
      <point x="186" y="0"/>
      <point x="147" y="47"/>
      <point x="147" y="177" type="curve" smooth="yes"/>
      <point x="147" y="314"/>
      <point x="200" y="536"/>
      <point x="331" y="536" type="curve" smooth="yes"/>
      <point x="391" y="536"/>
      <point x="427" y="485"/>
      <point x="427" y="354" type="curve" smooth="yes"/>
      <point x="427" y="220"/>
      <point x="376" y="0"/>
    </contour>
  </outline>
</glyph>
<glyph name="uni01B5" format="2">
  <advance width="601"/>
  <unicode hex="01B5"/>
  <anchor x="246" y="0" name="bottom"/>
  <anchor x="398" y="714" name="top"/>
  <anchor x="677" y="714" name="topright"/>
  <outline>
    <contour>
      <point x="113" y="368" type="line"/>
      <point x="525" y="368" type="line"/>
      <point x="527" y="378" type="line"/>
      <point x="115" y="378" type="line"/>
    </contour>
    <component base="Z"/>
  </outline>
</glyph>
<glyph name="Aringacute" format="2">
  <advance width="705"/>
  <unicode hex="01FA"/>
  <anchor x="296" y="0" name="bottom"/>
  <anchor x="500" y="958" name="top"/>
  <outline>
    <contour>
      <point x="-56" y="0" type="line"/>
      <point x="184" y="0" type="line"/>
      <point x="186" y="10" type="line"/>
      <point x="133" y="10" type="line" smooth="yes"/>
      <point x="91" y="10"/>
      <point x="70" y="20"/>
      <point x="70" y="43" type="curve" smooth="yes"/>
      <point x="70" y="55"/>
      <point x="74" y="69"/>
      <point x="89" y="93" type="curve" smooth="yes"/>
      <point x="177" y="232" type="line"/>
      <point x="455" y="232" type="line"/>
      <point x="477" y="87" type="line" smooth="yes"/>
      <point x="478" y="79"/>
      <point x="479" y="69"/>
      <point x="479" y="59" type="curve" smooth="yes"/>
      <point x="479" y="28"/>
      <point x="448" y="10"/>
      <point x="402" y="10" type="curve" smooth="yes"/>
      <point x="379" y="10" type="line"/>
      <point x="377" y="0" type="line"/>
      <point x="649" y="0" type="line"/>
      <point x="651" y="10" type="line"/>
      <point x="638" y="10" type="line" smooth="yes"/>
      <point x="603" y="10"/>
      <point x="591" y="20"/>
      <point x="584" y="58" type="curve" smooth="yes"/>
      <point x="490" y="600" type="line"/>
      <point x="536" y="612"/>
      <point x="568" y="643"/>
      <point x="568" y="702" type="curve" smooth="yes"/>
      <point x="568" y="773"/>
      <point x="515" y="811"/>
      <point x="448" y="811" type="curve" smooth="yes"/>
      <point x="381" y="811"/>
      <point x="328" y="773"/>
      <point x="328" y="702" type="curve" smooth="yes"/>
      <point x="328" y="644"/>
      <point x="361" y="613"/>
      <point x="399" y="600" type="curve"/>
      <point x="69" y="81" type="line" smooth="yes"/>
      <point x="31" y="22"/>
      <point x="14" y="10"/>
      <point x="-25" y="10" type="curve" smooth="yes"/>
      <point x="-54" y="10" type="line"/>
    </contour>
    <contour>
      <point x="184" y="242" type="line"/>
      <point x="325" y="464" type="line" smooth="yes"/>
      <point x="363" y="524"/>
      <point x="383" y="558"/>
      <point x="403" y="589" type="curve"/>
      <point x="408" y="556"/>
      <point x="412" y="522"/>
      <point x="421" y="459" type="curve" smooth="yes"/>
      <point x="453" y="242" type="line"/>
    </contour>
    <contour>
      <point x="442" y="604" type="curve" smooth="yes"/>
      <point x="386" y="604"/>
      <point x="340" y="635"/>
      <point x="340" y="702" type="curve" smooth="yes"/>
      <point x="340" y="773"/>
      <point x="389" y="801"/>
      <point x="448" y="801" type="curve" smooth="yes"/>
      <point x="507" y="801"/>
      <point x="556" y="773"/>
      <point x="556" y="702" type="curve" smooth="yes"/>
      <point x="556" y="637"/>
      <point x="518" y="604"/>
    </contour>
    <contour>
      <point x="448" y="840" type="curve"/>
      <point x="445" y="830" type="line"/>
      <point x="455" y="830" type="line"/>
      <point x="516" y="859"/>
      <point x="601" y="918"/>
      <point x="634" y="950" type="curve"/>
      <point x="637" y="958" type="line"/>
      <point x="550" y="958" type="line"/>
      <point x="523" y="919"/>
      <point x="480" y="872"/>
    </contour>
  </outline>
</glyph>
<glyph name="uni023D" format="2">
  <advance width="634"/>
  <unicode hex="023D"/>
  <anchor x="255" y="0" name="bottom"/>
  <anchor x="407" y="714" name="top"/>
  <anchor x="352" y="357" name="center"/>
  <anchor x="589" y="714" name="topright"/>
  <outline>
    <contour>
      <point x="56" y="370" type="line"/>
      <point x="402" y="370" type="line"/>
      <point x="404" y="380" type="line"/>
      <point x="58" y="380" type="line"/>
    </contour>
    <component base="L"/>
  </outline>
</glyph>
<glyph name="uni023E" format="2">
  <advance width="623"/>
  <unicode hex="023E"/>
  <anchor x="250" y="0" name="bottom"/>
  <anchor x="402" y="714" name="top"/>
  <anchor x="327" y="357" name="center"/>
  <anchor x="690" y="714" name="topright"/>
  <outline>
    <contour>
      <point x="-19" y="-58" type="line"/>
      <point x="-6" y="-58" type="line"/>
      <point x="661" y="760" type="line"/>
      <point x="648" y="760" type="line"/>
    </contour>
    <component base="T"/>
  </outline>
</glyph>
<glyph name="uni0246" format="2">
  <advance width="640"/>
  <unicode hex="0246"/>
  <anchor x="244" y="-138" name="bottom"/>
  <anchor x="407" y="714" name="top"/>
  <anchor x="700" y="714" name="topright"/>
  <outline>
    <contour>
      <point x="158" y="-93" type="line"/>
      <point x="168" y="-93" type="line"/>
      <point x="570" y="760" type="line"/>
      <point x="560" y="760" type="line"/>
    </contour>
    <component base="E"/>
  </outline>
</glyph>
<glyph name="uni024C" format="2">
  <advance width="664"/>
  <unicode hex="024C"/>
  <anchor x="267" y="0" name="bottom"/>
  <anchor x="419" y="714" name="top"/>
  <anchor x="741" y="714" name="topright"/>
  <outline>
    <contour>
      <point x="167" y="333" type="line"/>
      <point x="170" y="343" type="line"/>
      <point x="32" y="343" type="line"/>
      <point x="30" y="333" type="line"/>
    </contour>
    <component base="R"/>
  </outline>
</glyph>
<glyph name="uni024E" format="2">
  <advance width="627"/>
  <unicode hex="024E"/>
  <anchor x="256" y="0" name="bottom"/>
  <anchor x="408" y="714" name="top"/>
  <anchor x="765" y="714" name="topright"/>
  <outline>
    <contour>
      <point x="67" y="539" type="line"/>
      <point x="678" y="539" type="line"/>
      <point x="680" y="549" type="line"/>
      <point x="69" y="549" type="line"/>
    </contour>
    <component base="Y"/>
  </outline>
</glyph>
<glyph name="schwahook" format="2">
  <advance width="706"/>
  <unicode hex="025A"/>
  <anchor x="190" y="0" name="bottom"/>
  <anchor x="304" y="536" name="top"/>
  <outline>
    <contour>
      <point x="152" y="-10" type="curve" smooth="yes"/>
      <point x="332" y="-10"/>
      <point x="440" y="166"/>
      <point x="452" y="341" type="curve"/>
      <point x="497" y="358" type="line"/>
      <point x="508" y="320" type="line" smooth="yes"/>
      <point x="538" y="216"/>
      <point x="573" y="180"/>
      <point x="627" y="180" type="curve" smooth="yes"/>
      <point x="676" y="180"/>
      <point x="698" y="214"/>
      <point x="698" y="249" type="curve" smooth="yes"/>
      <point x="698" y="269"/>
      <point x="689" y="288"/>
      <point x="673" y="297" type="curve"/>
      <point x="665" y="271"/>
      <point x="642" y="248"/>
      <point x="605" y="248" type="curve" smooth="yes"/>
      <point x="561" y="248"/>
      <point x="534" y="271"/>
      <point x="516" y="331" type="curve" smooth="yes"/>
      <point x="504" y="371" type="line"/>
      <point x="451" y="352" type="line"/>
      <point x="445" y="482"/>
      <point x="358" y="546"/>
      <point x="255" y="546" type="curve" smooth="yes"/>
      <point x="135" y="546"/>
      <point x="82" y="480"/>
      <point x="82" y="436" type="curve" smooth="yes"/>
      <point x="82" y="425"/>
      <point x="86" y="415"/>
      <point x="92" y="411" type="curve"/>
      <point x="120" y="471"/>
      <point x="162" y="535"/>
      <point x="236" y="535" type="curve" smooth="yes"/>
      <point x="308" y="535"/>
      <point x="346" y="466"/>
      <point x="346" y="347" type="curve" smooth="yes"/>
      <point x="346" y="338"/>
      <point x="345" y="330"/>
      <point x="344" y="321" type="curve"/>
      <point x="58" y="234"/>
      <point x="19" y="181"/>
      <point x="19" y="101" type="curve" smooth="yes"/>
      <point x="19" y="33"/>
      <point x="68" y="-10"/>
    </contour>
    <contour>
      <point x="177" y="1" type="curve" smooth="yes"/>
      <point x="143" y="1"/>
      <point x="122" y="33"/>
      <point x="122" y="93" type="curve" smooth="yes"/>
      <point x="122" y="217"/>
      <point x="191" y="259"/>
      <point x="343" y="311" type="curve"/>
      <point x="329" y="160"/>
      <point x="259" y="1"/>
    </contour>
  </outline>
</glyph>
<glyph name="eopenreversedhook" format="2">
  <advance width="697"/>
  <unicode hex="025D"/>
  <anchor x="174" y="0" name="bottom"/>
  <anchor x="278" y="536" name="top"/>
  <outline>
    <contour>
      <point x="636" y="266" type="curve" smooth="yes"/>
      <point x="685" y="266"/>
      <point x="707" y="300"/>
      <point x="707" y="335" type="curve" smooth="yes"/>
      <point x="707" y="355"/>
      <point x="698" y="374"/>
      <point x="682" y="383" type="curve"/>
      <point x="674" y="357"/>
      <point x="651" y="334"/>
      <point x="614" y="334" type="curve" smooth="yes"/>
      <point x="570" y="334"/>
      <point x="543" y="357"/>
      <point x="525" y="417" type="curve" smooth="yes"/>
      <point x="513" y="457" type="line"/>
      <point x="391" y="423" type="line"/>
      <point x="392" y="412" type="line"/>
      <point x="506" y="444" type="line"/>
      <point x="517" y="406" type="line" smooth="yes"/>
      <point x="547" y="302"/>
      <point x="582" y="266"/>
    </contour>
    <component base="afii10073"/>
  </outline>
</glyph>
<glyph name="rlongleg" format="2">
  <advance width="461"/>
  <unicode hex="027C"/>
  <anchor x="126" y="-240" name="bottom"/>
  <anchor x="291" y="536" name="top"/>
  <outline>
    <contour>
      <point x="135" y="434" type="curve" smooth="yes"/>
      <point x="-7" y="-240" type="line"/>
      <point x="86" y="-240" type="line"/>
      <point x="209" y="338" type="line" smooth="yes"/>
      <point x="221" y="396"/>
      <point x="283" y="512"/>
      <point x="339" y="512" type="curve" smooth="yes"/>
      <point x="384" y="512"/>
      <point x="390" y="468"/>
      <point x="390" y="401" type="curve"/>
      <point x="448" y="401"/>
      <point x="473" y="430"/>
      <point x="473" y="477" type="curve" smooth="yes"/>
      <point x="473" y="517"/>
      <point x="447" y="546"/>
      <point x="391" y="546" type="curve" smooth="yes"/>
      <point x="298" y="546"/>
      <point x="256" y="474"/>
      <point x="217" y="392" type="curve"/>
      <point x="215" y="392" type="line"/>
      <point x="238" y="536" type="line"/>
      <point x="55" y="536" type="line"/>
      <point x="53" y="526" type="line"/>
      <point x="61" y="526" type="line" smooth="yes"/>
      <point x="99" y="526"/>
      <point x="141" y="519"/>
      <point x="141" y="479" type="curve" smooth="yes"/>
      <point x="141" y="473"/>
      <point x="139" y="453"/>
    </contour>
  </outline>
</glyph>
<glyph name="eshcurl" format="2">
  <advance width="336"/>
  <unicode hex="0286"/>
  <anchor x="51" y="-240" name="bottom"/>
  <anchor x="266" y="770" name="top"/>
  <outline>
    <contour>
      <point x="-42" y="-240" type="curve" smooth="yes"/>
      <point x="40" y="-240"/>
      <point x="99" y="-198"/>
      <point x="139" y="-79" type="curve"/>
      <point x="178" y="-105"/>
      <point x="215" y="-137"/>
      <point x="245" y="-175" type="curve"/>
      <point x="253" y="-169" type="line"/>
      <point x="218" y="-127"/>
      <point x="179" y="-93"/>
      <point x="142" y="-70" type="curve"/>
      <point x="146" y="-56"/>
      <point x="149" y="-44"/>
      <point x="152" y="-29" type="curve" smooth="yes"/>
      <point x="286" y="600" type="line" smooth="yes"/>
      <point x="308" y="705"/>
      <point x="322" y="760"/>
      <point x="363" y="760" type="curve" smooth="yes"/>
      <point x="398" y="760"/>
      <point x="402" y="702"/>
      <point x="402" y="631" type="curve"/>
      <point x="455" y="631"/>
      <point x="485" y="652"/>
      <point x="485" y="696" type="curve" smooth="yes"/>
      <point x="485" y="740"/>
      <point x="444" y="770"/>
      <point x="366" y="770" type="curve" smooth="yes"/>
      <point x="267" y="770"/>
      <point x="212" y="693"/>
      <point x="184" y="559" type="curve" smooth="yes"/>
      <point x="58" y="-33" type="line"/>
      <point x="35" y="-27"/>
      <point x="12" y="-24"/>
      <point x="-10" y="-24" type="curve" smooth="yes"/>
      <point x="-100" y="-24"/>
      <point x="-148" y="-81"/>
      <point x="-148" y="-143" type="curve" smooth="yes"/>
      <point x="-148" y="-197"/>
      <point x="-117" y="-240"/>
    </contour>
    <contour>
      <point x="-42" y="-230" type="curve" smooth="yes"/>
      <point x="-104" y="-230"/>
      <point x="-138" y="-197"/>
      <point x="-138" y="-143" type="curve" smooth="yes"/>
      <point x="-138" y="-89"/>
      <point x="-93" y="-33"/>
      <point x="-10" y="-33" type="curve" smooth="yes"/>
      <point x="14" y="-33"/>
      <point x="34" y="-36"/>
      <point x="56" y="-43" type="curve"/>
      <point x="30" y="-185"/>
      <point x="7" y="-230"/>
    </contour>
  </outline>
</glyph>
<glyph name="uni0289" format="2">
  <advance width="597"/>
  <unicode hex="0289"/>
  <anchor x="243" y="0" name="bottom"/>
  <anchor x="357" y="536" name="top"/>
  <anchor x="637" y="536" name="topright"/>
  <outline>
    <contour>
      <point x="18" y="280" type="line"/>
      <point x="584" y="280" type="line"/>
      <point x="586" y="290" type="line"/>
      <point x="20" y="290" type="line"/>
    </contour>
    <component base="u"/>
  </outline>
</glyph>
<glyph name="ezhcurl" format="2">
  <advance width="526"/>
  <unicode hex="0293"/>
  <anchor x="157" y="-240" name="bottom"/>
  <anchor x="322" y="536" name="top"/>
  <outline>
    <contour>
      <point x="133" y="-240" type="curve" smooth="yes"/>
      <point x="241" y="-240"/>
      <point x="334" y="-192"/>
      <point x="393" y="-106" type="curve"/>
      <point x="420" y="-138"/>
      <point x="443" y="-174"/>
      <point x="460" y="-210" type="curve"/>
      <point x="469" y="-205" type="line"/>
      <point x="448" y="-164"/>
      <point x="425" y="-128"/>
      <point x="398" y="-98" type="curve"/>
      <point x="417" y="-61"/>
      <point x="428" y="-17"/>
      <point x="428" y="33" type="curve" smooth="yes"/>
      <point x="428" y="153"/>
      <point x="327" y="215"/>
      <point x="162" y="215" type="curve"/>
      <point x="501" y="526" type="line"/>
      <point x="501" y="536" type="line"/>
      <point x="122" y="536" type="line"/>
      <point x="83" y="379" type="line"/>
      <point x="93" y="379" type="line"/>
      <point x="98" y="393" type="line" smooth="yes"/>
      <point x="115" y="442"/>
      <point x="148" y="456"/>
      <point x="218" y="456" type="curve" smooth="yes"/>
      <point x="411" y="456" type="line"/>
      <point x="148" y="215" type="line"/>
      <point x="146" y="205" type="line"/>
      <point x="165" y="205" type="line" smooth="yes"/>
      <point x="286" y="205"/>
      <point x="331" y="139"/>
      <point x="331" y="30" type="curve" smooth="yes"/>
      <point x="331" y="7"/>
      <point x="328" y="-14"/>
      <point x="323" y="-35" type="curve"/>
      <point x="284" y="-12"/>
      <point x="239" y="0"/>
      <point x="185" y="0" type="curve" smooth="yes"/>
      <point x="78" y="0"/>
      <point x="-9" y="-49"/>
      <point x="-9" y="-136" type="curve" smooth="yes"/>
      <point x="-9" y="-194"/>
      <point x="33" y="-240"/>
    </contour>
    <contour>
      <point x="135" y="-230" type="curve" smooth="yes"/>
      <point x="48" y="-230"/>
      <point x="1" y="-189"/>
      <point x="1" y="-136" type="curve" smooth="yes"/>
      <point x="1" y="-79"/>
      <point x="52" y="-10"/>
      <point x="185" y="-10" type="curve" smooth="yes"/>
      <point x="237" y="-10"/>
      <point x="281" y="-23"/>
      <point x="320" y="-46" type="curve"/>
      <point x="292" y="-150"/>
      <point x="237" y="-230"/>
    </contour>
  </outline>
</glyph>
<glyph name="cstretched" format="2">
  <advance width="489"/>
  <unicode hex="0297"/>
  <anchor x="136" y="-240" name="bottom"/>
  <anchor x="301" y="536" name="top"/>
  <outline>
    <contour>
      <point x="191" y="-240" type="curve" smooth="yes"/>
      <point x="311" y="-240"/>
      <point x="364" y="-174"/>
      <point x="364" y="-130" type="curve" smooth="yes"/>
      <point x="364" y="-119"/>
      <point x="360" y="-109"/>
      <point x="354" y="-105" type="curve"/>
      <point x="325" y="-166"/>
      <point x="278" y="-230"/>
      <point x="205" y="-230" type="curve" smooth="yes"/>
      <point x="147" y="-230"/>
      <point x="107" y="-165"/>
      <point x="107" y="-30" type="curve" smooth="yes"/>
      <point x="107" y="210"/>
      <point x="207" y="536"/>
      <point x="339" y="536" type="curve" smooth="yes"/>
      <point x="389" y="536"/>
      <point x="398" y="465"/>
      <point x="398" y="380" type="curve"/>
      <point x="455" y="380"/>
      <point x="487" y="412"/>
      <point x="487" y="450" type="curve" smooth="yes"/>
      <point x="487" y="502"/>
      <point x="438" y="546"/>
      <point x="344" y="546" type="curve" smooth="yes"/>
      <point x="146" y="546"/>
      <point x="9" y="263"/>
      <point x="9" y="-24" type="curve" smooth="yes"/>
      <point x="9" y="-163"/>
      <point x="71" y="-240"/>
    </contour>
  </outline>
</glyph>
<glyph name="qhook" format="2">
  <advance width="600"/>
  <unicode hex="02A0"/>
  <anchor x="182" y="-240" name="bottom"/>
  <anchor x="397" y="770" name="top"/>
  <outline>
    <contour>
      <point x="321" y="-40" type="curve" smooth="yes"/>
      <point x="279" y="-240" type="line"/>
      <point x="461" y="-240" type="line"/>
      <point x="463" y="-230" type="line"/>
      <point x="455" y="-230" type="line" smooth="yes"/>
      <point x="417" y="-230"/>
      <point x="386" y="-223"/>
      <point x="386" y="-183" type="curve" smooth="yes"/>
      <point x="386" y="-177"/>
      <point x="388" y="-157"/>
      <point x="392" y="-138" type="curve" smooth="yes"/>
      <point x="549" y="600" type="line" smooth="yes"/>
      <point x="572" y="705"/>
      <point x="585" y="760"/>
      <point x="629" y="760" type="curve" smooth="yes"/>
      <point x="659" y="760"/>
      <point x="665" y="702"/>
      <point x="665" y="631" type="curve"/>
      <point x="718" y="631"/>
      <point x="748" y="652"/>
      <point x="748" y="696" type="curve" smooth="yes"/>
      <point x="748" y="740"/>
      <point x="707" y="770"/>
      <point x="629" y="770" type="curve" smooth="yes"/>
      <point x="529" y="770"/>
      <point x="472" y="694"/>
      <point x="450" y="592" type="curve" smooth="yes"/>
      <point x="436" y="526" type="line"/>
      <point x="414" y="537"/>
      <point x="385" y="546"/>
      <point x="341" y="546" type="curve" smooth="yes"/>
      <point x="151" y="546"/>
      <point x="43" y="329"/>
      <point x="43" y="173" type="curve" smooth="yes"/>
      <point x="43" y="53"/>
      <point x="94" y="-10"/>
      <point x="172" y="-10" type="curve" smooth="yes"/>
      <point x="267" y="-10"/>
      <point x="324" y="68"/>
      <point x="363" y="151" type="curve"/>
      <point x="365" y="151" type="line"/>
      <point x="360" y="128"/>
      <point x="330" y="5"/>
    </contour>
    <contour>
      <point x="220" y="18" type="curve" smooth="yes"/>
      <point x="176" y="18"/>
      <point x="145" y="60"/>
      <point x="145" y="168" type="curve" smooth="yes"/>
      <point x="145" y="289"/>
      <point x="211" y="535"/>
      <point x="353" y="535" type="curve" smooth="yes"/>
      <point x="390" y="535"/>
      <point x="413" y="523"/>
      <point x="431" y="508" type="curve"/>
      <point x="367" y="200" type="line" smooth="yes"/>
      <point x="352" y="128"/>
      <point x="285" y="18"/>
    </contour>
  </outline>
</glyph>
<glyph name="uni02A1" format="2">
  <advance width="427"/>
  <unicode hex="02A1"/>
  <anchor x="131" y="0" name="bottom"/>
  <anchor x="285" y="770" name="top"/>
  <anchor x="531" y="766" name="topright"/>
  <outline>
    <contour>
      <point x="40" y="206" type="line"/>
      <point x="307" y="206" type="line"/>
      <point x="309" y="216" type="line"/>
      <point x="42" y="216" type="line"/>
    </contour>
    <component base="uni0294"/>
  </outline>
</glyph>
<glyph name="uni02A2" format="2">
  <advance width="423"/>
  <unicode hex="02A2"/>
  <anchor x="161" y="0" name="bottom"/>
  <anchor x="325" y="770" name="top"/>
  <outline>
    <contour>
      <point x="88" y="206" type="line"/>
      <point x="355" y="206" type="line"/>
      <point x="357" y="216" type="line"/>
      <point x="90" y="216" type="line"/>
    </contour>
    <component base="uni0295"/>
  </outline>
</glyph>
<glyph name="circumflex" format="2">
  <advance width="375"/>
  <unicode hex="02C6"/>
  <outline>
    <contour>
      <point x="112" y="606" type="line"/>
      <point x="122" y="606" type="line"/>
      <point x="176" y="630"/>
      <point x="238" y="670"/>
      <point x="285" y="706" type="curve"/>
      <point x="314" y="670"/>
      <point x="355" y="630"/>
      <point x="397" y="606" type="curve"/>
      <point x="407" y="606" type="line"/>
      <point x="409" y="616" type="line"/>
      <point x="383" y="655"/>
      <point x="345" y="720"/>
      <point x="332" y="766" type="curve"/>
      <point x="257" y="766" type="line"/>
      <point x="224" y="720"/>
      <point x="156" y="655"/>
      <point x="114" y="616" type="curve"/>
    </contour>
  </outline>
</glyph>
<glyph name="breve" format="2">
  <advance width="367"/>
  <unicode hex="02D8"/>
  <outline>
    <contour>
      <point x="267" y="606" type="curve" smooth="yes"/>
      <point x="354" y="606"/>
      <point x="410" y="668"/>
      <point x="428" y="743" type="curve"/>
      <point x="418" y="743" type="line"/>
      <point x="390" y="695"/>
      <point x="339" y="675"/>
      <point x="274" y="675" type="curve" smooth="yes"/>
      <point x="205" y="675"/>
      <point x="158" y="697"/>
      <point x="151" y="743" type="curve"/>
      <point x="141" y="743" type="line"/>
      <point x="146" y="655"/>
      <point x="187" y="606"/>
    </contour>
  </outline>
</glyph>
<glyph name="dotaccent" format="2">
  <advance width="179"/>
  <unicode hex="02D9"/>
  <outline>
    <contour>
      <point x="178" y="636" type="curve" smooth="yes"/>
      <point x="202" y="636"/>
      <point x="228" y="650"/>
      <point x="228" y="701" type="curve" smooth="yes"/>
      <point x="228" y="739"/>
      <point x="208" y="751"/>
      <point x="182" y="751" type="curve" smooth="yes"/>
      <point x="152" y="751"/>
      <point x="132" y="730"/>
      <point x="132" y="686" type="curve" smooth="yes"/>
      <point x="132" y="650"/>
      <point x="151" y="636"/>
    </contour>
  </outline>
</glyph>
<glyph name="ring" format="2">
  <advance width="333"/>
  <unicode hex="02DA"/>
  <outline>
    <contour>
      <point x="259" y="596" type="curve" smooth="yes"/>
      <point x="326" y="596"/>
      <point x="379" y="634"/>
      <point x="379" y="705" type="curve" smooth="yes"/>
      <point x="379" y="776"/>
      <point x="326" y="814"/>
      <point x="259" y="814" type="curve" smooth="yes"/>
      <point x="192" y="814"/>
      <point x="139" y="776"/>
      <point x="139" y="705" type="curve" smooth="yes"/>
      <point x="139" y="634"/>
      <point x="192" y="596"/>
    </contour>
    <contour>
      <point x="259" y="606" type="curve" smooth="yes"/>
      <point x="195" y="606"/>
      <point x="151" y="639"/>
      <point x="151" y="705" type="curve" smooth="yes"/>
      <point x="151" y="771"/>
      <point x="195" y="804"/>
      <point x="259" y="804" type="curve" smooth="yes"/>
      <point x="323" y="804"/>
      <point x="367" y="771"/>
      <point x="367" y="705" type="curve" smooth="yes"/>
      <point x="367" y="639"/>
      <point x="323" y="606"/>
    </contour>
  </outline>
</glyph>
<glyph name="tilde" format="2">
  <advance width="436"/>
  <unicode hex="02DC"/>
  <outline>
    <contour>
      <point x="363" y="606" type="curve" smooth="yes"/>
      <point x="434" y="606"/>
      <point x="476" y="663"/>
      <point x="493" y="724" type="curve"/>
      <point x="483" y="724" type="line"/>
      <point x="470" y="697"/>
      <point x="456" y="671"/>
      <point x="414" y="671" type="curve" smooth="yes"/>
      <point x="334" y="671"/>
      <point x="321" y="734"/>
      <point x="245" y="734" type="curve" smooth="yes"/>
      <point x="173" y="734"/>
      <point x="131" y="677"/>
      <point x="114" y="616" type="curve"/>
      <point x="124" y="616" type="line"/>
      <point x="137" y="643"/>
      <point x="151" y="669"/>
      <point x="195" y="669" type="curve" smooth="yes"/>
      <point x="274" y="669"/>
      <point x="286" y="606"/>
    </contour>
  </outline>
</glyph>
<glyph name="hungarumlaut" format="2">
  <advance width="419"/>
  <unicode hex="02DD"/>
  <outline>
    <contour>
      <point x="294" y="616" type="curve"/>
      <point x="292" y="606" type="line"/>
      <point x="302" y="606" type="line"/>
      <point x="358" y="645"/>
      <point x="452" y="719"/>
      <point x="482" y="756" type="curve"/>
      <point x="485" y="766" type="line"/>
      <point x="392" y="766" type="line"/>
      <point x="372" y="721"/>
      <point x="328" y="659"/>
    </contour>
    <contour>
      <point x="114" y="616" type="curve"/>
      <point x="112" y="606" type="line"/>
      <point x="122" y="606" type="line"/>
      <point x="178" y="645"/>
      <point x="272" y="719"/>
      <point x="302" y="756" type="curve"/>
      <point x="305" y="766" type="line"/>
      <point x="212" y="766" type="line"/>
      <point x="192" y="721"/>
      <point x="148" y="659"/>
    </contour>
  </outline>
</glyph>
<glyph name="rhotichookmod" format="2">
  <advance width="219"/>
  <unicode hex="02DE"/>
  <outline>
    <contour>
      <point x="144" y="198" type="curve" smooth="yes"/>
      <point x="193" y="198"/>
      <point x="215" y="232"/>
      <point x="215" y="267" type="curve" smooth="yes"/>
      <point x="215" y="287"/>
      <point x="206" y="306"/>
      <point x="190" y="315" type="curve"/>
      <point x="182" y="289"/>
      <point x="159" y="266"/>
      <point x="122" y="266" type="curve" smooth="yes"/>
      <point x="78" y="266"/>
      <point x="51" y="289"/>
      <point x="33" y="349" type="curve" smooth="yes"/>
      <point x="21" y="389" type="line"/>
      <point x="-129" y="347" type="line"/>
      <point x="-128" y="336" type="line"/>
      <point x="14" y="376" type="line"/>
      <point x="25" y="338" type="line" smooth="yes"/>
      <point x="55" y="234"/>
      <point x="90" y="198"/>
    </contour>
  </outline>
</glyph>
<glyph name="candraBinducomb" format="2">
  <unicode hex="0310"/>
  <anchor x="57" y="536" name="_top"/>
  <anchor x="125" y="856" name="top"/>
  <outline>
    <contour>
      <point x="81" y="616" type="curve" smooth="yes"/>
      <point x="168" y="616"/>
      <point x="224" y="678"/>
      <point x="242" y="753" type="curve"/>
      <point x="232" y="753" type="line"/>
      <point x="204" y="705"/>
      <point x="153" y="685"/>
      <point x="88" y="685" type="curve" smooth="yes"/>
      <point x="19" y="685"/>
      <point x="-28" y="707"/>
      <point x="-35" y="753" type="curve"/>
      <point x="-45" y="753" type="line"/>
      <point x="-40" y="665"/>
      <point x="1" y="616"/>
    </contour>
    <contour>
      <point x="102" y="739" type="curve" smooth="yes"/>
      <point x="125" y="739"/>
      <point x="150" y="752"/>
      <point x="150" y="803" type="curve" smooth="yes"/>
      <point x="150" y="840"/>
      <point x="131" y="852"/>
      <point x="106" y="852" type="curve" smooth="yes"/>
      <point x="77" y="852"/>
      <point x="58" y="830"/>
      <point x="58" y="788" type="curve" smooth="yes"/>
      <point x="58" y="752"/>
      <point x="76" y="739"/>
    </contour>
  </outline>
</glyph>
<glyph name="breveinvertedcomb" format="2">
  <unicode hex="0311"/>
  <anchor x="57" y="536" name="_top"/>
  <anchor x="101" y="743" name="top"/>
  <outline>
    <contour>
      <point x="-82" y="606" type="curve"/>
      <point x="-72" y="606" type="line"/>
      <point x="-44" y="654"/>
      <point x="7" y="674"/>
      <point x="72" y="674" type="curve" smooth="yes"/>
      <point x="141" y="674"/>
      <point x="188" y="652"/>
      <point x="195" y="606" type="curve"/>
      <point x="205" y="606" type="line"/>
      <point x="200" y="694"/>
      <point x="159" y="743"/>
      <point x="79" y="743" type="curve" smooth="yes"/>
      <point x="-8" y="743"/>
      <point x="-64" y="681"/>
    </contour>
  </outline>
</glyph>
<glyph name="horncomb" format="2">
  <unicode hex="031B"/>
  <anchor x="57" y="536" name="_topright"/>
  <outline>
    <contour>
      <point x="-20" y="546" type="line"/>
      <point x="92" y="562"/>
      <point x="133" y="623"/>
      <point x="133" y="700" type="curve" smooth="yes"/>
      <point x="133" y="744"/>
      <point x="104" y="770"/>
      <point x="68" y="770" type="curve" smooth="yes"/>
      <point x="40" y="770"/>
      <point x="15" y="753"/>
      <point x="15" y="720" type="curve" smooth="yes"/>
      <point x="15" y="671"/>
      <point x="78" y="675"/>
      <point x="78" y="633" type="curve" smooth="yes"/>
      <point x="78" y="584"/>
      <point x="37" y="568"/>
      <point x="-19" y="556" type="curve"/>
    </contour>
  </outline>
</glyph>
<glyph name="commaaccent" format="2">
  <unicode hex="0326"/>
  <anchor x="-52" y="0" name="_bottom"/>
  <anchor x="-80" y="-221" name="bottom"/>
  <outline>
    <contour>
      <point x="-156" y="-221" type="line"/>
      <point x="-146" y="-221" type="line"/>
      <point x="-96" y="-172"/>
      <point x="-44" y="-113"/>
      <point x="-14" y="-71" type="curve"/>
      <point x="-12" y="-61" type="line"/>
      <point x="-87" y="-61" type="line"/>
      <point x="-106" y="-113"/>
      <point x="-125" y="-156"/>
      <point x="-154" y="-213" type="curve"/>
    </contour>
  </outline>
</glyph>
<glyph name="bridgebelowcomb" format="2">
  <unicode hex="032A"/>
  <anchor x="-57" y="0" name="_bottom"/>
  <anchor x="-105" y="-226" name="bottom"/>
  <outline>
    <contour>
      <point x="-285" y="-226" type="line"/>
      <point x="-275" y="-226" type="line"/>
      <point x="-273" y="-214" type="line" smooth="yes"/>
      <point x="-253" y="-123"/>
      <point x="-228" y="-92"/>
      <point x="-159" y="-92" type="curve" smooth="yes"/>
      <point x="5" y="-92" type="line" smooth="yes"/>
      <point x="54" y="-92"/>
      <point x="75" y="-107"/>
      <point x="75" y="-151" type="curve" smooth="yes"/>
      <point x="75" y="-168"/>
      <point x="72" y="-188"/>
      <point x="67" y="-214" type="curve" smooth="yes"/>
      <point x="65" y="-226" type="line"/>
      <point x="75" y="-226" type="line"/>
      <point x="107" y="-72" type="line"/>
      <point x="-253" y="-72" type="line"/>
    </contour>
  </outline>
</glyph>
<glyph name="dblarchinvertedbelowcomb" format="2">
  <unicode hex="032B"/>
  <anchor x="-57" y="0" name="_bottom"/>
  <anchor x="-81" y="-183" name="bottom"/>
  <outline>
    <contour>
      <point x="-168" y="-183" type="curve" smooth="yes"/>
      <point x="-132" y="-183"/>
      <point x="-100" y="-161"/>
      <point x="-84" y="-132" type="curve"/>
      <point x="-78" y="-157"/>
      <point x="-64" y="-183"/>
      <point x="-19" y="-183" type="curve" smooth="yes"/>
      <point x="45" y="-183"/>
      <point x="71" y="-141"/>
      <point x="83" y="-65" type="curve"/>
      <point x="73" y="-65" type="line"/>
      <point x="61" y="-118"/>
      <point x="42" y="-135"/>
      <point x="-15" y="-135" type="curve" smooth="yes"/>
      <point x="-54" y="-135"/>
      <point x="-69" y="-121"/>
      <point x="-69" y="-96" type="curve" smooth="yes"/>
      <point x="-69" y="-88"/>
      <point x="-68" y="-77"/>
      <point x="-66" y="-65" type="curve"/>
      <point x="-76" y="-65" type="line"/>
      <point x="-89" y="-117"/>
      <point x="-111" y="-135"/>
      <point x="-158" y="-135" type="curve" smooth="yes"/>
      <point x="-199" y="-135"/>
      <point x="-211" y="-113"/>
      <point x="-211" y="-99" type="curve" smooth="yes"/>
      <point x="-211" y="-88"/>
      <point x="-209" y="-77"/>
      <point x="-206" y="-65" type="curve"/>
      <point x="-216" y="-65" type="line"/>
      <point x="-221" y="-85"/>
      <point x="-223" y="-104"/>
      <point x="-223" y="-114" type="curve" smooth="yes"/>
      <point x="-223" y="-158"/>
      <point x="-214" y="-183"/>
    </contour>
  </outline>
</glyph>
<glyph name="lowlinecomb" format="2">
  <unicode hex="0332"/>
  <anchor x="-58" y="0" name="_bottom"/>
  <anchor x="-86" y="-138" name="bottom"/>
  <outline>
    <contour>
      <point x="-292" y="-119" type="line"/>
      <point x="127" y="-119" type="line"/>
      <point x="132" y="-99" type="line"/>
      <point x="-287" y="-99" type="line"/>
    </contour>
  </outline>
</glyph>
<glyph name="seagullbelowcomb" format="2">
  <unicode hex="033C"/>
  <anchor x="-57" y="0" name="_bottom"/>
  <anchor x="-90" y="-183" name="bottom"/>
  <outline>
    <contour>
      <point x="-245" y="-183" type="curve"/>
      <point x="-235" y="-183" type="line"/>
      <point x="-223" y="-130"/>
      <point x="-204" y="-113"/>
      <point x="-147" y="-113" type="curve" smooth="yes"/>
      <point x="-108" y="-113"/>
      <point x="-93" y="-127"/>
      <point x="-93" y="-152" type="curve" smooth="yes"/>
      <point x="-93" y="-160"/>
      <point x="-94" y="-171"/>
      <point x="-96" y="-183" type="curve"/>
      <point x="-86" y="-183" type="line"/>
      <point x="-73" y="-131"/>
      <point x="-51" y="-113"/>
      <point x="-4" y="-113" type="curve" smooth="yes"/>
      <point x="37" y="-113"/>
      <point x="49" y="-135"/>
      <point x="49" y="-149" type="curve" smooth="yes"/>
      <point x="49" y="-160"/>
      <point x="47" y="-171"/>
      <point x="44" y="-183" type="curve"/>
      <point x="54" y="-183" type="line"/>
      <point x="59" y="-163"/>
      <point x="61" y="-144"/>
      <point x="61" y="-134" type="curve" smooth="yes"/>
      <point x="61" y="-90"/>
      <point x="52" y="-65"/>
      <point x="6" y="-65" type="curve" smooth="yes"/>
      <point x="-30" y="-65"/>
      <point x="-62" y="-87"/>
      <point x="-78" y="-116" type="curve"/>
      <point x="-84" y="-91"/>
      <point x="-98" y="-65"/>
      <point x="-143" y="-65" type="curve" smooth="yes"/>
      <point x="-207" y="-65"/>
      <point x="-233" y="-107"/>
    </contour>
  </outline>
</glyph>
<glyph name="homotheticabovecomb" format="2">
  <unicode hex="034B"/>
  <anchor x="54" y="536" name="_top"/>
  <anchor x="101" y="919" name="top"/>
  <outline>
    <contour>
      <point x="-89" y="693" type="curve"/>
      <point x="-79" y="693" type="line"/>
      <point x="-66" y="720"/>
      <point x="-52" y="746"/>
      <point x="-8" y="746" type="curve" smooth="yes"/>
      <point x="71" y="746"/>
      <point x="83" y="683"/>
      <point x="160" y="683" type="curve" smooth="yes"/>
      <point x="231" y="683"/>
      <point x="273" y="740"/>
      <point x="290" y="801" type="curve"/>
      <point x="280" y="801" type="line"/>
      <point x="267" y="774"/>
      <point x="253" y="748"/>
      <point x="211" y="748" type="curve" smooth="yes"/>
      <point x="131" y="748"/>
      <point x="118" y="811"/>
      <point x="42" y="811" type="curve" smooth="yes"/>
      <point x="-30" y="811"/>
      <point x="-72" y="754"/>
    </contour>
    <contour>
      <point x="73" y="562" type="curve" smooth="yes"/>
      <point x="96" y="562"/>
      <point x="120" y="578"/>
      <point x="120" y="625" type="curve" smooth="yes"/>
      <point x="120" y="659"/>
      <point x="102" y="675"/>
      <point x="77" y="675" type="curve" smooth="yes"/>
      <point x="48" y="675"/>
      <point x="30" y="650"/>
      <point x="30" y="612" type="curve" smooth="yes"/>
      <point x="30" y="578"/>
      <point x="47" y="562"/>
    </contour>
    <contour>
      <point x="124" y="819" type="curve" smooth="yes"/>
      <point x="147" y="819"/>
      <point x="171" y="835"/>
      <point x="171" y="882" type="curve" smooth="yes"/>
      <point x="171" y="916"/>
      <point x="153" y="932"/>
      <point x="128" y="932" type="curve" smooth="yes"/>
      <point x="99" y="932"/>
      <point x="81" y="907"/>
      <point x="81" y="869" type="curve" smooth="yes"/>
      <point x="81" y="835"/>
      <point x="98" y="819"/>
    </contour>
  </outline>
</glyph>
<glyph name="almostequaltoabovecomb" format="2">
  <unicode hex="034C"/>
  <anchor x="59" y="536" name="_top"/>
  <anchor x="100" y="850" name="top"/>
  <outline>
    <contour>
      <point x="178" y="736" type="curve" smooth="yes"/>
      <point x="229" y="736"/>
      <point x="271" y="769"/>
      <point x="284" y="845" type="curve"/>
      <point x="274" y="845" type="line"/>
      <point x="261" y="808"/>
      <point x="236" y="799"/>
      <point x="199" y="799" type="curve" smooth="yes"/>
      <point x="147" y="799"/>
      <point x="120" y="850"/>
      <point x="43" y="850" type="curve" smooth="yes"/>
      <point x="-8" y="850"/>
      <point x="-50" y="813"/>
      <point x="-63" y="737" type="curve"/>
      <point x="-53" y="737" type="line"/>
      <point x="-40" y="774"/>
      <point x="-15" y="787"/>
      <point x="22" y="787" type="curve" smooth="yes"/>
      <point x="69" y="787"/>
      <point x="100" y="736"/>
    </contour>
    <contour>
      <point x="148" y="589" type="curve" smooth="yes"/>
      <point x="199" y="589"/>
      <point x="241" y="622"/>
      <point x="254" y="698" type="curve"/>
      <point x="244" y="698" type="line"/>
      <point x="231" y="661"/>
      <point x="206" y="652"/>
      <point x="169" y="652" type="curve" smooth="yes"/>
      <point x="117" y="652"/>
      <point x="90" y="703"/>
      <point x="13" y="703" type="curve" smooth="yes"/>
      <point x="-38" y="703"/>
      <point x="-80" y="666"/>
      <point x="-93" y="590" type="curve"/>
      <point x="-83" y="590" type="line"/>
      <point x="-70" y="627"/>
      <point x="-45" y="640"/>
      <point x="-8" y="640" type="curve" smooth="yes"/>
      <point x="39" y="640"/>
      <point x="70" y="589"/>
    </contour>
  </outline>
</glyph>
<glyph name="arrowleftrightbelowcomb" format="2">
  <unicode hex="034D"/>
  <anchor x="-57" y="0" name="_bottom"/>
  <anchor x="-103" y="-218" name="bottom"/>
  <outline>
    <contour>
      <point x="-150" y="-177" type="line"/>
      <point x="-141" y="-137" type="line"/>
      <point x="-31" y="-137" type="line"/>
      <point x="-40" y="-177" type="line"/>
      <point x="61" y="-127" type="line"/>
      <point x="-18" y="-77" type="line"/>
      <point x="-27" y="-117" type="line"/>
      <point x="-137" y="-117" type="line"/>
      <point x="-128" y="-77" type="line"/>
      <point x="-229" y="-127" type="line"/>
    </contour>
  </outline>
</glyph>
<glyph name="arrowheadrightabovecomb" format="2">
  <unicode hex="0350"/>
  <anchor x="57" y="536" name="_top"/>
  <anchor x="108" y="776" name="top"/>
  <outline>
    <contour>
      <point x="5" y="569" type="line"/>
      <point x="10" y="569" type="line"/>
      <point x="66" y="609"/>
      <point x="113" y="638"/>
      <point x="187" y="663" type="curve"/>
      <point x="187" y="682" type="line"/>
      <point x="113" y="707"/>
      <point x="66" y="736"/>
      <point x="10" y="776" type="curve"/>
      <point x="5" y="776" type="line"/>
      <point x="5" y="759" type="line"/>
      <point x="32" y="737"/>
      <point x="77" y="702"/>
      <point x="156" y="673" type="curve"/>
      <point x="77" y="643"/>
      <point x="32" y="608"/>
      <point x="5" y="586" type="curve"/>
    </contour>
  </outline>
</glyph>
<glyph name="fermatacomb" format="2">
  <unicode hex="0352"/>
  <anchor x="57" y="536" name="_top"/>
  <anchor x="100" y="844" name="top"/>
  <outline>
    <contour>
      <point x="-51" y="707" type="curve"/>
      <point x="-41" y="707" type="line"/>
      <point x="-13" y="755"/>
      <point x="38" y="775"/>
      <point x="103" y="775" type="curve" smooth="yes"/>
      <point x="172" y="775"/>
      <point x="219" y="753"/>
      <point x="226" y="707" type="curve"/>
      <point x="236" y="707" type="line"/>
      <point x="231" y="795"/>
      <point x="190" y="844"/>
      <point x="110" y="844" type="curve" smooth="yes"/>
      <point x="23" y="844"/>
      <point x="-33" y="782"/>
    </contour>
    <contour>
      <point x="83" y="605" type="curve" smooth="yes"/>
      <point x="106" y="605"/>
      <point x="131" y="618"/>
      <point x="131" y="669" type="curve" smooth="yes"/>
      <point x="131" y="706"/>
      <point x="112" y="718"/>
      <point x="87" y="718" type="curve" smooth="yes"/>
      <point x="58" y="718"/>
      <point x="39" y="696"/>
      <point x="39" y="654" type="curve" smooth="yes"/>
      <point x="39" y="618"/>
      <point x="57" y="605"/>
    </contour>
  </outline>
</glyph>
<glyph name="asteriskbelowcomb" format="2">
  <unicode hex="0359"/>
  <anchor x="-57" y="0" name="_bottom"/>
  <anchor x="-84" y="-245" name="bottom"/>
  <outline>
    <contour>
      <point x="-76" y="-245" type="line"/>
      <point x="-81" y="-153" type="line"/>
      <point x="-23" y="-231" type="line"/>
      <point x="18" y="-182" type="line"/>
      <point x="-69" y="-139" type="line"/>
      <point x="28" y="-135" type="line"/>
      <point x="11" y="-73" type="line"/>
      <point x="-74" y="-120" type="line"/>
      <point x="-32" y="-39" type="line"/>
      <point x="-96" y="-25" type="line"/>
      <point x="-91" y="-117" type="line"/>
      <point x="-149" y="-39" type="line"/>
      <point x="-190" y="-88" type="line"/>
      <point x="-103" y="-131" type="line"/>
      <point x="-200" y="-135" type="line"/>
      <point x="-183" y="-197" type="line"/>
      <point x="-98" y="-149" type="line"/>
      <point x="-140" y="-231" type="line"/>
    </contour>
  </outline>
</glyph>
<glyph name="doublebrevebelowcomb" format="2">
  <unicode hex="035C"/>
  <anchor x="-354" y="0" name="_bottom"/>
  <anchor x="-100" y="-197" name="bottom"/>
  <outline>
    <contour>
      <point x="-91" y="-205" type="curve" smooth="yes"/>
      <point x="113" y="-205"/>
      <point x="218" y="-148"/>
      <point x="314" y="-24" type="curve"/>
      <point x="304" y="-24" type="line"/>
      <point x="236" y="-97"/>
      <point x="125" y="-145"/>
      <point x="-88" y="-145" type="curve" smooth="yes"/>
      <point x="-271" y="-145"/>
      <point x="-387" y="-109"/>
      <point x="-429" y="-24" type="curve"/>
      <point x="-439" y="-24" type="line"/>
      <point x="-397" y="-139"/>
      <point x="-281" y="-205"/>
    </contour>
  </outline>
</glyph>
<glyph name="doublebrevecomb" format="2">
  <unicode hex="035D"/>
  <anchor x="56" y="536" name="_top"/>
  <anchor x="107" y="776" name="top"/>
  <outline>
    <contour>
      <point x="79" y="595" type="curve" smooth="yes"/>
      <point x="283" y="595"/>
      <point x="388" y="652"/>
      <point x="484" y="776" type="curve"/>
      <point x="474" y="776" type="line"/>
      <point x="406" y="703"/>
      <point x="295" y="655"/>
      <point x="82" y="655" type="curve" smooth="yes"/>
      <point x="-101" y="655"/>
      <point x="-217" y="691"/>
      <point x="-259" y="776" type="curve"/>
      <point x="-269" y="776" type="line"/>
      <point x="-227" y="661"/>
      <point x="-111" y="595"/>
    </contour>
  </outline>
</glyph>
<glyph name="tildedoublecomb" format="2">
  <unicode hex="0360"/>
  <anchor x="-143" y="536" name="_top"/>
  <anchor x="88" y="736" name="top"/>
  <outline>
    <contour>
      <point x="-302" y="606" type="curve"/>
      <point x="-292" y="606" type="line"/>
      <point x="-255" y="658"/>
      <point x="-192" y="675"/>
      <point x="-124" y="675" type="curve" smooth="yes"/>
      <point x="18" y="675"/>
      <point x="124" y="607"/>
      <point x="279" y="607" type="curve" smooth="yes"/>
      <point x="372" y="607"/>
      <point x="435" y="655"/>
      <point x="473" y="736" type="curve"/>
      <point x="463" y="736" type="line"/>
      <point x="426" y="684"/>
      <point x="363" y="667"/>
      <point x="295" y="667" type="curve" smooth="yes"/>
      <point x="153" y="667"/>
      <point x="47" y="735"/>
      <point x="-108" y="735" type="curve" smooth="yes"/>
      <point x="-201" y="735"/>
      <point x="-264" y="687"/>
    </contour>
  </outline>
</glyph>
